<svg width="47" height="9" viewBox="0 0 47 9" fill="none" xmlns="http://www.w3.org/2000/svg">
<mask id="mask0_2005_4192" style="mask-type:luminance" maskUnits="userSpaceOnUse" x="0" y="0" width="48" height="10">
<path d="M48 0H0V10H48V0Z" fill="white"/>
<path d="M7.76278 4.19838V8.79491H6.81901L6.59483 7.76945C5.92627 8.58982 5.05327 9 3.97573 9C2.79602 9 1.8365 8.58982 1.09718 7.76945C0.365726 6.94908 0 5.87938 0 4.56034C0 3.26537 0.369613 2.18762 1.10894 1.32708C1.84827 0.458398 2.84716 0.0240562 4.10552 0.0240562C5.01789 0.0240562 5.81224 0.285519 6.48867 0.808239C7.17287 1.33106 7.56222 2.04287 7.65662 2.94366H6.2291C6.14258 2.4289 5.90664 2.02676 5.52128 1.73727C5.14369 1.43962 4.66791 1.2909 4.09376 1.2909C3.28366 1.2909 2.6466 1.58039 2.18249 2.15948C1.71848 2.73857 1.48643 3.53081 1.48643 4.53619C1.48643 5.54962 1.71848 6.34583 2.18249 6.92492C2.65438 7.49596 3.30718 7.78147 4.14091 7.78147C4.87236 7.78147 5.43475 7.54825 5.82799 7.0818C6.2291 6.61534 6.42966 6.04023 6.42966 5.35656H4.16453V4.19838H7.76278ZM15.0866 7.49198V8.79491H9.32935V0.205091H10.8159V7.49198H15.0866ZM19.7374 0C20.9251 0 21.8885 0.418237 22.6279 1.25471C23.3751 2.08313 23.7487 3.16486 23.7487 4.5C23.7487 5.83514 23.3751 6.92094 22.6279 7.75742C21.8807 8.58584 20.9094 9 19.7138 9C18.5105 9 17.5352 8.58584 16.788 7.75742C16.0488 6.929 15.6791 5.84319 15.6791 4.5C15.6791 3.19707 16.0409 2.1233 16.7645 1.27877C17.4959 0.426289 18.4869 0 19.7374 0ZM19.7138 1.26674C18.9431 1.26674 18.3257 1.56031 17.8617 2.14745C17.3975 2.72654 17.1656 3.50267 17.1656 4.47584C17.1656 5.47317 17.3937 6.2654 17.8498 6.85255C18.3139 7.43969 18.9431 7.73326 19.7374 7.73326C20.5004 7.73326 21.1099 7.43969 21.5661 6.85255C22.0301 6.25735 22.2621 5.46919 22.2621 4.48797C22.2621 3.50665 22.0301 2.72654 21.5661 2.14745C21.1099 1.56031 20.4925 1.26674 19.7138 1.26674ZM25.0672 0.205091H28.9014C29.7823 0.205091 30.4547 0.402131 30.9188 0.79621C31.3907 1.18224 31.6267 1.70506 31.6267 2.36457C31.6267 2.77476 31.5165 3.14478 31.2963 3.47454C31.0761 3.79624 30.7851 4.02947 30.4233 4.17422C30.911 4.29491 31.2963 4.53619 31.5795 4.89816C31.8626 5.26002 32.0041 5.71445 32.0041 6.26143C32.0041 7.01748 31.7564 7.62868 31.2609 8.09523C30.7733 8.56168 30.1362 8.79491 29.3498 8.79491H25.0672V0.205091ZM26.5065 1.42362V3.78819H28.5121C29.0783 3.78819 29.4952 3.69971 29.7626 3.52275C30.0301 3.33774 30.1638 3.03214 30.1638 2.60585C30.1638 2.12329 30.0222 1.80556 29.739 1.65276C29.4638 1.49997 29.0705 1.42362 28.5593 1.42362H26.5065ZM26.5065 4.874V7.56435H28.7126C29.2789 7.56435 29.7233 7.46782 30.0457 7.27486C30.3683 7.0818 30.5295 6.73196 30.5295 6.22524C30.5295 5.9437 30.4783 5.71047 30.3761 5.52546C30.2818 5.3324 30.1401 5.19173 29.9514 5.10325C29.7705 5.01477 29.5817 4.95442 29.3852 4.92221C29.1885 4.8901 28.9564 4.874 28.6891 4.874H26.5065ZM37.2199 0.192961L40.4643 8.79491H38.8834L38.0811 6.51474H34.7542L33.9284 8.79491H32.4065L35.6508 0.192961H37.2199ZM37.6918 5.38071L36.4413 1.76133L35.1317 5.38071H37.6918ZM47 7.49198V8.79491H41.2428V0.205091H42.7293V7.49198H47Z" fill="black"/>
</mask>
<g mask="url(#mask0_2005_4192)">
<path d="M7.82243 4.20438H7.9114V4.11486H7.82243V4.20438ZM7.82243 8.70947V8.79899H7.9114V8.70947H7.82243ZM6.88223 8.70947L6.79534 8.72905L6.81093 8.79899H6.88223V8.70947ZM6.6589 7.70441L6.74579 7.68493L6.70627 7.50739L6.59058 7.64706L6.6589 7.70441ZM7.71667 2.97463V3.06414H7.81567L7.80515 2.96513L7.71667 2.97463ZM6.29456 2.97463L6.20688 2.98981L6.21959 3.06414H6.29456V2.97463ZM5.58942 1.79223L5.535 1.86316L5.53669 1.86436L5.58942 1.79223ZM2.26329 6.87668L2.19448 6.93343L2.19537 6.93453L2.26329 6.87668ZM6.49436 5.33952H6.58333V5.25H6.49436V5.33952ZM4.23782 5.33952H4.14884V5.42903H4.23782V5.33952ZM4.23782 4.20438V4.11486H4.14884V4.20438H4.23782ZM7.82243 4.20438H7.73345V8.70947H7.82243H7.9114V4.20438H7.82243ZM7.82243 8.70947V8.61996H6.88223V8.70947V8.79899H7.82243V8.70947ZM6.88223 8.70947L6.96902 8.68999L6.74579 7.68493L6.6589 7.70441L6.57201 7.72399L6.79534 8.72905L6.88223 8.70947ZM6.6589 7.70441L6.59058 7.64706C5.94204 8.43003 5.09777 8.82097 4.04974 8.82097V8.91048V9C5.14861 9 6.04372 8.58699 6.72722 7.76176L6.6589 7.70441ZM4.04974 8.91048V8.82097C2.89704 8.82097 1.96568 8.42783 1.24753 7.64377L1.18209 7.70441L1.11626 7.76475C1.87105 8.58889 2.85186 9 4.04974 9V8.91048ZM1.18209 7.70441L1.24753 7.64377C0.536527 6.8592 0.178047 5.83406 0.178047 4.55914H0.0890728H0C0 5.86982 0.3699 6.94122 1.11626 7.76475L1.18209 7.70441ZM0.0890728 4.55914H0.178047C0.178047 3.30871 0.540304 2.27428 1.26064 1.44925L1.19381 1.3902L1.12698 1.33106C0.374269 2.19305 0 3.27125 0 4.55914H0.0890728ZM1.19381 1.3902L1.26064 1.44925C1.9781 0.619823 2.94778 0.202612 4.17903 0.202612V0.113096V0.0235795C2.903 0.0235795 1.88247 0.457773 1.12698 1.33106L1.19381 1.3902ZM4.17903 0.113096V0.202612C5.07017 0.202612 5.84224 0.453377 6.49942 0.953111L6.55315 0.881679L6.60677 0.810344C5.91632 0.285234 5.10572 0.0235795 4.17903 0.0235795V0.113096ZM6.55315 0.881679L6.49942 0.953111C7.16048 1.45005 7.53664 2.12502 7.62819 2.98422L7.71667 2.97463L7.80515 2.96513C7.70863 2.05848 7.30913 1.33825 6.60677 0.810344L6.55315 0.881679ZM7.71667 2.97463V2.88511H6.29456V2.97463V3.06414H7.71667V2.97463ZM6.29456 2.97463L6.38225 2.95944C6.29248 2.43383 6.04591 2.01852 5.64205 1.7201L5.58942 1.79223L5.53669 1.86436C5.90073 2.13341 6.12426 2.50646 6.20688 2.98981L6.29456 2.97463ZM5.58942 1.79223L5.64374 1.72129C5.24911 1.41528 4.75478 1.26512 4.16731 1.26512V1.35474V1.44425C4.7237 1.44425 5.17741 1.58592 5.535 1.86316L5.58942 1.79223ZM4.16731 1.35474V1.26512C3.33685 1.26512 2.6756 1.55865 2.19448 2.14929L2.26329 2.20604L2.33211 2.26279C2.77559 1.7184 3.38372 1.44425 4.16731 1.44425V1.35474ZM2.26329 2.20604L2.19448 2.14929C1.71534 2.73765 1.48089 3.5365 1.48089 4.53547H1.56987H1.65884C1.65884 3.56368 1.88674 2.80958 2.33211 2.26279L2.26329 2.20604ZM1.56987 4.53547H1.48089C1.48089 5.54213 1.71525 6.34498 2.19448 6.93343L2.26329 6.87668L2.33211 6.81994C1.88684 6.27325 1.65884 5.51535 1.65884 4.53547H1.56987ZM2.26329 6.87668L2.19537 6.93453C2.68483 7.51728 3.36168 7.80582 4.21428 7.80582V7.7162V7.62668C3.40586 7.62668 2.78205 7.35554 2.33131 6.81894L2.26329 6.87668ZM4.21428 7.7162V7.80582C4.96282 7.80582 5.55009 7.57004 5.9624 7.08888L5.89497 7.03044L5.82814 6.97129C5.45685 7.40459 4.9232 7.62668 4.21428 7.62668V7.7162ZM5.89497 7.03044L5.9624 7.08888C6.37778 6.61363 6.58333 6.02897 6.58333 5.33952H6.49436H6.40538C6.40538 5.99021 6.21194 6.5321 5.82814 6.97129L5.89497 7.03044ZM6.49436 5.33952V5.25H4.23782V5.33952V5.42903H6.49436V5.33952ZM4.23782 5.33952H4.32679V4.20438H4.23782H4.14884V5.33952H4.23782ZM4.23782 4.20438V4.29389H7.82243V4.20438V4.11486H4.23782V4.20438ZM15.1185 7.43246H15.2075V7.34295H15.1185V7.43246ZM15.1185 8.70947V8.79899H15.2075V8.70947H15.1185ZM9.38306 8.70947H9.29408V8.79899H9.38306V8.70947ZM9.38306 0.290529V0.201013H9.29408V0.290529H9.38306ZM10.864 0.290529H10.9529V0.201013H10.864V0.290529ZM10.864 7.43246H10.775V7.52198H10.864V7.43246ZM15.1185 7.43246H15.0295V8.70947H15.1185H15.2075V7.43246H15.1185ZM15.1185 8.70947V8.61996H9.38306V8.70947V8.79899H15.1185V8.70947ZM9.38306 8.70947H9.47203V0.290529H9.38306H9.29408V8.70947H9.38306ZM9.38306 0.290529V0.380047H10.864V0.290529V0.201013H9.38306V0.290529ZM10.864 0.290529H10.775V7.43246H10.864H10.9529V0.290529H10.864ZM10.864 7.43246V7.52198H15.1185V7.43246V7.34295H10.864V7.43246ZM21.5734 2.19425L21.5037 2.2499L21.5046 2.251L21.5734 2.19425ZM19.7517 0.089518V0.179034C20.9118 0.179034 21.8469 0.57976 22.5651 1.37921L22.6312 1.31927L22.6972 1.25923C21.9424 0.41901 20.9578 0 19.7517 0V0.089518ZM22.6312 1.31927L22.5651 1.37921C23.2916 2.17167 23.6587 3.2095 23.6587 4.5H23.7477H23.8367C23.8367 3.17334 23.4594 2.09065 22.6972 1.25923L22.6312 1.31927ZM23.7477 4.5H23.6587C23.6587 5.7905 23.2922 6.83173 22.5654 7.63218L22.6312 7.69262L22.6966 7.75326C23.4585 6.91405 23.8367 5.82666 23.8367 4.5H23.7477ZM22.6312 7.69262L22.5654 7.63218C21.8395 8.42414 20.8966 8.82097 19.7282 8.82097V8.91048V9C20.9416 9 21.9339 8.58529 22.6966 7.75326L22.6312 7.69262ZM19.7282 8.91048V8.82097C18.5517 8.82097 17.6048 8.42364 16.8789 7.63188L16.8134 7.69262L16.7477 7.75296C17.5105 8.58509 18.5071 9 19.7282 9V8.91048ZM16.8134 7.69262L16.8789 7.63188C16.1602 6.83952 15.7977 5.79879 15.7977 4.5H15.7087H15.6197C15.6197 5.83415 15.9934 6.92134 16.7477 7.75296L16.8134 7.69262ZM15.7087 4.5H15.7977C15.7977 3.24098 16.1525 2.21064 16.8569 1.40189L16.79 1.34285L16.7231 1.2838C15.9858 2.13041 15.6197 3.20491 15.6197 4.5H15.7087ZM16.79 1.34285L16.8569 1.40189C17.5664 0.588251 18.5279 0.179034 19.7517 0.179034V0.089518V0C18.4839 0 17.4709 0.426302 16.7231 1.2838L16.79 1.34285ZM19.7282 1.33106V1.24154C18.9348 1.24154 18.2938 1.54046 17.8138 2.13801L17.883 2.19425L17.9518 2.251C18.3963 1.69762 18.9859 1.42058 19.7282 1.42058V1.33106ZM17.883 2.19425L17.8138 2.13801C17.335 2.72586 17.1006 3.50813 17.1006 4.47632H17.1896H17.2786C17.2786 3.5369 17.5061 2.79829 17.9518 2.251L17.883 2.19425ZM17.1896 4.47632H17.1006C17.1006 5.4674 17.331 6.26565 17.8016 6.8615L17.8712 6.80575L17.9409 6.7501C17.5026 6.19502 17.2786 5.44032 17.2786 4.47632H17.1896ZM17.8712 6.80575L17.8016 6.8615C18.2822 7.45984 18.9358 7.75846 19.7517 7.75846V7.66894V7.57943C18.9849 7.57943 18.3849 7.30279 17.9409 6.7501L17.8712 6.80575ZM19.7517 7.66894V7.75846C20.5376 7.75846 21.171 7.45924 21.6431 6.8615L21.5734 6.80575L21.5038 6.75C21.067 7.30308 20.4858 7.57943 19.7517 7.57943V7.66894ZM21.5734 6.80575L21.6431 6.8615C22.1211 6.25816 22.3558 5.4642 22.3558 4.48821H22.2668H22.1778C22.1778 5.43553 21.9503 6.18653 21.5038 6.75L21.5734 6.80575ZM22.2668 4.48821H22.3558C22.3558 3.51222 22.1211 2.72546 21.6422 2.13751L21.5734 2.19425L21.5046 2.251C21.9502 2.79819 22.1778 3.5407 22.1778 4.48821H22.2668ZM21.5734 2.19425L21.6431 2.13851C21.1706 1.54026 20.5291 1.24154 19.7282 1.24154V1.33106V1.42058C20.4787 1.42058 21.0673 1.69732 21.5037 2.2499L21.5734 2.19425ZM25.0613 0.290529V0.201013H24.9723V0.290529H25.0613ZM30.8907 0.869889L30.8338 0.938825L30.8351 0.939823L30.8907 0.869889ZM31.2668 3.49494L31.3397 3.54629L31.3402 3.54539L31.2668 3.49494ZM30.3971 4.1807L30.3646 4.09738L30.1016 4.20088L30.3761 4.26772L30.3971 4.1807ZM25.0613 8.70947H24.9723V8.79899H25.0613V8.70947ZM26.4951 1.48481V1.3952H26.4061V1.48481H26.4951ZM26.4951 3.80235H26.4061V3.89187H26.4951V3.80235ZM29.7389 3.5422L29.7873 3.61742L29.7887 3.61643L29.7389 3.5422ZM29.7154 1.70941L29.673 1.78813L29.6739 1.78863L29.7154 1.70941ZM26.4951 4.86656V4.77704H26.4061V4.86656H26.4951ZM26.4951 7.5034H26.4061V7.59291H26.4951V7.5034ZM30.35 5.50506L30.2704 5.54513L30.2726 5.54912L30.35 5.50506ZM29.927 5.09125L29.8885 5.17197L29.8898 5.17257L29.927 5.09125ZM25.0613 0.290529V0.380047H28.8809V0.290529V0.201013H25.0613V0.290529ZM28.8809 0.290529V0.380047C29.747 0.380047 30.3935 0.570868 30.8338 0.938825L30.8907 0.869889L30.9475 0.801054C30.4633 0.396432 29.77 0.201013 28.8809 0.201013V0.290529ZM30.8907 0.869889L30.8351 0.939823C31.2826 1.29989 31.5069 1.78573 31.5069 2.40705H31.5958H31.6848C31.6848 1.73558 31.4391 1.19658 30.9463 0.799955L30.8907 0.869889ZM31.5958 2.40705H31.5069C31.5069 2.79159 31.4023 3.13657 31.1933 3.44439L31.2668 3.49494L31.3402 3.54539C31.57 3.20691 31.6848 2.82656 31.6848 2.40705H31.5958ZM31.2668 3.49494L31.1933 3.44439C30.9841 3.74511 30.7089 3.9618 30.3646 4.09738L30.3971 4.1807L30.4294 4.26412C30.806 4.11586 31.1101 3.87618 31.3397 3.54629L31.2668 3.49494ZM30.3971 4.1807L30.3761 4.26772C30.8449 4.38191 31.211 4.6086 31.4794 4.94618L31.5489 4.89024L31.6183 4.83429C31.3226 4.46244 30.9208 4.21606 30.418 4.09368L30.3971 4.1807ZM31.5489 4.89024L31.4794 4.94618C31.7466 5.28227 31.8829 5.70687 31.8829 6.22639H31.9719H32.061C32.061 5.67381 31.9152 5.20764 31.6183 4.83429L31.5489 4.89024ZM31.9719 6.22639H31.8829C31.8829 6.94502 31.6447 7.51928 31.1712 7.95777L31.2315 8.02371L31.2918 8.08955C31.8056 7.6136 32.061 6.98968 32.061 6.22639H31.9719ZM31.2315 8.02371L31.1712 7.95777C30.7048 8.39676 30.0928 8.61996 29.3276 8.61996V8.70947V8.79899C30.1294 8.79899 30.7866 8.56501 31.2918 8.08955L31.2315 8.02371ZM29.3276 8.70947V8.61996H25.0613V8.70947V8.79899H29.3276V8.70947ZM25.0613 8.70947H25.1502V0.290529H25.0613H24.9723V8.70947H25.0613ZM26.4951 1.48481H26.4061V3.80235H26.4951H26.5841V1.48481H26.4951ZM26.4951 3.80235V3.89187H28.4931V3.80235V3.71284H26.4951V3.80235ZM28.4931 3.80235V3.89187C29.0628 3.89187 29.4991 3.80495 29.7873 3.61742L29.7389 3.5422L29.6905 3.46706C29.446 3.62632 29.0517 3.71284 28.4931 3.71284V3.80235ZM29.7389 3.5422L29.7887 3.61643C30.0867 3.41361 30.2275 3.08142 30.2275 2.64353H30.1385H30.0495C30.0495 3.04126 29.924 3.30821 29.6891 3.46806L29.7389 3.5422ZM30.1385 2.64353H30.2275C30.2275 2.15489 30.0809 1.80232 29.757 1.63028L29.7154 1.70941L29.6739 1.78863C29.914 1.91611 30.0495 2.18626 30.0495 2.64353H30.1385ZM29.7154 1.70941L29.7579 1.63078C29.4648 1.47073 29.0559 1.3952 28.5401 1.3952V1.48481V1.57433C29.0429 1.57433 29.4175 1.64856 29.673 1.78813L29.7154 1.70941ZM28.5401 1.48481V1.3952H26.4951V1.48481V1.57433H28.5401V1.48481ZM26.4951 4.86656H26.4061V7.5034H26.4951H26.5841V4.86656H26.4951ZM26.4951 7.5034V7.59291H28.6929V7.5034V7.41388H26.4951V7.5034ZM28.6929 7.5034V7.59291C29.2653 7.59291 29.7258 7.4972 30.0659 7.29689L30.0209 7.21966L29.976 7.14233C29.6737 7.32037 29.2487 7.41388 28.6929 7.41388V7.5034ZM30.0209 7.21966L30.0659 7.29689C30.4232 7.08649 30.5918 6.70754 30.5918 6.19092H30.5028H30.4139C30.4139 6.66748 30.2612 6.97439 29.976 7.14233L30.0209 7.21966ZM30.5028 6.19092H30.5918C30.5918 5.90439 30.539 5.65942 30.4276 5.461L30.35 5.50506L30.2726 5.54912C30.3648 5.71337 30.4139 5.92557 30.4139 6.19092H30.5028ZM30.35 5.50506L30.4296 5.465C30.3267 5.25789 30.1709 5.10524 29.964 5.00983L29.927 5.09125L29.8898 5.17257C30.0592 5.2507 30.1853 5.37389 30.2704 5.54513L30.35 5.50506ZM29.927 5.09125L29.9653 5.01042C29.7774 4.92011 29.5812 4.85837 29.3768 4.8255L29.3628 4.91382L29.3487 5.00223C29.5361 5.0324 29.716 5.08895 29.8885 5.17197L29.927 5.09125ZM29.3628 4.91382L29.3768 4.8255C29.1751 4.79293 28.939 4.77704 28.6694 4.77704V4.86656V4.95608C28.9326 4.95608 29.1588 4.97166 29.3487 5.00223L29.3628 4.91382ZM28.6694 4.86656V4.77704H26.4951V4.86656V4.95608H28.6694V4.86656ZM37.1679 0.27864L37.2509 0.24647L37.229 0.189124H37.1679V0.27864ZM40.4 8.70947V8.79899H40.5297L40.483 8.6773L40.4 8.70947ZM38.825 8.70947L38.7413 8.73984L38.7625 8.79899H38.825V8.70947ZM38.0259 6.47466L38.1096 6.44439L38.0884 6.38514H38.0259V6.47466ZM34.7116 6.47466V6.38514H34.6496L34.6281 6.44359L34.7116 6.47466ZM33.8888 8.70947V8.79899H33.9508L33.9724 8.74064L33.8888 8.70947ZM32.3727 8.70947L32.2897 8.6773L32.243 8.79899H32.3727V8.70947ZM35.6048 0.27864V0.189124H35.5437L35.5218 0.24647L35.6048 0.27864ZM37.638 5.36319V5.45271H37.7638L37.7219 5.33332L37.638 5.36319ZM36.3922 1.81581L36.4762 1.78603L36.3941 1.55265L36.3087 1.78474L36.3922 1.81581ZM35.0876 5.36319L35.0042 5.33212L34.9598 5.45271H35.0876V5.36319ZM37.1679 0.27864L37.0849 0.310911L40.317 8.74174L40.4 8.70947L40.483 8.6773L37.2509 0.24647L37.1679 0.27864ZM40.4 8.70947V8.61996H38.825V8.70947V8.79899H40.4V8.70947ZM38.825 8.70947L38.9088 8.6792L38.1096 6.44439L38.0259 6.47466L37.9422 6.50503L38.7413 8.73984L38.825 8.70947ZM38.0259 6.47466V6.38514H34.7116V6.47466V6.56417H38.0259V6.47466ZM34.7116 6.47466L34.6281 6.44359L33.8054 8.6784L33.8888 8.70947L33.9724 8.74064L34.795 6.50573L34.7116 6.47466ZM33.8888 8.70947V8.61996H32.3727V8.70947V8.79899H33.8888V8.70947ZM32.3727 8.70947L32.4558 8.74174L35.6878 0.310911L35.6048 0.27864L35.5218 0.24647L32.2897 8.6773L32.3727 8.70947ZM35.6048 0.27864V0.368158H37.1679V0.27864V0.189124H35.6048V0.27864ZM37.638 5.36319L37.7219 5.33332L36.4762 1.78603L36.3922 1.81581L36.3083 1.84568L37.5541 5.39297L37.638 5.36319ZM36.3922 1.81581L36.3087 1.78474L35.0042 5.33212L35.0876 5.36319L35.1711 5.39427L36.4757 1.84688L36.3922 1.81581ZM35.0876 5.36319V5.45271H37.638V5.36319V5.27368H35.0876V5.36319ZM46.9109 7.43246H47V7.34295H46.9109V7.43246ZM46.9109 8.70947V8.79899H47V8.70947H46.9109ZM41.1755 8.70947H41.0866V8.79899H41.1755V8.70947ZM41.1755 0.290529V0.201013H41.0866V0.290529H41.1755ZM42.6564 0.290529H42.7454V0.201013H42.6564V0.290529ZM42.6564 7.43246H42.5674V7.52198H42.6564V7.43246ZM46.9109 7.43246H46.8219V8.70947H46.9109H47V7.43246H46.9109ZM46.9109 8.70947V8.61996H41.1755V8.70947V8.79899H46.9109V8.70947ZM41.1755 8.70947H41.2645V0.290529H41.1755H41.0866V8.70947H41.1755ZM41.1755 0.290529V0.380047H42.6564V0.290529V0.201013H41.1755V0.290529ZM42.6564 0.290529H42.5674V7.43246H42.6564H42.7454V0.290529H42.6564ZM42.6564 7.43246V7.52198H46.9109V7.43246V7.34295H42.6564V7.43246Z" fill="white"/>
</g>
</svg>
