<svg width="39" height="10" viewBox="0 0 39 10" fill="none" xmlns="http://www.w3.org/2000/svg">
<mask id="mask0_2005_6066" style="mask-type:luminance" maskUnits="userSpaceOnUse" x="0" y="0" width="40" height="10">
<path d="M40 0H0V10H40V0Z" fill="white"/>
<path fill-rule="evenodd" clip-rule="evenodd" d="M5.15368 2.5536H6.56028C6.52872 1.69105 6.22541 1.0517 5.65014 0.635567C5.07488 0.219422 4.33014 0.011344 3.41611 0.011344C2.47043 0.011344 1.714 0.226988 1.14653 0.658265C0.587049 1.08197 0.307306 1.65322 0.307306 2.37201V2.53091C0.354646 3.24212 0.721075 3.768 1.40659 4.10851C1.73757 4.27489 2.42709 4.48681 3.47514 4.74399C3.5067 4.75157 3.55004 4.76298 3.60517 4.77804C4.09374 4.89915 4.4366 4.9937 4.63355 5.06178C4.83059 5.12987 5.01186 5.24714 5.17725 5.41361C5.35063 5.57251 5.43732 5.78059 5.43732 6.03787C5.43732 6.4389 5.27583 6.75285 4.95274 6.97983C4.63755 7.19923 4.19621 7.30903 3.62884 7.30903C2.98267 7.30903 2.45864 7.16902 2.05676 6.88902C1.65488 6.60153 1.45394 6.16273 1.45394 5.57251H0C0 6.51072 0.327083 7.22196 0.981142 7.70622C1.6351 8.19047 2.4901 8.4326 3.54615 8.4326C3.88491 8.4326 4.21199 8.4023 4.52719 8.34179C4.84238 8.28886 5.14579 8.19805 5.43732 8.06936C5.72894 7.94077 5.98112 7.78188 6.19384 7.59268C6.40657 7.396 6.57605 7.15387 6.70209 6.86639C6.82823 6.57881 6.89125 6.25728 6.89125 5.90171C6.89125 5.08451 6.51693 4.48297 5.76829 4.0971C5.42943 3.91548 4.79115 3.71123 3.85345 3.48425C3.75098 3.46152 3.60517 3.42374 3.41611 3.37072C2.69893 3.19677 2.23403 3.0492 2.02131 2.92813C1.81637 2.80708 1.714 2.58387 1.714 2.25852C1.714 1.91047 1.85582 1.63809 2.13945 1.44136C2.42319 1.23708 2.81718 1.13494 3.32154 1.13494C4.45628 1.13494 5.06699 1.60782 5.15368 2.5536ZM13.0429 3.06433C12.4914 2.50442 11.7506 2.22447 10.8207 2.22447C9.87512 2.22447 9.11859 2.50442 8.55122 3.06433C7.99174 3.62425 7.71199 4.37711 7.71199 5.3228C7.71199 6.27617 7.99174 7.03286 8.55122 7.59268C9.1108 8.1526 9.86723 8.4326 10.8207 8.4326C11.7585 8.4326 12.4992 8.1526 13.0429 7.59268C13.5945 7.03286 13.8704 6.27617 13.8704 5.3228C13.8704 4.37711 13.5945 3.62425 13.0429 3.06433ZM10.7971 3.24596C11.3329 3.24596 11.7506 3.43132 12.05 3.80204C12.3574 4.16519 12.511 4.66833 12.511 5.31149C12.511 5.96979 12.3574 6.48809 12.05 6.86639C11.7506 7.23711 11.3369 7.42247 10.8089 7.42247C10.2652 7.42247 9.83966 7.23711 9.53236 6.86639C9.22505 6.49557 9.07135 5.98111 9.07135 5.3228C9.07135 4.67975 9.22505 4.17276 9.53236 3.80204C9.83966 3.43132 10.2612 3.24596 10.7971 3.24596ZM29.3377 8.25098V2.39471H27.9901V5.49311C27.9901 6.02272 27.872 6.46153 27.6356 6.80962C27.3992 7.15013 27.0288 7.32034 26.5244 7.32034C26.3038 7.32034 26.1148 7.29004 25.9571 7.22953C25.8073 7.16903 25.6892 7.09711 25.6025 7.01387C25.5237 6.93064 25.4607 6.81336 25.4134 6.66204C25.374 6.50315 25.3503 6.36324 25.3424 6.24213C25.3346 6.11353 25.3307 5.94706 25.3307 5.74281V2.39471H23.9831V6.27617C23.9831 6.96468 24.1605 7.49439 24.515 7.86511C24.8775 8.22826 25.3937 8.40988 26.0635 8.40988C26.8909 8.40988 27.5607 8.06562 28.0729 7.37711V8.25098H29.3377ZM32.1535 1.40732V0.136187H30.806V1.40732H32.1535ZM32.1535 8.25098V2.39471H30.806V8.25098H32.1535ZM34.9102 3.25727V2.39471H33.6336V8.25098H34.9811V5.09582C34.9811 3.908 35.4775 3.31404 36.4705 3.31404C36.7305 3.31404 36.9432 3.35566 37.1087 3.43889C37.2742 3.51455 37.3924 3.63183 37.4634 3.79072C37.5422 3.94962 37.5933 4.10851 37.617 4.26731C37.6407 4.41873 37.6524 4.61166 37.6524 4.84622V8.25098H39V4.34681C39 3.66587 38.8266 3.14377 38.4799 2.78059C38.141 2.41742 37.6249 2.23582 36.9315 2.23582C36.0725 2.23582 35.3987 2.5763 34.9102 3.25727Z" fill="white"/>
<path fill-rule="evenodd" clip-rule="evenodd" d="M22.7211 8.22826L22 9L20.7471 7.97865C20.2349 8.28886 19.5691 8.44392 18.7495 8.44392C17.5595 8.44392 16.5943 8.05805 15.8535 7.2863C15.1128 6.50698 14.7424 5.48927 14.7424 4.23327C14.7424 2.98488 15.1167 1.96722 15.8653 1.18033C16.6218 0.393438 17.599 0 18.7968 0C19.9788 0 20.9441 0.393438 21.6927 1.18033C22.4414 1.95965 22.8157 2.96596 22.8157 4.19923C22.8157 4.84238 22.7093 5.43634 22.4965 5.98111C22.2917 6.52587 22 6.97225 21.6218 7.32034L22.7211 8.22826ZM21.3381 4.21064C21.3381 5.08825 21.086 5.83353 20.5817 6.44647L19.5887 5.61796L18.8795 6.38971L19.7424 7.09337C19.4429 7.22196 19.1277 7.2863 18.7968 7.2863C18.0167 7.2863 17.3941 7.01013 16.9292 6.45779C16.4643 5.89787 16.2318 5.14885 16.2318 4.21064C16.2318 3.29506 16.4603 2.56496 16.9174 2.02018C17.3823 1.46785 18.0009 1.19168 18.7731 1.19168C19.5533 1.19168 20.1758 1.46785 20.6408 2.02018C21.1057 2.56496 21.3381 3.29506 21.3381 4.21064Z" fill="white"/>
</mask>
<g mask="url(#mask0_2005_6066)">
<path d="M6.6456 2.88028V3.01398H6.77884L6.77418 2.8756L6.6456 2.88028ZM5.24828 2.88028L5.1201 2.892L5.13051 3.01398H5.24828V2.88028ZM2.25393 1.68399L2.32923 1.7924L2.33111 1.79095L2.25393 1.68399ZM2.13656 3.28311L2.06909 3.397L2.07098 3.39813L2.13656 3.28311ZM3.52217 3.75914L3.55818 3.63073L3.55362 3.6296L3.52217 3.75914ZM3.95662 3.88126L3.98807 3.75161L3.98549 3.75099L3.95662 3.88126ZM5.85884 4.54042L5.79613 4.65718L5.79802 4.65821L5.85884 4.54042ZM6.28158 8.30016L6.36899 8.39835L6.37078 8.39649L6.28158 8.30016ZM4.62591 9.10589L4.60369 8.97418L4.60072 8.9748L4.62591 9.10589ZM0.128581 6.12732V5.99366H0V6.12732H0.128581ZM1.57293 6.12732H1.70151V5.99366H1.57293V6.12732ZM2.17178 7.54332L2.09489 7.65059L2.09628 7.65162L2.17178 7.54332ZM5.27169 5.95642L5.17863 6.04884L5.1829 6.05317L5.27169 5.95642ZM3.70998 5.27281L3.67466 5.40143L3.67783 5.40236L3.70998 5.27281ZM0.433861 2.85587H0.304985L0.305579 2.86439L0.433861 2.85587ZM6.6456 2.88028V2.74658H6.51017H5.36337H5.24828V2.88028V3.01398H6.6456V2.88028ZM5.24828 2.88028L5.37636 2.86856C5.37287 2.82721 5.36854 2.78654 5.36337 2.74658C5.30169 2.26971 5.1206 1.89267 4.80936 1.6318C4.47491 1.35138 4.00841 1.2207 3.42821 1.2207V1.35441V1.48811C3.97518 1.48811 4.3757 1.61174 4.64794 1.83994C4.9174 2.06584 5.07932 2.40958 5.1201 2.892L5.24828 2.88028ZM3.42821 1.35441V1.2207C2.91072 1.2207 2.48856 1.33397 2.17674 1.57703L2.25393 1.68399L2.33111 1.79095C2.58302 1.59455 2.94366 1.48811 3.42821 1.48811V1.35441ZM2.25393 1.68399L2.17862 1.5756C1.86193 1.81338 1.7026 2.14743 1.7026 2.5629H1.83128H1.95986C1.95986 2.22967 2.08229 1.97781 2.32923 1.7924L2.25393 1.68399ZM1.83128 2.5629H1.7026C1.7026 2.93837 1.81312 3.23321 2.06909 3.397L2.13656 3.28311L2.20392 3.16925C2.05292 3.07261 1.95986 2.8873 1.95986 2.5629H1.83128ZM2.13656 3.28311L2.07098 3.39813C2.30064 3.53965 2.78004 3.70197 3.48773 3.88803L3.49062 3.88879L3.52217 3.75914L3.55362 3.6296C2.83809 3.44156 2.39481 3.28679 2.20214 3.16809L2.13656 3.28311ZM3.52217 3.75914L3.48615 3.88755L3.48773 3.88803C3.67467 3.94468 3.82131 3.98597 3.92629 4.0112L3.92765 4.01152L3.95662 3.88126L3.98549 3.75099C3.88737 3.72748 3.7453 3.68746 3.55818 3.63073L3.52217 3.75914ZM3.95662 3.88126L3.92517 4.0109L3.92629 4.0112C4.85778 4.25531 5.4762 4.4715 5.79613 4.65718L5.85884 4.54042L5.92154 4.42367C5.56844 4.21883 4.91909 3.99564 3.98807 3.75161L3.95662 3.88126ZM5.85884 4.54042L5.79802 4.65821C6.15281 4.85624 6.41294 5.10604 6.58508 5.40555C6.75721 5.70507 6.84581 6.06204 6.84581 6.4814H6.97439H7.10297C7.10297 6.02181 7.00564 5.61586 6.80593 5.26838C6.60621 4.9209 6.30867 4.63975 5.91965 4.42264L5.85884 4.54042ZM6.97439 6.4814H6.84581C6.84581 6.84847 6.78569 7.17635 6.66802 7.4671L6.78648 7.51898L6.90504 7.57086C7.03779 7.24298 7.10297 6.87921 7.10297 6.4814H6.97439ZM6.78648 7.51898L6.66802 7.4671C6.54876 7.76126 6.38992 8.00611 6.19239 8.20393L6.28158 8.30016L6.37078 8.39649C6.59589 8.17113 6.77368 7.89513 6.90504 7.57086L6.78648 7.51898ZM6.28158 8.30016L6.19418 8.20208C5.99377 8.39495 5.75496 8.55832 5.47637 8.69137L5.53004 8.81287L5.58372 8.93437C5.88443 8.7908 6.14665 8.61236 6.36899 8.39835L6.28158 8.30016ZM5.53004 8.81287L5.47637 8.69137C5.19679 8.82493 4.90589 8.9192 4.60369 8.97418L4.62591 9.10589L4.64804 9.23759C4.97217 9.1786 5.2841 9.07752 5.58372 8.93437L5.53004 8.81287ZM4.62591 9.10589L4.60072 8.9748C4.29633 9.03802 3.97994 9.06979 3.65134 9.06979V9.20356V9.33723C3.99591 9.33723 4.32927 9.30391 4.65112 9.23698L4.62591 9.10589ZM3.65134 9.20356V9.06979C2.6227 9.06979 1.8034 8.81472 1.18173 8.31635L1.10325 8.42228L1.02468 8.5282C1.7025 9.07154 2.58192 9.33723 3.65134 9.33723V9.20356ZM1.10325 8.42228L1.18173 8.31635C0.597885 7.8483 0.286691 7.16981 0.259164 6.2611C0.257829 6.21705 0.257162 6.17246 0.257162 6.12732H0.128581H0C0 7.16944 0.337327 7.97723 1.02468 8.5282L1.10325 8.42228ZM0.128581 6.12732V6.2611H0.259164H1.44718H1.57293V6.12732V5.99366H0.128581V6.12732ZM1.57293 6.12732H1.44425C1.44425 6.17261 1.44522 6.2172 1.44718 6.2611C1.47403 6.86311 1.68552 7.33346 2.09489 7.65059L2.17178 7.54332L2.24857 7.43616C1.88942 7.15789 1.70151 6.73059 1.70151 6.12732H1.57293ZM2.17178 7.54332L2.09628 7.65162C2.52319 7.97362 3.07264 8.12874 3.73349 8.12874V7.99508V7.8613C3.11053 7.8613 2.61873 7.71536 2.24728 7.43513L2.17178 7.54332ZM3.73349 7.99508V8.12874C4.3124 8.12874 4.78109 8.00786 5.12416 7.74929L5.04866 7.641L4.97316 7.5328C4.68991 7.7462 4.28185 7.8613 3.73349 7.8613V7.99508ZM5.04866 7.641L5.12416 7.74929C5.47994 7.47876 5.65872 7.09962 5.65872 6.62786H5.53004H5.40146C5.40146 7.01865 5.25939 7.31508 4.97316 7.5328L5.04866 7.641ZM5.53004 6.62786H5.65872C5.65872 6.32048 5.562 6.06082 5.36276 5.86194L5.36059 5.85978L5.27169 5.95642L5.1829 6.05317C5.32666 6.19571 5.40146 6.3829 5.40146 6.62786H5.53004ZM5.27169 5.95642L5.36476 5.86411L5.36276 5.86194C5.18717 5.67123 4.99139 5.53314 4.77513 5.45228L4.73158 5.578L4.68802 5.70383C4.86244 5.76912 5.02594 5.88268 5.17863 6.04884L5.27169 5.95642ZM4.73158 5.578L4.77513 5.45228C4.57323 5.37668 4.22747 5.27364 3.74212 5.14337L3.70998 5.27281L3.67783 5.40236C4.16318 5.53252 4.49852 5.63287 4.68802 5.70383L4.73158 5.578ZM3.70998 5.27281L3.7453 5.1443C3.69004 5.1279 3.64539 5.11522 3.61206 5.10655L3.5808 5.2362L3.54896 5.36574C3.57822 5.37338 3.62039 5.38534 3.67466 5.40143L3.70998 5.27281ZM3.5808 5.2362L3.61206 5.10655C2.56883 4.82932 1.89904 4.60488 1.58563 4.43419L1.5259 4.5527L1.46627 4.6711C1.81044 4.8585 2.51 5.08964 3.54896 5.36574L3.5808 5.2362ZM1.5259 4.5527L1.58563 4.43419C0.942725 4.08847 0.606192 3.56328 0.562241 2.84735L0.433861 2.85587L0.305579 2.86439C0.355483 3.67849 0.747077 4.28433 1.46627 4.6711L1.5259 4.5527ZM0.433861 2.85587H0.56254V2.85454V2.8532V2.85187V2.85052V2.84919L0.562241 2.84735L0.56254 2.84618V2.84485V2.84352V2.84218V2.84085V2.83951V2.83818V2.83684V2.83551V2.83417V2.83284V2.83151V2.83017V2.82883V2.82749V2.82616V2.82482V2.82349V2.82215V2.82082V2.81948V2.81815V2.81682V2.81548V2.81415V2.81281V2.81148V2.81013V2.80881V2.80746V2.80613V2.8048V2.80346V2.80213V2.80079V2.79946V2.79812V2.79679V2.79545V2.79412V2.79278V2.79145V2.79012V2.78877V2.78745V2.7861V2.78477V2.78343V2.7821V2.78076V2.77943V2.7781V2.77676V2.77543V2.77409V2.77276V2.77142V2.77009V2.76875V2.76741V2.76607V2.76474V2.76341V2.76207V2.76074V2.7594V2.75807V2.75673V2.7554V2.75406V2.75273V2.75139V2.75006V2.74873V2.74739V2.74605V2.74471V2.74338V2.74204V2.74071V2.73937V2.73804V2.73671V2.73537V2.73404V2.7327V2.73137V2.73003V2.7287V2.72736V2.72603V2.72468V2.72335V2.72202V2.72068V2.71935V2.71801V2.71668V2.71534V2.71401V2.71267V2.71134V2.71001V2.70867V2.70734V2.706V2.70466V2.70332V2.70199V2.70065V2.69932V2.69798V2.69665V2.69532V2.69398V2.69265V2.69131V2.68998V2.68864V2.68731V2.68597L0.433861 2.68497H0.30528V2.68631V2.68764V2.68898V2.69031V2.69165V2.69298V2.69431V2.69565V2.69698V2.69832V2.69965V2.70099V2.70232V2.70366V2.70499V2.70634V2.70767V2.709V2.71034V2.71167V2.71301V2.71434V2.71568V2.71701V2.71835V2.71968V2.72101V2.72235V2.72368V2.72502V2.72635V2.7277V2.72903V2.73037V2.7317V2.73304V2.73437V2.7357V2.73704V2.73837V2.73971V2.74104V2.74238V2.74371V2.74505V2.74639V2.74773V2.74906V2.75039V2.75173V2.75306V2.7544V2.75573V2.75707V2.7584V2.75974V2.76107V2.7624V2.76374V2.76507V2.76641V2.76775V2.76909V2.77042V2.77176V2.77309V2.77443V2.77576V2.77709V2.77843V2.77976V2.7811V2.78243V2.78377V2.7851V2.78644V2.78777V2.78911V2.79045V2.79178V2.79312V2.79445V2.79579V2.79712V2.79846V2.79979V2.80113V2.80246V2.80379V2.80513V2.80646V2.8078V2.80913V2.81048V2.81181V2.81315V2.81448V2.81581V2.81715V2.81848V2.81982V2.82115V2.82249V2.82382V2.82516V2.82649V2.82783V2.82916V2.83049V2.83184V2.83317V2.83451V2.83584V2.83718V2.83851V2.83985V2.84118V2.84252V2.84385V2.84518V2.84652V2.84785V2.84919V2.85052V2.85187V2.8532V2.85454L0.304985 2.85587H0.433861ZM0.433861 2.68497L0.56254 2.68597C0.56254 1.9514 0.824166 1.37561 1.34722 0.946685L1.26755 0.84171L1.18798 0.736725C0.599449 1.21926 0.30528 1.87331 0.30528 2.68497H0.433861ZM1.26755 0.84171L1.34722 0.946685C1.88198 0.506579 2.60276 0.279611 3.52217 0.279611V0.145901V0.0122012C2.56268 0.0122012 1.78048 0.249102 1.18798 0.736725L1.26755 0.84171ZM3.52217 0.145901V0.279611C4.40983 0.279611 5.1203 0.498174 5.66408 0.924077L5.74147 0.817297L5.81885 0.710506C5.21971 0.241222 4.45051 0.0122012 3.52217 0.0122012V0.145901ZM5.74147 0.817297L5.66408 0.924077C6.16919 1.31974 6.45589 1.91998 6.51017 2.74658C6.51316 2.79203 6.51544 2.83816 6.51702 2.88497L6.6456 2.88028L6.77418 2.8756C6.74183 1.9185 6.42882 1.18827 5.81885 0.710506L5.74147 0.817297ZM12.0991 4.22306L11.9976 4.30506L11.9993 4.30733L12.0991 4.22306ZM10.8779 2.52627V2.65997C11.7724 2.65997 12.4723 2.95025 12.9921 3.52148L13.0855 3.4296L13.179 3.33771C12.6029 2.70452 11.831 2.39258 10.8779 2.39258V2.52627ZM13.0855 3.4296L12.9921 3.52148C13.5126 4.09352 13.7789 4.86758 13.7789 5.85875H13.9075H14.0361C14.0361 4.8156 13.7544 3.97016 13.179 3.33771L13.0855 3.4296ZM13.9075 5.85875H13.7789C13.7789 6.85848 13.5124 7.63646 12.9921 8.20837L13.0855 8.30016L13.179 8.39206C13.7546 7.7595 14.0361 6.90984 14.0361 5.85875H13.9075ZM13.0855 8.30016L12.9921 8.20837C12.4805 8.77873 11.7807 9.06979 10.8779 9.06979V9.20356V9.33723C11.8384 9.33723 12.6102 9.02626 13.179 8.39206L13.0855 8.30016ZM10.8779 9.20356V9.06979C9.95902 9.06979 9.24349 8.77883 8.71627 8.20764L8.62341 8.30016L8.53065 8.39278C9.11501 9.02595 9.90257 9.33723 10.8779 9.33723V9.20356ZM8.62341 8.30016L8.71627 8.20764C8.18846 7.63574 7.9184 6.85796 7.9184 5.85875H7.78972H7.66114C7.66114 6.91036 7.94688 7.76023 8.53065 8.39278L8.62341 8.30016ZM7.78972 5.85875H7.9184C7.9184 4.8681 8.18826 4.09424 8.71627 3.52217L8.62341 3.4296L8.53124 3.33636C7.94767 3.96867 7.66114 4.81508 7.66114 5.85875H7.78972ZM8.62341 3.4296L8.71627 3.52217C9.25183 2.95005 9.96716 2.65997 10.8779 2.65997V2.52627V2.39258C9.91001 2.39258 9.12305 2.70405 8.53124 3.33636L8.62341 3.4296ZM12.0991 4.22306L12.2008 4.14117L12.1998 4.13975C11.8754 3.70576 11.4215 3.49121 10.8545 3.49121V3.62496V3.75863C11.3515 3.75863 11.727 3.94242 11.9976 4.30506L12.0991 4.22306ZM10.8545 3.62496V3.49121C10.2868 3.49121 9.82945 3.70613 9.49748 4.13983L9.59808 4.22306L9.69868 4.3063C9.97727 3.94242 10.3575 3.75863 10.8545 3.75863V3.62496ZM9.59808 4.22306L9.49748 4.13983C9.16849 4.5694 9.01153 5.1476 9.01153 5.85875H9.14011H9.26869C9.26869 5.18659 9.41702 4.67419 9.69868 4.3063L9.59808 4.22306ZM9.14011 5.85875H9.01153C9.01153 6.58547 9.16809 7.17213 9.49748 7.60222L9.59808 7.51898L9.69868 7.43565C9.41741 7.06826 9.26869 6.54813 9.26869 5.85875H9.14011ZM9.59808 7.51898L9.49748 7.60222C9.82985 8.03633 10.2915 8.25076 10.8662 8.25076V8.11709V7.98342C10.3607 7.98342 9.97688 7.79911 9.69868 7.43565L9.59808 7.51898ZM10.8662 8.11709V8.25076C11.4268 8.25076 11.8768 8.0352 12.2008 7.60088L12.0991 7.51898L11.9978 7.43668C11.7268 7.79994 11.3546 7.98342 10.8662 7.98342V8.11709ZM12.0991 7.51898L12.2008 7.60088C12.5292 7.16315 12.6858 6.5734 12.6858 5.84658H12.5571H12.4285C12.4285 6.53576 12.2799 7.06074 11.9978 7.43668L12.0991 7.51898ZM12.5571 5.84658H12.6858C12.6858 5.13613 12.5291 4.5617 12.1998 4.13975L12.199 4.13869L12.0991 4.22306L11.9993 4.30733C12.2801 4.66656 12.4285 5.17411 12.4285 5.84658H12.5571ZM22.6999 8.98377L22.7956 9.07309L22.8833 8.9715L22.7837 8.88249L22.6999 8.98377ZM21.9836 9.81383L21.9003 9.91584L21.9958 10L22.0793 9.90315L21.9836 9.81383ZM20.7389 8.7153L20.8222 8.61329L20.7501 8.54976L20.6703 8.60215L20.7389 8.7153ZM22.4767 6.5668L22.3563 6.51987L22.3558 6.52142L22.4767 6.5668ZM21.6078 8.00725L21.5188 7.91071L21.4166 8.01261L21.524 8.10863L21.6078 8.00725ZM20.5745 7.06734L20.4901 7.16821L20.5919 7.2601L20.6754 7.15016L20.5745 7.06734ZM19.7408 7.76311L19.7933 7.88513L19.9795 7.79849L19.8241 7.66121L19.7408 7.76311ZM18.8836 7.00628L18.7872 6.91778L18.7005 7.02L18.8003 7.10818L18.8836 7.00628ZM19.5882 6.17621L19.6725 6.07524L19.5761 5.98819L19.4917 6.08772L19.5882 6.17621ZM22.6999 8.98377L22.6041 8.89455L22.5165 8.99613L21.9714 9.62774L21.8878 9.72462L21.9836 9.81383L22.0793 9.90315L22.7956 9.07309L22.6999 8.98377ZM21.9836 9.81383L22.0668 9.71193L21.9714 9.62774L20.8222 8.61329L20.7389 8.7153L20.6557 8.8172L21.9003 9.91584L21.9836 9.81383ZM20.7389 8.7153L20.6703 8.60215C20.188 8.91838 19.5526 9.08206 18.7545 9.08206V9.21573V9.3494C19.5846 9.3494 20.2721 9.17942 20.8075 8.82834L20.7389 8.7153ZM18.7545 9.21573V9.08206C17.6048 9.08206 16.6813 8.68002 15.9721 7.87997L15.8776 7.97063L15.7825 8.06077C16.545 8.92096 17.54 9.3494 18.7545 9.3494V9.21573ZM15.8776 7.97063L15.9721 7.87997C15.262 7.07095 14.9024 6.01119 14.9024 4.68688H14.7737H14.6452C14.6452 6.06451 15.0211 7.19337 15.7825 8.06077L15.8776 7.97063ZM14.7737 4.68688H14.9024C14.9024 3.37144 15.2658 2.31097 15.9842 1.49341L15.8893 1.40323L15.7948 1.31254C15.0258 2.18769 14.6452 3.31686 14.6452 4.68688H14.7737ZM15.8893 1.40323L15.9842 1.49341C16.7094 0.676656 17.6445 0.267399 18.8014 0.267399V0.1337V0C17.5786 0 16.5726 0.436579 15.7948 1.31254L15.8893 1.40323ZM18.8014 0.1337V0.267399C19.9421 0.267399 20.8657 0.676739 21.5833 1.49341L21.6783 1.40323L21.7732 1.31306C21.0034 0.437012 20.0091 0 18.8014 0V0.1337ZM21.6783 1.40323L21.5833 1.49341C22.3015 2.30294 22.6651 3.35155 22.6651 4.65027H22.7938H22.9224C22.9224 3.29607 22.5423 2.17995 21.7732 1.31306L21.6783 1.40323ZM22.7938 4.65027H22.6651C22.6651 5.32768 22.5618 5.95044 22.3563 6.51987L22.4767 6.5668L22.5972 6.61373C22.8145 6.01129 22.9224 5.35636 22.9224 4.65027H22.7938ZM22.4767 6.5668L22.3558 6.52142C22.158 7.09085 21.8783 7.55261 21.5188 7.91071L21.6078 8.00725L21.6968 8.10378C22.0889 7.7132 22.3884 7.21462 22.5977 6.61218L22.4767 6.5668ZM21.6078 8.00725L21.524 8.10863L22.5165 8.99613L22.616 9.08516L22.6999 8.98377L22.7837 8.88249L21.6917 7.90586L21.6078 8.00725ZM20.5745 7.06734L20.6754 7.15016C21.1966 6.46449 21.4547 5.63267 21.4547 4.66254H21.326H21.1974C21.1974 5.58038 20.9544 6.35176 20.4736 6.98441L20.5745 7.06734ZM21.326 4.66254H21.4547C21.4547 3.65631 21.2184 2.83801 20.7327 2.22181L20.6333 2.30655L20.5332 2.3906C20.9712 2.94626 21.1974 3.69932 21.1974 4.66254H21.326ZM20.6333 2.30655L20.7327 2.22181C20.2448 1.59439 19.5893 1.28173 18.7779 1.28173V1.41543V1.54914C19.5165 1.54914 20.0972 1.82986 20.5332 2.3906L20.6333 2.30655ZM18.7779 1.41543V1.28173C17.9739 1.28173 17.3218 1.59546 16.8344 2.22251L16.9344 2.30655L17.0344 2.3906C17.4706 1.82949 18.0477 1.54914 18.7779 1.54914V1.41543ZM16.9344 2.30655L16.8344 2.22251C16.357 2.83868 16.1247 3.65683 16.1247 4.66254H16.2533H16.3819C16.3819 3.6988 16.6038 2.94629 17.0344 2.3906L16.9344 2.30655ZM16.2533 4.66254H16.1247C16.1247 5.69249 16.3605 6.5305 16.8455 7.16284L16.9461 7.07951L17.0467 6.99617C16.6079 6.42406 16.3819 5.65082 16.3819 4.66254H16.2533ZM16.9461 7.07951L16.8455 7.16284C17.3332 7.79024 17.99 8.1043 18.8014 8.1043V7.97063V7.83696C18.0628 7.83696 17.4826 7.55694 17.0467 6.99617L16.9461 7.07951ZM18.8014 7.97063V8.1043C19.1481 8.1043 19.4792 8.03128 19.7933 7.88513L19.7408 7.76311L19.6883 7.6411C19.4075 7.77167 19.1122 7.83696 18.8014 7.83696V7.97063ZM19.7408 7.76311L19.8241 7.66121L19.0668 6.99259L18.9669 6.90438L18.8836 7.00628L18.8003 7.10818L19.6575 7.86502L19.7408 7.76311ZM18.8836 7.00628L18.9801 7.09477L19.0668 6.99259L19.6001 6.36411L19.6846 6.2646L19.5882 6.17621L19.4917 6.08772L18.7872 6.91778L18.8836 7.00628ZM19.5882 6.17621L19.5038 6.27708L19.6001 6.36411L20.4901 7.16821L20.5745 7.06734L20.6589 6.96636L19.6725 6.07524L19.5882 6.17621ZM29.2728 2.70938H29.4014V2.57568H29.2728V2.70938ZM29.2728 9.00821V9.14188H29.4014V9.00821H29.2728ZM28.0164 9.00821H27.8878V9.14188H28.0164V9.00821ZM28.0164 8.0683H28.145V7.65111L27.9117 7.99054L28.0164 8.0683ZM24.4819 8.59318L24.3872 8.68363L24.3891 8.6857L24.4819 8.59318ZM23.9535 2.70938V2.57568H23.825V2.70938H23.9535ZM25.2922 2.70938H25.4208V2.57568H25.2922V2.70938ZM25.3744 7.29919L25.2491 7.33024L25.2511 7.33766L25.3744 7.29919ZM25.5623 7.67761L25.467 7.76765L25.4713 7.77219L25.5623 7.67761ZM25.9145 7.90957L25.8646 8.03282L25.8668 8.03375L25.9145 7.90957ZM27.582 7.45792L27.6889 7.53208L27.6897 7.53095L27.582 7.45792ZM27.9342 2.70938V2.57568H27.8056V2.70938H27.9342ZM29.2728 2.70938H29.1443V2.84309V8.87454V9.00821H29.2728H29.4014V2.70938H29.2728ZM29.2728 9.00821V8.87454H29.1443H28.145H28.0164V9.00821V9.14188H29.2728V9.00821ZM28.0164 9.00821H28.145V8.87454V8.0683H28.0164H27.8878V9.00821H28.0164ZM28.0164 8.0683L27.9117 7.99054C27.4252 8.69869 26.7976 9.04545 26.0202 9.04545V9.17912V9.31278C26.8868 9.31278 27.5899 8.919 28.1211 8.14597L28.0164 8.0683ZM26.0202 9.17912V9.04545C25.3795 9.04545 24.9044 8.85815 24.5748 8.50066L24.4819 8.59318L24.3891 8.6857C24.7798 9.1095 25.33 9.31278 26.0202 9.31278V9.17912ZM24.4819 8.59318L24.5767 8.50273C24.2532 8.13648 24.0822 7.60366 24.0822 6.88416H23.9535H23.825C23.825 7.64574 24.0062 8.2523 24.3872 8.68363L24.4819 8.59318ZM23.9535 6.88416H24.0822V2.84309V2.70938H23.9535H23.825V6.88416H23.9535ZM23.9535 2.70938V2.84309H24.0822H25.1635H25.2922V2.70938V2.57568H23.9535V2.70938ZM25.2922 2.70938H25.1635V2.84309V6.3105H25.2922H25.4208V2.70938H25.2922ZM25.2922 6.3105H25.1635C25.1635 6.53153 25.1675 6.71336 25.1755 6.85538L25.3039 6.84755L25.4323 6.83971C25.4247 6.70501 25.4208 6.52885 25.4208 6.3105H25.2922ZM25.3039 6.84755L25.1755 6.85538C25.184 6.99534 25.2088 7.15428 25.2491 7.33024L25.3744 7.29919L25.4995 7.26825C25.4615 7.1024 25.4395 6.96028 25.4323 6.83971L25.3039 6.84755ZM25.3744 7.29919L25.2511 7.33766C25.3015 7.51228 25.3717 7.65863 25.467 7.76765L25.5623 7.67761L25.6574 7.58767C25.5962 7.51775 25.5411 7.41172 25.4976 7.26083L25.3744 7.29919ZM25.5623 7.67761L25.4713 7.77219C25.5723 7.87719 25.7052 7.9631 25.8646 8.03282L25.9145 7.90957L25.9644 7.78632C25.8263 7.72588 25.7244 7.65709 25.6532 7.58314L25.5623 7.67761ZM25.9145 7.90957L25.8668 8.03375C26.0424 8.10677 26.2472 8.14091 26.4781 8.14091V8.00725V7.87358C26.2707 7.87358 26.0998 7.84263 25.9623 7.78539L25.9145 7.90957ZM26.4781 8.00725V8.14091C27.0131 8.14091 27.4256 7.94268 27.6889 7.53208L27.582 7.45792L27.4749 7.38377C27.2685 7.70556 26.9453 7.87358 26.4781 7.87358V8.00725ZM27.582 7.45792L27.6897 7.53095C27.9414 7.12963 28.0628 6.63044 28.0628 6.04192H27.9342H27.8056C27.8056 6.59269 27.6922 7.03753 27.4742 7.3849L27.582 7.45792ZM27.9342 6.04192H28.0628V2.84309V2.70938H27.9342H27.8056V6.04192H27.9342ZM27.9342 2.70938V2.84309H28.0628H29.1443H29.2728V2.70938V2.57568H27.9342V2.70938ZM32.0701 0.280178H32.1987V0.146479H32.0701V0.280178ZM32.0701 1.64737V1.78107H32.1987V1.64737H32.0701ZM30.7315 1.64737H30.6028V1.78107H30.7315V1.64737ZM30.7315 0.280178V0.146479H30.6028V0.280178H30.7315ZM32.0701 2.70938H32.1987V2.57568H32.0701V2.70938ZM32.0701 9.00821V9.14188H32.1987V9.00821H32.0701ZM30.7315 9.00821H30.6028V9.14188H30.7315V9.00821ZM30.7315 2.70938V2.57568H30.6028V2.70938H30.7315ZM32.0701 0.280178H31.9415V0.413888V1.51366V1.64737H32.0701H32.1987V0.280178H32.0701ZM32.0701 1.64737V1.51366H31.9415H30.8601H30.7315V1.64737V1.78107H32.0701V1.64737ZM30.7315 1.64737H30.8601V1.51366V0.413888V0.280178H30.7315H30.6028V1.64737H30.7315ZM30.7315 0.280178V0.413888H30.8601H31.9415H32.0701V0.280178V0.146479H30.7315V0.280178ZM32.0701 2.70938H31.9415V2.84309V8.87454V9.00821H32.0701H32.1987V2.70938H32.0701ZM32.0701 9.00821V8.87454H31.9415H30.8601H30.7315V9.00821V9.14188H32.0701V9.00821ZM30.7315 9.00821H30.8601V8.87454V2.84309V2.70938H30.7315H30.6028V9.00821H30.7315ZM30.7315 2.70938V2.84309H30.8601H31.9415H32.0701V2.70938V2.57568H30.7315V2.70938ZM34.8085 2.70938H34.9371V2.57568H34.8085V2.70938ZM34.8085 3.63713H34.68V4.06691L34.9144 3.71293L34.8085 3.63713ZM38.3547 3.12442L38.2589 3.21364L38.2599 3.21477L38.3547 3.12442ZM38.8714 9.00821V9.14188H39V9.00821H38.8714ZM37.5327 9.00821H37.4042V9.14188H37.5327V9.00821ZM37.3449 4.21089L37.2266 4.2636L37.2287 4.26834L37.3449 4.21089ZM36.9926 3.83247L36.9329 3.95098L36.9374 3.95315L36.9926 3.83247ZM34.879 9.00821V9.14188H35.0076V9.00821H34.879ZM33.5404 9.00821H33.4117V9.14188H33.5404V9.00821ZM33.5404 2.70938V2.57568H33.4117V2.70938H33.5404ZM34.8085 2.70938H34.68V2.84309V3.63713H34.8085H34.9371V2.70938H34.8085ZM34.8085 3.63713L34.9144 3.71293C35.3758 3.01665 36.0056 2.67219 36.8165 2.67219V2.53849V2.40478C35.9207 2.40478 35.2118 2.79274 34.7026 3.56127L34.8085 3.63713ZM36.8165 2.53849V2.67219C37.4827 2.67219 37.9547 2.86056 38.2589 3.21364L38.3547 3.12442L38.4506 3.03521C38.0816 2.60703 37.528 2.40478 36.8165 2.40478V2.53849ZM38.3547 3.12442L38.2599 3.21477C38.5755 3.57267 38.7427 4.09713 38.7427 4.809H38.8714H39C39 4.05598 38.8228 3.45744 38.4496 3.03407L38.3547 3.12442ZM38.8714 4.809H38.7427V8.87454V9.00821H38.8714H39V4.809H38.8714ZM38.8714 9.00821V8.87454H38.7427H37.6614H37.5327V9.00821V9.14188H38.8714V9.00821ZM37.5327 9.00821H37.6614V8.87454V5.34615H37.5327H37.4042V9.00821H37.5327ZM37.5327 5.34615H37.6614C37.6614 5.09026 37.6495 4.87552 37.6247 4.70369L37.4975 4.72349L37.3702 4.74247C37.3924 4.89615 37.4042 5.09737 37.4042 5.34615H37.5327ZM37.4975 4.72349L37.6247 4.70369C37.5993 4.51888 37.5447 4.33653 37.4619 4.15521L37.461 4.15334L37.3449 4.21089L37.2287 4.26834C37.302 4.42821 37.3487 4.58611 37.3702 4.74247L37.4975 4.72349ZM37.3449 4.21089L37.4631 4.15819L37.4619 4.15521C37.379 3.95615 37.2401 3.80747 37.0501 3.71279L37.0479 3.7117L36.9926 3.83247L36.9374 3.95315C37.0741 4.02081 37.1686 4.12322 37.2266 4.2636L37.3449 4.21089ZM36.9926 3.83247L37.0522 3.71397L37.0501 3.71279C36.8619 3.61099 36.6289 3.56441 36.3586 3.56441V3.69819V3.83185C36.6038 3.83185 36.7927 3.87466 36.9329 3.95098L36.9926 3.83247ZM36.3586 3.69819V3.56441C35.8371 3.56441 35.4256 3.7348 35.1485 4.09362C34.8759 4.44677 34.7504 4.96144 34.7504 5.61462H34.879H35.0076C35.0076 4.99021 35.1287 4.54661 35.3492 4.26091C35.5653 3.98099 35.8935 3.83185 36.3586 3.83185V3.69819ZM34.879 5.61462H34.7504V8.87454V9.00821H34.879H35.0076V5.61462H34.879ZM34.879 9.00821V8.87454H34.7504H33.669H33.5404V9.00821V9.14188H34.879V9.00821ZM33.5404 9.00821H33.669V8.87454V2.84309V2.70938H33.5404H33.4117V9.00821H33.5404ZM33.5404 2.70938V2.84309H33.669H34.68H34.8085V2.70938V2.57568H33.5404V2.70938Z" fill="white"/>
<path fill-rule="evenodd" clip-rule="evenodd" d="M20.7501 8.54976L20.8222 8.61329L21.9714 9.62774L22.5165 8.99613L21.524 8.10863L21.4166 8.01261L21.5188 7.91071C21.8783 7.55261 22.158 7.09085 22.3558 6.52142L22.3563 6.51987C22.5618 5.95044 22.6651 5.32768 22.6651 4.65027C22.6651 3.35155 22.3015 2.30294 21.5833 1.49341C20.8657 0.676739 19.9421 0.267399 18.8014 0.267399C17.6445 0.267399 16.7094 0.676656 15.9842 1.49341C15.2658 2.31097 14.9024 3.37144 14.9024 4.68688C14.9024 6.01119 15.262 7.07095 15.9721 7.87997C16.6813 8.68002 17.6048 9.08206 18.7545 9.08206C19.5526 9.08206 20.188 8.91838 20.6703 8.60215L20.7501 8.54976ZM20.5919 7.2601L20.4901 7.16821L19.6001 6.36411L19.0668 6.99259L19.8241 7.66121L19.9795 7.79849L19.7933 7.88513C19.4792 8.03128 19.1481 8.1043 18.8014 8.1043C17.99 8.1043 17.3332 7.79024 16.8455 7.16284C16.3605 6.5305 16.1247 5.69249 16.1247 4.66254C16.1247 3.65683 16.357 2.83868 16.8344 2.22251C17.3218 1.59546 17.9739 1.28173 18.7779 1.28173C19.5893 1.28173 20.2448 1.59439 20.7327 2.22181C21.2184 2.83801 21.4547 3.65631 21.4547 4.66254C21.4547 5.63267 21.1966 6.46449 20.6754 7.15016L20.5919 7.2601Z" fill="white"/>
<path d="M28.145 7.65111V8.0683V8.87454H29.1443V2.84309H28.0628V6.04192C28.0628 6.63044 27.9414 7.12963 27.6897 7.53095L27.6889 7.53208C27.4256 7.94268 27.0131 8.14091 26.4781 8.14091C26.2472 8.14091 26.0424 8.10677 25.8668 8.03375L25.8646 8.03282C25.7052 7.9631 25.5723 7.87719 25.4713 7.77219L25.467 7.76765C25.3717 7.65863 25.3015 7.51228 25.2511 7.33766L25.2491 7.33024C25.2088 7.15428 25.184 6.99534 25.1755 6.85538C25.1675 6.71336 25.1635 6.53153 25.1635 6.3105V2.84309H24.0822V6.88416C24.0822 7.60366 24.2532 8.13648 24.5767 8.50273C24.9062 8.85918 25.3805 9.04545 26.0202 9.04545C26.7976 9.04545 27.4252 8.69869 27.9117 7.99054L28.145 7.65111Z" fill="white"/>
<path fill-rule="evenodd" clip-rule="evenodd" d="M12.9921 3.52148C12.4723 2.95025 11.7724 2.65997 10.8779 2.65997C9.96716 2.65997 9.25183 2.95005 8.71627 3.52217C8.18826 4.09424 7.9184 4.8681 7.9184 5.85875C7.9184 6.85796 8.18846 7.63574 8.71627 8.20764C9.24349 8.77883 9.95902 9.06979 10.8779 9.06979C11.7807 9.06979 12.4805 8.77873 12.9921 8.20837C13.5124 7.63646 13.7789 6.85848 13.7789 5.85875C13.7789 4.86758 13.5126 4.09352 12.9921 3.52148ZM10.8545 3.49121C11.4215 3.49121 11.8754 3.70576 12.1998 4.13975C12.5291 4.5617 12.6858 5.13613 12.6858 5.84658C12.6858 6.5734 12.5292 7.16315 12.2008 7.60088C11.8768 8.0352 11.4268 8.25076 10.8662 8.25076C10.2915 8.25076 9.82985 8.03633 9.49748 7.60222C9.16809 7.17213 9.01153 6.58547 9.01153 5.85875C9.01153 5.1476 9.16849 4.5694 9.49748 4.13983C9.82945 3.70613 10.2868 3.49121 10.8545 3.49121Z" fill="white"/>
<path d="M2.07098 3.39813L2.06909 3.397C1.81312 3.23321 1.7026 2.93837 1.7026 2.5629C1.7026 2.148 1.86091 1.81475 2.17674 1.57703C2.48856 1.33397 2.91072 1.2207 3.42821 1.2207C4.00841 1.2207 4.47491 1.35138 4.80936 1.6318C5.1206 1.89267 5.30169 2.26971 5.36337 2.74658H6.51017C6.45589 1.91998 6.16919 1.31974 5.66408 0.924077C5.1203 0.498174 4.40983 0.279611 3.52217 0.279611C2.60276 0.279611 1.88198 0.506579 1.34722 0.946685C0.824166 1.37561 0.56254 1.9514 0.56254 2.68597V2.68731V2.68864V2.68998V2.69131V2.69265V2.69398V2.69532V2.69665V2.69798V2.69932V2.70065V2.70199V2.70332V2.70466V2.706V2.70734V2.70867V2.71001V2.71134V2.71267V2.71401V2.71534V2.71668V2.71801V2.71935V2.72068V2.72202V2.72335V2.72468V2.72603V2.72736V2.7287V2.73003V2.73137V2.7327V2.73404V2.73537V2.73671V2.73804V2.73937V2.74071V2.74204V2.74338V2.74471V2.74605V2.74739V2.74873V2.75006V2.75139V2.75273V2.75406V2.7554V2.75673V2.75807V2.7594V2.76074V2.76207V2.76341V2.76474V2.76607V2.76741V2.76875V2.77009V2.77142V2.77276V2.77409V2.77543V2.77676V2.7781V2.77943V2.78076V2.7821V2.78343V2.78477V2.7861V2.78745V2.78877V2.79012V2.79145V2.79278V2.79412V2.79545V2.79679V2.79812V2.79946V2.80079V2.80213V2.80346V2.8048V2.80613V2.80746V2.80881V2.81013V2.81148V2.81281V2.81415V2.81548V2.81682V2.81815V2.81948V2.82082V2.82215V2.82349V2.82482V2.82616V2.82749V2.82883V2.83017V2.83151V2.83284V2.83417V2.83551V2.83684V2.83818V2.83951V2.84085V2.84218V2.84352V2.84485V2.84618L0.562241 2.84735L0.56254 2.84919V2.85052V2.85187C0.607698 3.56535 0.944162 4.08924 1.58563 4.43419C1.89904 4.60488 2.56883 4.82932 3.61206 5.10655C3.64485 5.11508 3.68811 5.12736 3.74212 5.14337C4.22747 5.27364 4.57323 5.37668 4.77513 5.45228C4.99139 5.53314 5.18717 5.67123 5.36276 5.86194C5.562 6.06082 5.65872 6.32048 5.65872 6.62786C5.65872 7.09962 5.47994 7.47876 5.12416 7.74929C4.78109 8.00786 4.3124 8.12874 3.73349 8.12874C3.07264 8.12874 2.52319 7.97362 2.09628 7.65162L2.09489 7.65059C1.68552 7.33346 1.47403 6.86311 1.44718 6.2611H0.259164C0.286691 7.16981 0.597885 7.8483 1.18173 8.31635C1.8034 8.81472 2.6227 9.06979 3.65134 9.06979C3.97994 9.06979 4.29633 9.03802 4.60072 8.9748L4.60369 8.97418C4.90589 8.9192 5.19679 8.82493 5.47637 8.69137C5.75496 8.55832 5.99377 8.39495 6.19418 8.20208C6.39087 8.00457 6.54913 7.76036 6.66802 7.4671C6.78569 7.17635 6.84581 6.84847 6.84581 6.4814C6.84581 6.06204 6.75721 5.70507 6.58508 5.40555C6.41294 5.10604 6.15281 4.85624 5.79802 4.65821L5.79613 4.65718C5.4762 4.4715 4.85778 4.25531 3.92629 4.0112C3.82131 3.98597 3.67467 3.94468 3.48773 3.88803C2.78004 3.70197 2.30064 3.53965 2.07098 3.39813Z" fill="white"/>
<path d="M31.9415 8.87454V2.84309H30.8601V8.87454H31.9415Z" fill="white"/>
<path d="M31.9415 1.51366V0.413888H30.8601V1.51366H31.9415Z" fill="white"/>
<path d="M34.68 4.06691V3.63713V2.84309H33.669V8.87454H34.7504V5.61462C34.7504 4.96144 34.8759 4.44677 35.1485 4.09362C35.4256 3.7348 35.8371 3.56441 36.3586 3.56441C36.6289 3.56441 36.8619 3.61099 37.0501 3.71279C37.2401 3.80747 37.379 3.95615 37.4619 4.15521C37.5447 4.33653 37.5993 4.51888 37.6247 4.70369C37.6495 4.87552 37.6614 5.09026 37.6614 5.34615V8.87454H38.7427V4.809C38.7427 4.09713 38.5755 3.57267 38.2599 3.21477L38.2589 3.21364C37.9547 2.86056 37.4827 2.67219 36.8165 2.67219C36.0056 2.67219 35.3758 3.01665 34.9144 3.71293L34.68 4.06691Z" fill="white"/>
</g>
</svg>
