<svg width="36" height="36" viewBox="0 0 36 36" fill="none" xmlns="http://www.w3.org/2000/svg">
<mask id="mask0_2005_3870" style="mask-type:luminance" maskUnits="userSpaceOnUse" x="0" y="0" width="36" height="36">
<path d="M35.4003 13.3992C35.6073 14.2525 35.8128 15.4081 35.9169 16.2798C35.9918 16.9071 36.0093 17.7527 35.9959 18.3844C35.9448 20.7771 35.4213 22.691 34.9959 23.9097C34.2503 26.0448 33.2306 27.6764 32.3889 28.7988C31.5917 29.8617 30.8736 30.5735 30.5756 30.8672C30.3005 31.1382 29.9186 31.4852 29.6235 31.7344C29.3171 31.9933 28.8897 32.3156 28.5717 32.56C28.5636 32.5662 27.6845 33.2212 26.5823 33.8132C25.3523 34.4737 24.1725 34.899 23.9483 34.9775C23.6668 35.0762 23.592 35.0999 23.3922 35.1632C23.1853 35.2287 22.9345 35.3009 22.8868 35.3137C22.7846 35.3414 22.6834 35.3728 22.5803 35.3973C22.4881 35.4182 22.3666 35.4524 22.2751 35.4747C22.1778 35.4909 22.0505 35.5261 21.9549 35.5501C21.9533 35.5504 21.7442 35.5992 21.3964 35.667C21.1076 35.7231 20.8363 35.7668 20.6594 35.7934C20.4259 35.8288 20.4259 35.8288 19.9364 35.8872C19.5388 35.9348 19.0276 35.9626 18.8353 35.9731C18.5385 35.9894 18.1418 36.002 17.8447 35.9921C17.2741 35.9728 16.5125 35.9386 15.945 35.8758C14.7445 35.7431 13.7773 35.4914 13.2577 35.3562C12.7663 35.2283 12.1174 35.0274 11.6485 34.8329C11.2391 34.6631 10.6902 34.4433 10.2891 34.2547C9.91876 34.0802 9.43477 33.8264 9.07925 33.6235C7.3749 32.6509 5.91551 31.4525 4.70786 30.1321C3.77572 29.1128 2.55773 27.5464 1.5883 25.3855C1.40741 24.9824 1.17979 24.4377 1.04064 24.0183C0.901291 23.598 0.735637 23.0314 0.605274 22.6083C0.472825 22.1787 0.36006 21.5877 0.280863 21.1451C0.0288458 19.737 0.00825259 18.6379 0.00181154 18.2544C-0.00535526 17.829 0.00925039 17.2611 0.0366475 16.8364C0.0642261 16.4093 0.133082 15.8423 0.185155 15.4175C0.236955 14.9944 0.334569 14.4324 0.444882 14.0207C0.552657 13.6187 0.680843 13.0782 0.804311 12.6809C0.93032 12.2756 1.11158 11.7385 1.27596 11.3473C1.57914 10.6254 1.89266 9.87919 2.50701 8.84028C2.71412 8.48996 3.00679 8.0323 3.24039 7.69895C3.48996 7.34281 3.82943 6.87082 4.1161 6.54381C4.37565 6.24776 4.71321 5.84498 4.98655 5.56172C5.30542 5.23127 5.74405 4.80309 6.08878 4.49986C6.34597 4.27366 6.69361 3.97633 6.96785 3.77127C7.39876 3.44907 7.9869 3.03741 8.4374 2.74335C8.68053 2.58465 9.01692 2.39211 9.2733 2.25601C9.40238 2.18751 9.57348 2.09378 9.70439 2.02872C9.96086 1.90124 10.3026 1.73039 10.5644 1.61443C10.6896 1.55899 10.8557 1.48287 10.982 1.43016C11.216 1.33271 11.5278 1.20178 11.7656 1.11386C11.961 1.04154 12.2225 0.934838 12.4206 0.869963C12.7547 0.760357 13.0758 0.647303 13.1127 0.647303C13.159 0.647303 13.2204 0.629428 13.2669 0.616998C13.4669 0.563374 13.4707 0.568546 13.5716 0.542958C13.81 0.482439 14.0427 0.43308 14.0449 0.432627C14.5184 0.326921 14.8652 0.266402 15.0728 0.233013C15.6434 0.141099 16.2994 0.0511819 17.228 0.00889994C17.699 -0.00080859 18.3276 -0.00534508 18.7984 0.00989819C19.1432 0.0210584 19.6023 0.0567167 19.9448 0.097638C20.4761 0.16106 21.1813 0.27484 21.7064 0.378458C22.0935 0.454856 22.6034 0.5876 22.9825 0.697115C23.4223 0.824143 24.001 1.02049 24.4293 1.18227C24.8099 1.32608 25.3153 1.52797 25.6766 1.71487C26.0628 1.91449 26.588 2.16228 26.9611 2.38531C27.6673 2.80749 28.5668 3.43891 29.2292 3.92697C29.5749 4.18166 29.9985 4.56927 30.312 4.86252C30.6231 5.1535 31.0223 5.55827 31.3095 5.87284C32.3554 7.01844 33.0143 8.05898 33.0418 8.10271C33.4743 8.78966 33.9215 9.49992 34.4204 10.6206C35.0731 12.086 35.3687 13.2691 35.4003 13.3992Z" fill="white"/>
</mask>
<g mask="url(#mask0_2005_3870)">
<path d="M35.395 13.3984C35.5809 14.1646 36.0745 16.1997 35.9905 18.3837C35.9552 19.2959 35.8731 21.4323 34.9906 23.909C34.3374 25.7423 33.5335 27.2502 32.384 28.7982C31.892 29.4608 31.1587 30.2874 30.571 30.8667C29.8656 31.5618 29.5905 31.7731 28.5673 32.5594C28.3722 32.7094 26.5845 34.0514 23.9446 34.977C21.5236 35.8258 19.5683 35.9325 18.8323 35.9726C16.9172 36.0771 13.1035 35.9108 9.07758 33.6231C7.94829 32.9813 6.2734 31.8546 4.70681 30.1316C4.13636 29.5042 3.43548 28.6105 2.96988 27.9019C2.49685 27.1819 1.96586 26.1589 1.5877 25.3849C1.03485 24.2531 0.420497 22.1396 0.280447 21.1444C0.159082 20.2817 0.0160387 19.1248 0.00143503 18.2537C-0.0128059 17.401 0.0811657 16.2632 0.184752 15.4167C0.35147 14.0542 0.925277 12.1458 1.26316 11.3774C1.59823 10.6153 2.0591 9.60182 2.48016 8.88374C2.89914 8.16938 3.50904 7.23925 4.05491 6.61662C4.5918 6.00416 5.3228 5.19716 5.92291 4.64657C5.93271 4.63759 6.97628 3.69912 7.88407 3.10316C8.62251 2.61837 9.15595 2.26804 10.5627 1.61356C11.1182 1.35506 12.0114 0.981682 13.1106 0.671277C14.956 0.150093 16.3369 0.0634405 17.1621 0.0117213C24.3767 -0.303222 31.1147 4.9019 33.2571 13.0239C31.1147 4.9019 24.3767 -0.303222 17.2253 0.00890864C18.1318 -0.00978286 18.9147 -0.0258432 19.9417 0.0969222C21.7447 0.312328 22.7882 0.634075 22.9791 0.696411C24.3711 1.15082 24.9472 1.339 25.6728 1.71419C27.5178 2.66827 27.582 2.71554 29.225 3.92632C29.2459 3.94175 31.3709 5.54468 33.0233 8.08137C34.579 10.4696 35.2003 12.5952 35.395 13.3984Z" fill="#0000D1"/>
<path d="M30.4449 6.90346C21.0083 -2.01345 12.6186 5.98785 13.1334 13.7768C13.7417 22.983 25.774 26.4304 31.1414 20.8785C32.7294 19.2361 33.6414 16.8214 33.5812 14.4193C33.5402 14.0016 33.4855 13.445 33.4445 13.0275C33.0592 11.3966 32.5315 9.16285 30.4449 6.90346C27.2834 2.40589 22.3627 -0.211452 17.2292 0.012573C17.4767 0.00749182 17.8064 0.000686639 18.0538 -0.00439453L18.7999 0.0128454L19.9464 0.100586C20.4764 0.175624 21.1827 0.280151 21.7083 0.381412L22.9846 0.700074C23.4196 0.843163 24.0032 1.02391 24.4316 1.18523L25.6792 1.71785C26.0651 1.91801 26.5863 2.1728 26.9638 2.38829L28.1261 3.11517C28.4701 3.3685 28.9375 3.69433 29.2713 3.961L30.3153 4.86554C30.6149 5.16833 31.0256 5.5614 31.313 5.87588L32.2128 6.94292C32.4628 7.29162 32.8096 7.7473 33.0457 8.10569L33.777 9.32082C33.9715 9.71152 34.2462 10.2253 34.4245 10.6235L34.9638 11.9726C35.0962 12.4015 35.2896 12.9685 35.4044 13.4024L35.723 14.8436C35.8102 15.4775 35.9241 16.3237 35.9737 16.9618L36 18.3877C35.9737 18.817 35.9551 19.3909 35.9117 19.8189L35.7148 21.2057C35.6224 21.621 35.5144 22.1786 35.4057 22.59L34.9997 23.9129C34.8446 24.308 34.6517 24.8407 34.4811 25.2294L33.8821 26.462C33.6666 26.8314 33.3918 27.3317 33.1619 27.6923L32.3922 28.8022C32.1162 29.1429 31.7583 29.6055 31.4688 29.9347L30.5786 30.8705C30.2313 31.1867 29.7737 31.6149 29.4129 31.9158L28.5744 32.5633C28.0998 32.8873 27.458 33.3063 26.9668 33.6046L26.5847 33.8165C26.1086 34.064 24.9937 34.6433 23.581 35.1068L23.3941 35.1666C23.34 35.1832 23.2682 35.2061 23.2139 35.2221L23.0493 35.2709L22.8887 35.3171L22.7346 35.3598L22.582 35.4007L22.4297 35.4401L22.2766 35.4782L22.1181 35.5163L21.9564 35.5535L21.7819 35.5921C21.7278 35.6035 21.6559 35.6191 21.6018 35.6299L21.3979 35.6705C21.334 35.6823 21.2488 35.6988 21.1849 35.7102L20.9285 35.7546C20.8471 35.7674 20.7385 35.7852 20.6571 35.7976L20.3053 35.8468C20.1909 35.8604 20.0385 35.8798 19.9239 35.8922L19.3906 35.9419C19.2054 35.9535 18.9584 35.971 18.7731 35.9795L17.8458 35.9956C16.6301 35.9535 16.5307 35.9501 15.7344 35.8539L14.49 35.6509C14.0182 35.5394 13.3873 35.3965 12.9209 35.2639L11.6486 34.8365C11.2401 34.6644 10.6901 34.4467 10.289 34.2582L9.07889 33.6271C8.71387 33.4001 8.21919 33.1096 7.86342 32.8684L6.75621 32.0514C6.43374 31.7732 5.99368 31.4134 5.68246 31.1226L4.7068 30.1357C4.43106 29.8095 4.05108 29.3849 3.78849 29.0482L2.96935 27.906C2.74605 27.5359 2.43393 27.0508 2.2257 26.6721L1.58675 25.3889C1.42225 24.9787 1.18671 24.438 1.03899 24.0215L0.60356 22.6117L0.597753 22.5898L0.279096 21.1484C0.218849 20.7107 0.121402 20.1291 0.0791199 19.6892L0 18.2577C0.0106158 17.8259 0.00816624 17.2495 0.0362029 16.8186L0.183373 15.4207C0.26104 15.0017 0.348961 14.4396 0.443143 14.0239L0.80263 12.6841C0.943811 12.2838 1.11766 11.7448 1.27435 11.3504L1.831 10.0948C2.03289 9.71906 2.28912 9.21094 2.50561 8.84346L3.2391 7.70211C3.50095 7.35486 3.83939 6.8834 4.11495 6.54695L4.98554 5.56484C5.31435 5.24427 5.74588 4.80928 6.08795 4.50297L6.96716 3.77437C7.40232 3.45797 7.98646 3.04077 8.43695 2.74642L8.8487 2.49781C9.47576 2.14503 10.6424 1.48856 12.421 0.885173L12.6077 0.825469C12.6617 0.808774 12.734 0.786725 12.7879 0.76994L12.9525 0.720942L13.1134 0.674849L13.2674 0.632112L13.4199 0.591282L13.5723 0.551903L13.7254 0.513795L13.8841 0.475776L14.0458 0.438484L14.2202 0.400012C14.2742 0.38867 14.3461 0.372701 14.4002 0.362176L14.6042 0.321617C14.6682 0.30964 14.7533 0.293308 14.8173 0.281876L15.0736 0.237506C15.155 0.224621 15.2636 0.206927 15.3451 0.194588L15.697 0.145318C15.8113 0.131618 15.9637 0.112291 16.0782 0.0998606L16.6116 0.0502282C16.7968 0.038614 17.0437 0.0210114 17.2292 0.012573C22.3627 -0.211452 27.2834 2.40589 30.4449 6.90346Z" fill="#0000D1"/>
<path d="M29.3024 5.44268C19.7327 -1.47259 11.8423 5.77563 12.6883 13.9038C13.7447 24.0516 26.7113 27.2216 31.9352 20.7079C33.0338 19.3381 33.472 18.0914 33.8576 16.4011C34.6078 24.8215 29.9925 32.8668 22.5538 35.2884C29.9925 32.8668 34.5636 24.8215 33.8377 16.4011C33.9285 14.7348 34.2548 9.66385 29.2924 5.44268C26.1534 1.84485 21.775 -0.189643 17.2243 0.00890583C17.6954 -0.000803818 18.3263 -0.00171107 18.7975 0.00917824L19.9452 0.0969285C20.4751 0.171974 21.1821 0.276511 21.7077 0.377782L22.9843 0.696477C23.4192 0.839581 24.003 1.02034 24.4314 1.18168L25.6791 1.71435C26.065 1.91454 26.5863 2.16935 26.9638 2.38487L28.1261 3.11182C28.4701 3.36518 28.9375 3.69104 29.2713 3.95774L30.3153 4.86237C30.6149 5.16519 31.0256 5.5583 31.313 5.87282L32.2128 6.93997C32.4628 7.2887 32.8096 7.74442 33.0457 8.10286L33.777 9.31811C33.9715 9.70885 34.2462 10.2227 34.4245 10.621L34.9638 11.9701C35.0962 12.399 35.2896 12.9661 35.4044 13.4L35.723 14.8415C35.8102 15.4754 35.9241 16.3218 35.9737 16.9598L36 18.3859C35.9737 18.8154 35.9551 19.3893 35.9117 19.8174L35.7148 21.2043C35.6224 21.6197 35.5144 22.1773 35.4057 22.5887L34.9997 23.9118C34.8446 24.3069 34.6517 24.8396 34.4811 25.2284L33.8821 26.461C33.6666 26.8305 33.3918 27.3308 33.1619 27.6915L32.3922 28.8015C32.1162 29.1422 31.7583 29.605 31.4688 29.9342L30.5786 30.87C30.2313 31.1862 29.7737 31.6145 29.4129 31.9155L28.5744 32.5631C28.0998 32.887 27.458 33.3062 26.9668 33.6045L26.5847 33.8163C26.1086 34.0638 24.9937 34.6432 23.581 35.1067L23.3941 35.1665C23.34 35.1832 23.2682 35.2061 23.2139 35.222L23.0493 35.271L22.8887 35.3171L22.7346 35.3598L22.582 35.4006L22.4297 35.4401L22.2766 35.4782L22.1181 35.5164L21.9564 35.5535L21.7819 35.5921C21.7278 35.6034 21.6559 35.619 21.6018 35.6299L21.3979 35.6705C21.334 35.6824 21.2488 35.6988 21.1849 35.7102L20.9285 35.7546C20.8471 35.7675 20.7385 35.7852 20.6571 35.7975L20.3053 35.8468C20.1909 35.8604 20.0385 35.8797 19.9239 35.8921L19.3906 35.9419C19.2054 35.9535 18.9584 35.971 18.7731 35.9795L17.8458 35.9956C16.6301 35.9535 16.5307 35.9501 15.7344 35.8539L14.49 35.6509C14.0182 35.5393 13.3873 35.3965 12.9209 35.2639L11.6486 34.8363C11.2401 34.6643 10.6901 34.4467 10.289 34.2581L9.07889 33.6268C8.71387 33.3999 8.21919 33.1093 7.86342 32.868L6.75621 32.0511C6.43374 31.7728 5.99368 31.4129 5.68246 31.1222L4.7068 30.1351C4.43106 29.809 4.05108 29.3842 3.78849 29.0476L2.96935 27.9051C2.74605 27.5351 2.43393 27.0499 2.2257 26.6712L1.58675 25.3878C1.42225 24.9776 1.18671 24.4368 1.03899 24.0204L0.60356 22.6103L0.597753 22.5885L0.279096 21.147C0.218849 20.7091 0.121402 20.1276 0.0791199 19.6876L0 18.256C0.0106158 17.8242 0.00816624 17.2476 0.0362029 16.8167L0.183373 15.4187C0.26104 14.9995 0.348961 14.4375 0.443143 14.0217L0.80263 12.6817C0.943811 12.2815 1.11766 11.7423 1.27435 11.348L1.831 10.0921C2.03289 9.71639 2.28912 9.20822 2.50561 8.84071L3.2391 7.69923C3.50095 7.35195 3.83939 6.88044 4.11495 6.54396L4.98554 5.56174C5.31435 5.24115 5.74588 4.80611 6.08795 4.49976L6.96716 3.77108C7.40232 3.45466 7.98646 3.03741 8.43695 2.74304L8.8487 2.4944C9.47576 2.14158 10.6424 1.48505 12.421 0.881595L12.6077 0.821886C12.6617 0.805189 12.734 0.783138 12.7879 0.76635L12.9525 0.717348L13.1134 0.67125L13.2674 0.62851L13.4199 0.587674L13.5723 0.548291L13.7254 0.510179L13.8841 0.472156L14.0458 0.43486L14.2202 0.396384C14.2742 0.385042 14.3461 0.369071 14.4002 0.358544L14.6042 0.317982C14.6682 0.306004 14.7533 0.289669 14.8173 0.278236L15.0736 0.233862C15.155 0.220976 15.2636 0.203281 15.3451 0.190939L15.697 0.141666C15.8113 0.127962 15.9637 0.108634 16.0782 0.0962022L16.6116 0.0465649C16.7968 0.0349496 17.0437 0.0173451 17.2292 0.00890583C21.78 -0.189643 26.1634 1.84475 29.3024 5.44268Z" fill="#0000CC"/>
<path d="M28.2972 4.38773C17.3747 -1.90974 10.2039 7.18709 12.5604 15.6614C15.5258 26.3251 29.144 27.5923 33.1685 19.7834C33.1738 19.7735 33.7598 18.5161 33.9352 17.9093C34.0077 17.5263 34.1044 17.0156 34.177 16.6325C34.5779 13.8614 33.7908 8.16403 28.2972 4.38773C25.2614 1.45408 21.3126 -0.16554 17.2292 0.0125729C17.4767 0.00749178 17.8064 0.000686635 18.0538 -0.00439453L18.7999 0.012845L19.9464 0.100586C20.4764 0.175624 21.1827 0.280151 21.7083 0.381411L22.9846 0.700073C23.4196 0.843162 24.0032 1.02391 24.4316 1.18523L25.6792 1.71785C26.0651 1.91801 26.5863 2.1728 26.9638 2.38829L28.1261 3.11517C28.4701 3.3685 28.9375 3.69433 29.2713 3.961L30.3153 4.86554C30.6149 5.16832 31.0256 5.56138 31.313 5.87587L32.2128 6.94292C32.4628 7.29162 32.8096 7.74728 33.0457 8.10569L33.777 9.32082C33.9715 9.71152 34.2462 10.2253 34.4245 10.6236L34.9638 11.9726C35.0962 12.4015 35.2896 12.9684 35.4044 13.4024L35.723 14.8436C35.8102 15.4775 35.9241 16.3237 35.9737 16.9617L36 18.3877C35.9737 18.8171 35.9551 19.3909 35.9117 19.8189L35.7148 21.2057C35.6224 21.6211 35.5144 22.1786 35.4057 22.59L34.9997 23.9129C34.8446 24.308 34.6517 24.8407 34.4811 25.2294L33.8821 26.462C33.6666 26.8314 33.3918 27.3317 33.1619 27.6923L32.3922 28.8022C32.1162 29.1428 31.7583 29.6055 31.4688 29.9347L30.5786 30.8705C30.2313 31.1867 29.7737 31.6148 29.4129 31.9158L28.5744 32.5633C28.0998 32.8873 27.458 33.3063 26.9668 33.6046L26.5847 33.8165C26.1086 34.064 24.9937 34.6433 23.581 35.1068L23.3941 35.1666C23.34 35.1832 23.2682 35.2061 23.2139 35.2221L23.0493 35.2709L22.8887 35.3171L22.7346 35.3598L22.582 35.4006L22.4297 35.4401L22.2766 35.4782L22.1181 35.5163L21.9564 35.5535L21.7819 35.5921C21.7278 35.6035 21.6559 35.6191 21.6018 35.6299L21.3979 35.6704C21.334 35.6823 21.2488 35.6987 21.1849 35.7102L20.9285 35.7546C20.8471 35.7674 20.7385 35.7852 20.6571 35.7975L20.3053 35.8467C20.1909 35.8604 20.0385 35.8797 19.9239 35.8922L19.3906 35.9418C19.2054 35.9535 18.9584 35.971 18.7731 35.9794L17.8458 35.9956C16.6301 35.9535 16.5307 35.95 15.7344 35.8539L14.49 35.6509C14.0182 35.5394 13.3873 35.3964 12.9209 35.2639L11.6486 34.8365C11.2401 34.6644 10.6901 34.4467 10.289 34.2582L9.07889 33.627C8.71387 33.4001 8.21919 33.1095 7.86343 32.8683L6.75621 32.0514C6.43374 31.7731 5.99368 31.4134 5.68246 31.1226L4.7068 30.1356C4.43106 29.8095 4.05108 29.3849 3.78849 29.0482L2.96935 27.9059C2.74605 27.5359 2.43393 27.0508 2.2257 26.6721L1.58675 25.3889C1.42225 24.9787 1.18671 24.438 1.03899 24.0215L0.60356 22.6116L0.597753 22.5898L0.279096 21.1484C0.218849 20.7107 0.121401 20.1291 0.0791196 19.6892L0 18.2577C0.0106158 17.8259 0.00816584 17.2496 0.0362026 16.8186L0.183373 15.4208C0.26104 15.0016 0.348961 14.4396 0.443143 14.0239L0.80263 12.6841C0.94381 12.2838 1.11766 11.7448 1.27435 11.3505L1.831 10.0948C2.03289 9.71905 2.28912 9.21094 2.50561 8.84346L3.2391 7.7021C3.50095 7.35486 3.83939 6.8834 4.11495 6.54695L4.98554 5.56484C5.31435 5.24427 5.74588 4.80928 6.08795 4.50297L6.96716 3.77436C7.40232 3.45796 7.98646 3.04077 8.43695 2.74642L8.8487 2.49781C9.47567 2.14512 10.6423 1.48865 12.4209 0.885263L12.6076 0.825559C12.6617 0.808865 12.7339 0.786815 12.7878 0.770029L12.9524 0.721033L13.1133 0.674939L13.2673 0.632203L13.4198 0.591373L13.5722 0.551993L13.7253 0.513885L13.884 0.475866L14.0457 0.438574L14.2201 0.400102C14.2741 0.388761 14.346 0.372792 14.4001 0.362266L14.6041 0.321707C14.6681 0.30973 14.7532 0.293398 14.8172 0.281965L15.0735 0.237596C15.1549 0.224712 15.2636 0.207018 15.345 0.194678L15.6969 0.145409C15.8112 0.131708 15.9636 0.112382 16.0781 0.0999513L16.6115 0.0503188C16.7967 0.0387047 17.0436 0.0210113 17.2292 0.0125729C21.3126 -0.16554 25.2614 1.45408 28.2972 4.38773Z" fill="#0000C7"/>
<path d="M27.356 3.54104C15.4939 -1.99928 9.23142 8.29515 12.4681 17.1927C15.6634 25.9766 29.0948 29.0115 33.6821 19.7464C33.7587 19.5918 33.8424 19.377 33.911 19.2187C34.0172 18.8734 34.1587 18.4131 34.2649 18.0678C35.8499 8.80867 28.7879 4.34241 27.356 3.54104C24.4671 1.1434 20.9026 -0.151352 17.2292 0.00890279C17.7003 -0.000806921 18.3289 -0.00171452 18.7999 0.00917479L19.9464 0.0969255C20.4764 0.171971 21.1827 0.276508 21.7083 0.377779L22.9846 0.696474C23.4196 0.839578 24.0032 1.02034 24.4316 1.18169L25.6792 1.71436C26.0651 1.91453 26.5863 2.16935 26.9638 2.38486L28.1261 3.11183C28.4701 3.36519 28.9375 3.69105 29.2713 3.95775L30.3153 4.86238C30.6149 5.16519 31.0256 5.55829 31.313 5.87281L32.2128 6.93998C32.4628 7.28871 32.8096 7.74442 33.0457 8.10287L33.777 9.31812C33.9715 9.70886 34.2462 10.2227 34.4245 10.621L34.9638 11.9702C35.0962 12.399 35.2896 12.9661 35.4044 13.4001L35.723 14.8415C35.8102 15.4754 35.9241 16.3218 35.9737 16.9598L36 18.3859C35.9737 18.8154 35.9551 19.3893 35.9117 19.8174L35.7148 21.2043C35.6224 21.6197 35.5144 22.1773 35.4057 22.5887L34.9997 23.9118C34.8446 24.3069 34.6517 24.8396 34.4811 25.2284L33.8821 26.4611C33.6666 26.8305 33.3918 27.3308 33.1619 27.6915L32.3922 28.8015C32.1162 29.1422 31.7583 29.605 31.4688 29.9342L30.5786 30.87C30.2313 31.1863 29.7737 31.6145 29.4129 31.9155L28.5744 32.5631C28.0998 32.887 27.458 33.3062 26.9668 33.6045L26.5847 33.8163C26.1086 34.0638 24.9937 34.6432 23.581 35.1069L23.3941 35.1665C23.34 35.1832 23.2682 35.2061 23.2139 35.2221L23.0493 35.271L22.8887 35.3171L22.7346 35.3598L22.582 35.4006L22.4297 35.4401L22.2766 35.4782L22.1181 35.5164L21.9564 35.5535L21.7819 35.5921C21.7278 35.6034 21.6559 35.619 21.6018 35.6299L21.3979 35.6705C21.334 35.6824 21.2488 35.6988 21.1849 35.7103L20.9285 35.7546C20.8471 35.7675 20.7385 35.7853 20.6571 35.7975L20.3053 35.8468C20.1909 35.8604 20.0385 35.8798 19.9239 35.8922L19.3906 35.9419C19.2054 35.9536 18.9584 35.971 18.7731 35.9795L17.8458 35.9956C16.6301 35.9536 16.5307 35.9501 15.7344 35.854L14.49 35.651C14.0182 35.5394 13.3873 35.3965 12.9209 35.2639L11.6486 34.8364C11.2401 34.6644 10.6901 34.4467 10.289 34.2581L9.07889 33.6268C8.71387 33.3999 8.21919 33.1093 7.86342 32.868L6.75621 32.0511C6.43374 31.7728 5.99368 31.413 5.68246 31.1222L4.7068 30.1351C4.43106 29.809 4.05108 29.3842 3.78849 29.0476L2.96935 27.9051C2.74605 27.5351 2.43393 27.05 2.2257 26.6712L1.58675 25.3878C1.42225 24.9776 1.18671 24.4368 1.03899 24.0204L0.60356 22.6103L0.597753 22.5885L0.279096 21.147C0.218849 20.7091 0.121402 20.1276 0.0791199 19.6876L0 18.2559C0.0106158 17.8242 0.00816624 17.2476 0.0362029 16.8167L0.183373 15.4187C0.26104 14.9995 0.348961 14.4375 0.443143 14.0217L0.80263 12.6817C0.943811 12.2815 1.11766 11.7424 1.27435 11.348L1.831 10.0921C2.03289 9.7164 2.28912 9.20823 2.50561 8.84071L3.2391 7.69923C3.50095 7.35196 3.83939 6.88045 4.11495 6.54397L4.98554 5.56175C5.31435 5.24114 5.74588 4.80611 6.08795 4.49976L6.96716 3.77108C7.40232 3.45466 7.98646 3.03741 8.43695 2.74304L8.8487 2.49439C9.47576 2.14167 10.6424 1.48514 12.421 0.881684L12.6077 0.821974C12.6617 0.805277 12.734 0.783226 12.7879 0.766438L12.9525 0.717436L13.1134 0.671338L13.2674 0.628598L13.4199 0.587762L13.5723 0.548379L13.7254 0.510267L13.8841 0.472244L14.0458 0.434948L14.2202 0.396473C14.2742 0.38513 14.3461 0.369159 14.4002 0.358632L14.6042 0.31807C14.6682 0.306092 14.7533 0.289757 14.8173 0.278324L15.0736 0.233949C15.155 0.221063 15.2636 0.203369 15.3451 0.191027L15.697 0.141753C15.8113 0.12805 15.9637 0.108722 16.0782 0.0962898L16.6116 0.0466526C16.7968 0.0350372 17.0437 0.017342 17.2292 0.00890279C20.9026 -0.151352 24.4671 1.1434 27.356 3.54104Z" fill="#0000C2"/>
<path d="M26.4674 2.85694C14.7902 -2.22423 8.19388 9.01005 11.9829 17.6221C15.5278 25.679 28.1302 30.2592 33.8131 20.4252C33.9031 20.2166 34.0229 19.9386 34.1128 19.73C36.5081 11.9434 31.9988 5.64486 26.4674 2.85694C23.7513 0.90205 20.5344 -0.131696 17.2292 0.012573C17.4767 0.00749182 17.8064 0.000686639 18.0538 -0.00439453L18.7999 0.0128454L19.9464 0.100586C20.4764 0.175624 21.1827 0.280151 21.7083 0.381412L22.9846 0.700074C23.4196 0.843163 24.0032 1.02391 24.4316 1.18523L25.6792 1.71785C26.0651 1.91801 26.5863 2.1728 26.9638 2.38829L28.1261 3.11517C28.4701 3.3685 28.9375 3.69433 29.2713 3.961L30.3153 4.86554C30.6149 5.16833 31.0256 5.5614 31.313 5.87588L32.2128 6.94292C32.4628 7.29162 32.8096 7.7473 33.0457 8.10569L33.777 9.32082C33.9715 9.71152 34.2462 10.2253 34.4245 10.6235L34.9638 11.9726C35.0962 12.4015 35.2896 12.9685 35.4044 13.4024L35.723 14.8436C35.8102 15.4775 35.9241 16.3237 35.9737 16.9618L36 18.3877C35.9737 18.817 35.9551 19.3909 35.9117 19.8189L35.7148 21.2057C35.6224 21.621 35.5144 22.1786 35.4057 22.59L34.9997 23.9129C34.8446 24.308 34.6517 24.8407 34.4811 25.2294L33.8821 26.462C33.6666 26.8314 33.3918 27.3317 33.1619 27.6923L32.3922 28.8022C32.1162 29.1429 31.7583 29.6055 31.4688 29.9347L30.5786 30.8705C30.2313 31.1867 29.7737 31.6149 29.4129 31.9158L28.5744 32.5633C28.0998 32.8873 27.458 33.3063 26.9668 33.6046L26.5847 33.8165C26.1086 34.064 24.9937 34.6433 23.581 35.1068L23.3941 35.1666C23.34 35.1832 23.2682 35.2061 23.2139 35.2221L23.0493 35.2709L22.8887 35.3171L22.7346 35.3598L22.582 35.4007L22.4297 35.4401L22.2766 35.4782L22.1181 35.5163L21.9564 35.5535L21.7819 35.5921C21.7278 35.6035 21.6559 35.6191 21.6018 35.6299L21.3979 35.6705C21.334 35.6823 21.2488 35.6988 21.1849 35.7102L20.9285 35.7546C20.8471 35.7674 20.7385 35.7852 20.6571 35.7976L20.3053 35.8468C20.1909 35.8604 20.0385 35.8798 19.9239 35.8922L19.3906 35.9419C19.2054 35.9535 18.9584 35.971 18.7731 35.9795L17.8458 35.9956C16.6301 35.9535 16.5307 35.9501 15.7344 35.8539L14.49 35.6509C14.0182 35.5394 13.3873 35.3965 12.9209 35.2639L11.6486 34.8365C11.2401 34.6644 10.6901 34.4467 10.289 34.2582L9.07889 33.6271C8.71387 33.4001 8.21919 33.1096 7.86343 32.8684L6.75621 32.0514C6.43374 31.7732 5.99368 31.4134 5.68246 31.1226L4.7068 30.1357C4.43106 29.8095 4.05108 29.3849 3.78849 29.0482L2.96935 27.906C2.74605 27.5359 2.43393 27.0508 2.2257 26.6721L1.58675 25.3889C1.42225 24.9787 1.18671 24.438 1.03899 24.0215L0.60356 22.6117L0.597753 22.5898L0.279096 21.1484C0.218849 20.7107 0.121401 20.1291 0.0791196 19.6892L0 18.2577C0.0106158 17.8259 0.00816584 17.2495 0.0362026 16.8186L0.183373 15.4207C0.26104 15.0017 0.348961 14.4396 0.443143 14.0239L0.80263 12.6841C0.94381 12.2838 1.11766 11.7448 1.27435 11.3504L1.831 10.0948C2.03289 9.71906 2.28912 9.21094 2.50561 8.84346L3.2391 7.70211C3.50095 7.35486 3.83939 6.8834 4.11495 6.54695L4.98554 5.56484C5.31435 5.24427 5.74588 4.80928 6.08795 4.50297L6.96716 3.77437C7.40232 3.45797 7.98646 3.04077 8.43695 2.74642L8.8487 2.49781C9.47567 2.14503 10.6423 1.48856 12.4209 0.885173L12.6076 0.825469C12.6617 0.808774 12.7339 0.786725 12.7878 0.76994L12.9524 0.720942L13.1133 0.674849L13.2673 0.632112L13.4198 0.591282L13.5722 0.551903L13.7253 0.513795L13.884 0.475776L14.0457 0.438484L14.2201 0.400012C14.2741 0.38867 14.346 0.372701 14.4001 0.362176L14.6041 0.321617C14.6681 0.30964 14.7532 0.293308 14.8172 0.281876L15.0735 0.237506C15.1549 0.224621 15.2636 0.206927 15.345 0.194588L15.6969 0.145318C15.8112 0.131618 15.9636 0.112291 16.0781 0.0998606L16.6115 0.0502282C16.7967 0.038614 17.0436 0.0210114 17.2292 0.012573C20.5344 -0.131696 23.7513 0.90205 26.4674 2.85694Z" fill="#0000BD"/>
<path d="M25.5881 2.26373C13.4843 -1.84917 7.74303 9.25622 11.4081 17.7966C14.6141 25.2671 26.6719 31.5971 33.6538 21.5558C33.6859 21.4981 33.7287 21.4209 33.7609 21.3631C37.5619 12.965 32.3871 5.25476 25.5881 2.26373C23.0691 0.692668 20.1843 -0.12004 17.2292 0.00890832C17.7003 -0.000801393 18.3289 -0.00170865 18.7999 0.00918073L19.9464 0.0969305C20.4764 0.171976 21.1827 0.276514 21.7083 0.377784L22.9846 0.696479C23.4196 0.839584 24.0032 1.02034 24.4316 1.18169L25.6792 1.71436C26.0651 1.91454 26.5863 2.16935 26.9638 2.38487L28.1261 3.11182C28.4701 3.36518 28.9375 3.69104 29.2713 3.95774L30.3153 4.86237C30.6149 5.16519 31.0256 5.5583 31.313 5.87282L32.2128 6.93997C32.4628 7.2887 32.8096 7.74442 33.0457 8.10287L33.777 9.31811C33.9715 9.70886 34.2462 10.2227 34.4245 10.621L34.9638 11.9701C35.0962 12.399 35.2896 12.9661 35.4044 13.4L35.723 14.8415C35.8102 15.4754 35.9241 16.3218 35.9737 16.9598L36 18.3859C35.9737 18.8154 35.9551 19.3893 35.9117 19.8174L35.7148 21.2043C35.6224 21.6197 35.5144 22.1773 35.4057 22.5887L34.9997 23.9118C34.8446 24.3069 34.6517 24.8396 34.4811 25.2284L33.8821 26.461C33.6666 26.8305 33.3918 27.3308 33.1619 27.6915L32.3922 28.8015C32.1162 29.1422 31.7583 29.605 31.4688 29.9342L30.5786 30.87C30.2313 31.1862 29.7737 31.6145 29.4129 31.9155L28.5744 32.5631C28.0998 32.887 27.458 33.3062 26.9668 33.6045L26.5847 33.8163C26.1086 34.0638 24.9937 34.6432 23.581 35.1067L23.3941 35.1665C23.34 35.1832 23.2682 35.2061 23.2139 35.222L23.0493 35.271L22.8887 35.3171L22.7346 35.3598L22.582 35.4006L22.4297 35.4401L22.2766 35.4782L22.1181 35.5164L21.9564 35.5535L21.7819 35.5921C21.7278 35.6034 21.6559 35.619 21.6018 35.6299L21.3979 35.6705C21.334 35.6824 21.2488 35.6988 21.1849 35.7102L20.9285 35.7546C20.8471 35.7675 20.7385 35.7852 20.6571 35.7975L20.3053 35.8468C20.1909 35.8604 20.0385 35.8797 19.9239 35.8921L19.3906 35.9419C19.2054 35.9535 18.9584 35.971 18.7731 35.9795L17.8458 35.9956C16.6301 35.9535 16.5307 35.9501 15.7344 35.8539L14.49 35.6509C14.0182 35.5393 13.3873 35.3965 12.9209 35.2639L11.6486 34.8363C11.2401 34.6643 10.6901 34.4467 10.289 34.2581L9.07889 33.6268C8.71387 33.3999 8.21919 33.1093 7.86343 32.868L6.75621 32.0511C6.43374 31.7728 5.99368 31.4129 5.68246 31.1222L4.7068 30.1351C4.43106 29.809 4.05108 29.3842 3.78849 29.0476L2.96935 27.9051C2.74605 27.5351 2.43393 27.0499 2.2257 26.6712L1.58675 25.3878C1.42225 24.9776 1.18671 24.4368 1.03899 24.0204L0.60356 22.6103L0.597753 22.5885L0.279096 21.147C0.218849 20.7091 0.121401 20.1276 0.0791196 19.6876L0 18.256C0.0106158 17.8242 0.00816584 17.2476 0.0362026 16.8167L0.183373 15.4187C0.26104 14.9995 0.348961 14.4375 0.443143 14.0217L0.80263 12.6817C0.94381 12.2815 1.11766 11.7424 1.27435 11.348L1.831 10.0921C2.03289 9.71639 2.28912 9.20822 2.50561 8.84071L3.2391 7.69923C3.50095 7.35196 3.83939 6.88045 4.11495 6.54397L4.98554 5.56174C5.31435 5.24115 5.74588 4.80612 6.08795 4.49976L6.96716 3.77108C7.40232 3.45466 7.98646 3.03741 8.43695 2.74304L8.8487 2.4944C9.47567 2.14158 10.6423 1.48505 12.4209 0.881598L12.6076 0.821888C12.6617 0.805191 12.7339 0.78314 12.7878 0.766352L12.9524 0.717351L13.1133 0.671252L13.2673 0.628512L13.4198 0.587676L13.5722 0.548294L13.7253 0.510181L13.884 0.472159L14.0457 0.434863L14.2201 0.396387C14.2741 0.385045 14.346 0.369073 14.4001 0.358547L14.6041 0.317984C14.6681 0.306006 14.7532 0.289672 14.8172 0.278238L15.0735 0.233864C15.1549 0.220979 15.2636 0.203283 15.345 0.190942L15.6969 0.141667C15.8112 0.127965 15.9636 0.108637 16.0781 0.0962051L16.6115 0.0465673C16.7967 0.034952 17.0436 0.0173475 17.2292 0.00890832C20.1843 -0.12004 23.0691 0.692668 25.5881 2.26373Z" fill="#0000B8"/>
<path d="M24.7081 1.75722C11.8605 -1.72827 6.65259 10.7904 11.5901 19.5539C15.7176 26.88 27.1495 31.1699 33.4423 22.6232C38.2477 14.284 32.693 4.55894 24.7081 1.75722C22.407 0.522413 19.8457 -0.101481 17.2292 0.0125729C17.4767 0.00749178 17.8064 0.000686635 18.0538 -0.00439453L18.7999 0.012845L19.9464 0.100586C20.4764 0.175624 21.1827 0.280151 21.7083 0.381411L22.9846 0.700073C23.4196 0.843162 24.0032 1.02391 24.4316 1.18523L25.6792 1.71785C26.0651 1.91801 26.5863 2.1728 26.9638 2.38829L28.1261 3.11517C28.4701 3.3685 28.9375 3.69433 29.2713 3.961L30.3153 4.86554C30.6149 5.16832 31.0256 5.56138 31.313 5.87587L32.2128 6.94292C32.4628 7.29162 32.8096 7.74728 33.0457 8.10569L33.777 9.32082C33.9715 9.71152 34.2462 10.2253 34.4245 10.6236L34.9638 11.9726C35.0962 12.4015 35.2896 12.9684 35.4044 13.4024L35.723 14.8436C35.8102 15.4775 35.9241 16.3237 35.9737 16.9617L36 18.3877C35.9737 18.8171 35.9551 19.3909 35.9117 19.8189L35.7148 21.2057C35.6224 21.6211 35.5144 22.1786 35.4057 22.59L34.9997 23.9129C34.8446 24.308 34.6517 24.8407 34.4811 25.2294L33.8821 26.462C33.6666 26.8314 33.3918 27.3317 33.1619 27.6923L32.3922 28.8022C32.1162 29.1428 31.7583 29.6055 31.4688 29.9347L30.5786 30.8705C30.2313 31.1867 29.7737 31.6148 29.4129 31.9158L28.5744 32.5633C28.0998 32.8873 27.458 33.3063 26.9668 33.6046L26.5847 33.8165C26.1086 34.064 24.9937 34.6433 23.581 35.1068L23.3941 35.1666C23.34 35.1832 23.2682 35.2061 23.2139 35.2221L23.0493 35.2709L22.8887 35.3171L22.7346 35.3598L22.582 35.4006L22.4297 35.4401L22.2766 35.4782L22.1181 35.5163L21.9564 35.5535L21.7819 35.5921C21.7278 35.6035 21.6559 35.6191 21.6018 35.6299L21.3979 35.6704C21.334 35.6823 21.2488 35.6987 21.1849 35.7102L20.9285 35.7546C20.8471 35.7674 20.7385 35.7852 20.6571 35.7975L20.3053 35.8467C20.1909 35.8604 20.0385 35.8797 19.9239 35.8922L19.3906 35.9418C19.2054 35.9535 18.9584 35.971 18.7731 35.9794L17.8458 35.9956C16.6301 35.9535 16.5307 35.95 15.7344 35.8539L14.49 35.6509C14.0182 35.5394 13.3873 35.3964 12.9209 35.2639L11.6486 34.8365C11.2401 34.6644 10.6901 34.4467 10.289 34.2582L9.07889 33.627C8.71387 33.4001 8.21919 33.1095 7.86343 32.8683L6.75621 32.0514C6.43374 31.7731 5.99368 31.4134 5.68246 31.1226L4.7068 30.1356C4.43106 29.8095 4.05108 29.3849 3.78849 29.0482L2.96935 27.9059C2.74605 27.5359 2.43393 27.0508 2.2257 26.6721L1.58675 25.3889C1.42225 24.9787 1.18671 24.438 1.03899 24.0215L0.60356 22.6116L0.597753 22.5898L0.279096 21.1484C0.218849 20.7107 0.121401 20.1291 0.0791196 19.6892L0 18.2577C0.0106158 17.8259 0.00816584 17.2496 0.0362026 16.8186L0.183373 15.4208C0.26104 15.0016 0.348961 14.4396 0.443143 14.0239L0.80263 12.6841C0.94381 12.2838 1.11766 11.7448 1.27435 11.3505L1.831 10.0948C2.03289 9.71905 2.28912 9.21094 2.50561 8.84346L3.2391 7.7021C3.50095 7.35486 3.83939 6.8834 4.11495 6.54695L4.98554 5.56484C5.31435 5.24427 5.74588 4.80928 6.08795 4.50297L6.96716 3.77436C7.40232 3.45796 7.98646 3.04077 8.43695 2.74642L8.8487 2.49781C9.47567 2.14512 10.6423 1.48865 12.4209 0.885263L12.6076 0.825559C12.6617 0.808865 12.7339 0.786815 12.7878 0.770029L12.9524 0.721033L13.1133 0.674939L13.2673 0.632203L13.4198 0.591373L13.5722 0.551993L13.7253 0.513885L13.884 0.475866L14.0457 0.438574L14.2201 0.400102C14.2741 0.388761 14.346 0.372792 14.4001 0.362266L14.6041 0.321707C14.6681 0.30973 14.7532 0.293398 14.8172 0.281965L15.0735 0.237596C15.1549 0.224712 15.2636 0.207018 15.345 0.194678L15.6969 0.145409C15.8112 0.131708 15.9636 0.112382 16.0781 0.0999513L16.6115 0.0503188C16.7967 0.0387047 17.0436 0.0210113 17.2292 0.0125729C19.8457 -0.101481 22.407 0.522413 24.7081 1.75722Z" fill="#0000B3"/>
<path d="M23.8297 1.3178C11.9514 -1.65635 5.52077 10.3571 10.9529 19.7528C15.6153 27.817 26.5688 31.3555 33.1784 23.6544C33.3253 23.4425 33.5212 23.16 33.6682 22.9482C38.6547 13.9059 32.5866 4.07063 23.8297 1.3178C21.7631 0.373787 19.5174 -0.0909166 17.2292 0.00890248C17.7003 -0.000807189 18.3289 -0.00171478 18.7999 0.00917459L19.9464 0.0969246C20.4764 0.17197 21.1827 0.276508 21.7083 0.377779L22.9846 0.696474C23.4196 0.839578 24.0032 1.02034 24.4316 1.18169L25.6792 1.71436C26.0651 1.91453 26.5863 2.16935 26.9638 2.38486L28.1261 3.11183C28.4701 3.36519 28.9375 3.69105 29.2713 3.95775L30.3153 4.86238C30.6149 5.16519 31.0256 5.55829 31.313 5.87281L32.2128 6.93998C32.4628 7.2887 32.8096 7.74442 33.0457 8.10287L33.777 9.31812C33.9715 9.70886 34.2462 10.2227 34.4245 10.621L34.9638 11.9702C35.0962 12.399 35.2896 12.9661 35.4044 13.4001L35.723 14.8415C35.8102 15.4754 35.9241 16.3218 35.9737 16.9598L36 18.3859C35.9737 18.8154 35.9551 19.3893 35.9117 19.8174L35.7148 21.2043C35.6224 21.6197 35.5144 22.1773 35.4057 22.5887L34.9997 23.9118C34.8446 24.3069 34.6517 24.8396 34.4811 25.2284L33.8821 26.4611C33.6666 26.8305 33.3918 27.3308 33.1619 27.6915L32.3922 28.8015C32.1162 29.1422 31.7583 29.605 31.4688 29.9342L30.5786 30.87C30.2313 31.1863 29.7737 31.6145 29.4129 31.9155L28.5744 32.5631C28.0998 32.887 27.458 33.3062 26.9668 33.6045L26.5847 33.8163C26.1086 34.0638 24.9937 34.6432 23.581 35.1069L23.3941 35.1665C23.34 35.1832 23.2682 35.2061 23.2139 35.2221L23.0493 35.271L22.8887 35.3171L22.7346 35.3598L22.582 35.4006L22.4297 35.4401L22.2766 35.4782L22.1181 35.5164L21.9564 35.5535L21.7819 35.5921C21.7278 35.6034 21.6559 35.619 21.6018 35.6299L21.3979 35.6705C21.334 35.6824 21.2488 35.6988 21.1849 35.7103L20.9285 35.7546C20.8471 35.7675 20.7385 35.7853 20.6571 35.7975L20.3053 35.8468C20.1909 35.8604 20.0385 35.8798 19.9239 35.8922L19.3906 35.9419C19.2054 35.9536 18.9584 35.971 18.7731 35.9795L17.8458 35.9956C16.6301 35.9536 16.5307 35.9501 15.7344 35.854L14.49 35.651C14.0182 35.5394 13.3873 35.3965 12.9209 35.2639L11.6486 34.8364C11.2401 34.6644 10.6901 34.4467 10.289 34.2581L9.07889 33.6268C8.71387 33.3999 8.21919 33.1093 7.86342 32.868L6.75621 32.0511C6.43374 31.7728 5.99368 31.413 5.68246 31.1222L4.7068 30.1351C4.43106 29.809 4.05108 29.3842 3.78849 29.0476L2.96935 27.9051C2.74605 27.5351 2.43393 27.05 2.2257 26.6712L1.58675 25.3878C1.42225 24.9776 1.18671 24.4368 1.03899 24.0204L0.60356 22.6103L0.597753 22.5885L0.279096 21.147C0.218849 20.7091 0.121402 20.1276 0.0791199 19.6876L0 18.2559C0.0106158 17.8242 0.00816624 17.2476 0.0362029 16.8167L0.183373 15.4187C0.26104 14.9995 0.348961 14.4375 0.443143 14.0217L0.80263 12.6817C0.943811 12.2815 1.11766 11.7424 1.27435 11.348L1.831 10.0921C2.03289 9.7164 2.28912 9.20822 2.50561 8.84071L3.2391 7.69923C3.50095 7.35196 3.83939 6.88045 4.11495 6.54397L4.98554 5.56175C5.31435 5.24114 5.74588 4.80611 6.08795 4.49976L6.96716 3.77108C7.40232 3.45466 7.98646 3.03741 8.43695 2.74304L8.8487 2.49439C9.47576 2.14167 10.6424 1.48514 12.421 0.881684L12.6077 0.821973C12.6617 0.805277 12.734 0.783225 12.7879 0.766438L12.9525 0.717436L13.1134 0.671338L13.2674 0.628597L13.4199 0.587762L13.5723 0.548379L13.7254 0.510267L13.8841 0.472244L14.0458 0.434948L14.2202 0.396472C14.2742 0.38513 14.3461 0.369159 14.4002 0.358632L14.6042 0.318069C14.6682 0.306091 14.7533 0.289757 14.8173 0.278323L15.0736 0.233949C15.155 0.221063 15.2636 0.203368 15.3451 0.191027L15.697 0.141752C15.8113 0.12805 15.9637 0.108722 16.0782 0.0962899L16.6116 0.0466523C16.7968 0.035037 17.0437 0.0173417 17.2292 0.00890248C19.5174 -0.0909166 21.7631 0.373787 23.8297 1.3178Z" fill="#0000AD"/>
<path d="M22.9366 0.944041C9.19485 -1.54263 4.97773 12.8567 11.1871 21.4659C14.5549 26.1354 24.2841 33.0597 32.8622 24.6601C39.3347 16.8413 33.7689 3.5426 22.9366 0.944041C21.1228 0.25284 19.1916 -0.076744 17.2292 0.00891868C17.7003 -0.000790932 18.3289 -0.00169817 18.7999 0.0091912L19.9464 0.0969406C20.4764 0.171986 21.1827 0.276524 21.7083 0.377795L22.9846 0.69649C23.4196 0.839593 24.0032 1.02036 24.4316 1.1817L25.6792 1.71437C26.0651 1.91455 26.5863 2.16936 26.9638 2.38488L28.1261 3.11183C28.4701 3.36519 28.9375 3.69105 29.2713 3.95775L30.3153 4.86238C30.6149 5.1652 31.0256 5.55831 31.313 5.87283L32.2128 6.93998C32.4628 7.28871 32.8096 7.74443 33.0457 8.10288L33.777 9.31812C33.9715 9.70886 34.2462 10.2227 34.4245 10.621L34.9638 11.9701C35.0962 12.3991 35.2896 12.9661 35.4044 13.4L35.723 14.8415C35.8102 15.4754 35.9241 16.3218 35.9737 16.9598L36 18.3859C35.9737 18.8154 35.9551 19.3893 35.9117 19.8174L35.7148 21.2043C35.6224 21.6196 35.5144 22.1773 35.4057 22.5887L34.9997 23.9118C34.8446 24.3068 34.6517 24.8396 34.4811 25.2284L33.8821 26.461C33.6666 26.8305 33.3918 27.3308 33.1619 27.6916L32.3922 28.8015C32.1162 29.1422 31.7583 29.605 31.4688 29.9342L30.5786 30.87C30.2313 31.1862 29.7737 31.6145 29.4129 31.9155L28.5744 32.563C28.0998 32.887 27.458 33.3062 26.9668 33.6044L26.5847 33.8163C26.1086 34.0638 24.9937 34.6431 23.581 35.1068L23.3941 35.1665C23.34 35.1832 23.2682 35.2061 23.2139 35.222L23.0493 35.271L22.8887 35.317L22.7346 35.3598L22.582 35.4006L22.4297 35.4401L22.2766 35.4782L22.1181 35.5163L21.9564 35.5536L21.7819 35.5921C21.7278 35.6034 21.6559 35.619 21.6018 35.6299L21.3979 35.6705C21.334 35.6824 21.2488 35.6988 21.1849 35.7102L20.9285 35.7546C20.8471 35.7675 20.7385 35.7852 20.6571 35.7975L20.3053 35.8468C20.1909 35.8604 20.0385 35.8798 19.9239 35.8921L19.3906 35.9419C19.2054 35.9535 18.9584 35.971 18.7731 35.9795L17.8458 35.9956C16.6301 35.9535 16.5307 35.9501 15.7344 35.8539L14.49 35.6509C14.0182 35.5393 13.3873 35.3965 12.9209 35.2639L11.6486 34.8364C11.2401 34.6643 10.6901 34.4466 10.289 34.2581L9.07889 33.6268C8.71387 33.3999 8.21919 33.1093 7.86342 32.868L6.75621 32.051C6.43374 31.7728 5.99368 31.4129 5.68246 31.1221L4.7068 30.1351C4.43106 29.809 4.05108 29.3842 3.78849 29.0475L2.96935 27.9051C2.74605 27.5351 2.43393 27.0499 2.2257 26.6711L1.58675 25.3878C1.42225 24.9776 1.18671 24.4369 1.03899 24.0204L0.60356 22.6103L0.597753 22.5885L0.279096 21.1469C0.218849 20.7092 0.121402 20.1275 0.0791199 19.6876L0 18.2559C0.0106158 17.8242 0.00816624 17.2476 0.0362029 16.8166L0.183373 15.4187C0.26104 14.9995 0.348961 14.4375 0.443143 14.0216L0.80263 12.6817C0.943811 12.2815 1.11766 11.7423 1.27435 11.348L1.831 10.0921C2.03289 9.7164 2.28912 9.20823 2.50561 8.84072L3.2391 7.69924C3.50095 7.35196 3.83939 6.88045 4.11495 6.54397L4.98554 5.56175C5.31435 5.24116 5.74588 4.80613 6.08795 4.49977L6.96716 3.77109C7.40232 3.45467 7.98646 3.03742 8.43695 2.74305L8.8487 2.49441C9.47576 2.1416 10.6424 1.48506 12.421 0.881608L12.6077 0.821898C12.6617 0.805202 12.734 0.78315 12.7879 0.766363L12.9525 0.717361L13.1134 0.671263L13.2674 0.628522L13.4199 0.587687L13.5723 0.548304L13.7254 0.510192L13.8841 0.472169L14.0458 0.434873L14.2202 0.396397C14.2742 0.385055 14.3461 0.369084 14.4002 0.358557L14.6042 0.317994C14.6682 0.306017 14.7533 0.289682 14.8173 0.278249L15.0736 0.233875C15.155 0.220989 15.2636 0.203293 15.3451 0.190952L15.697 0.141678C15.8113 0.127976 15.9637 0.108647 16.0782 0.0962153L16.6116 0.0465778C16.7968 0.0349625 17.0437 0.0173579 17.2292 0.00891868C19.1916 -0.076744 21.1228 0.25284 22.9366 0.944041Z" fill="#0000A8"/>
<path d="M22.023 0.62967C8.61978 -1.18948 3.77189 13.0371 11.3217 22.8413C14.8718 27.4513 24.7257 33.008 32.4904 25.6504C32.7003 25.4035 32.98 25.0742 33.1899 24.8274C39.7589 16.5903 33.3927 2.79538 22.023 0.62967C20.4801 0.154804 18.8655 -0.0624387 17.2292 0.00888657C17.7003 -0.00082311 18.3289 -0.00173071 18.7999 0.00915867L19.9464 0.0969085C20.4764 0.171955 21.1827 0.276492 21.7083 0.377763L22.9846 0.696458C23.4196 0.839562 24.0032 1.02033 24.4316 1.18167L25.6792 1.71434C26.0651 1.91452 26.5863 2.16933 26.9638 2.38485L28.1261 3.11181C28.4701 3.36516 28.9375 3.69103 29.2713 3.95773L30.3153 4.86236C30.6149 5.16517 31.0256 5.55828 31.313 5.8728L32.2128 6.93996C32.4628 7.28869 32.8096 7.74441 33.0457 8.10285L33.777 9.3181C33.9715 9.70884 34.2462 10.2227 34.4245 10.621L34.9638 11.9701C35.0962 12.399 35.2896 12.9661 35.4044 13.4L35.723 14.8415C35.8102 15.4754 35.9241 16.3218 35.9737 16.9598L36 18.3859C35.9737 18.8154 35.9551 19.3893 35.9117 19.8174L35.7148 21.2043C35.6224 21.6197 35.5144 22.1773 35.4057 22.5887L34.9997 23.9118C34.8446 24.3069 34.6517 24.8396 34.4811 25.2284L33.8821 26.461C33.6666 26.8305 33.3918 27.3308 33.1619 27.6915L32.3922 28.8015C32.1162 29.1422 31.7583 29.605 31.4688 29.9342L30.5786 30.87C30.2313 31.1862 29.7737 31.6145 29.4129 31.9155L28.5744 32.5631C28.0998 32.887 27.458 33.3062 26.9668 33.6045L26.5847 33.8163C26.1086 34.0638 24.9937 34.6432 23.581 35.1067L23.3941 35.1665C23.34 35.1832 23.2682 35.2061 23.2139 35.222L23.0493 35.271L22.8887 35.3171L22.7346 35.3598L22.582 35.4006L22.4297 35.4401L22.2766 35.4782L22.1181 35.5164L21.9564 35.5535L21.7819 35.5921C21.7278 35.6034 21.6559 35.619 21.6018 35.6299L21.3979 35.6705C21.334 35.6824 21.2488 35.6988 21.1849 35.7102L20.9285 35.7546C20.8471 35.7675 20.7385 35.7852 20.6571 35.7975L20.3053 35.8468C20.1909 35.8604 20.0385 35.8798 19.9239 35.8921L19.3906 35.9419C19.2054 35.9535 18.9584 35.971 18.7731 35.9795L17.8458 35.9956C16.6301 35.9535 16.5307 35.9501 15.7344 35.8539L14.49 35.6509C14.0182 35.5393 13.3873 35.3965 12.9209 35.2639L11.6486 34.8364C11.2401 34.6643 10.6901 34.4466 10.289 34.2581L9.07889 33.6268C8.71387 33.3999 8.21919 33.1093 7.86343 32.868L6.75621 32.0511C6.43374 31.7728 5.99368 31.4129 5.68246 31.1222L4.7068 30.1351C4.43106 29.809 4.05108 29.3842 3.78849 29.0476L2.96935 27.9051C2.74605 27.5351 2.43393 27.0499 2.2257 26.6712L1.58675 25.3878C1.42225 24.9776 1.18671 24.4368 1.03899 24.0204L0.60356 22.6103L0.597753 22.5885L0.279096 21.147C0.218849 20.7091 0.121401 20.1276 0.0791196 19.6876L0 18.2559C0.0106158 17.8242 0.00816584 17.2476 0.0362026 16.8167L0.183373 15.4187C0.26104 14.9995 0.348961 14.4375 0.443143 14.0217L0.80263 12.6817C0.94381 12.2815 1.11766 11.7423 1.27435 11.348L1.831 10.0921C2.03289 9.71638 2.28912 9.20821 2.50561 8.84069L3.2391 7.69922C3.50095 7.35194 3.83939 6.88043 4.11495 6.54394L4.98554 5.56173C5.31435 5.24112 5.74588 4.8061 6.08795 4.49974L6.96716 3.77107C7.40232 3.45464 7.98646 3.0374 8.43695 2.74302L8.8487 2.49438C9.47567 2.14166 10.6423 1.48512 12.4209 0.881668L12.6076 0.821958C12.6617 0.805261 12.7339 0.78321 12.7878 0.766422L12.9524 0.71742L13.1133 0.671322L13.2673 0.628581L13.4198 0.587746L13.5722 0.548363L13.7253 0.510251L13.884 0.472228L14.0457 0.434932L14.2201 0.396456C14.2741 0.385114 14.346 0.369143 14.4001 0.358616L14.6041 0.318054C14.6681 0.306075 14.7532 0.289741 14.8172 0.278308L15.0735 0.233933C15.1549 0.221047 15.2636 0.203352 15.345 0.191011L15.6969 0.141736C15.8112 0.128034 15.9636 0.108706 16.0781 0.0962738L16.6115 0.0466363C16.7967 0.0350211 17.0436 0.0173258 17.2292 0.00888657C18.8655 -0.0624387 20.4801 0.154804 22.023 0.62967Z" fill="#0000A3"/>
<path d="M25.843 2.25078C23.5302 0.949549 22.1403 0.685621 20.7962 0.430381C19.561 0.0945779 18.2873 -0.0498991 17 0.0149449C17.244 0.00915345 17.5691 0.00139696 17.8131 -0.00439453L18.5491 0.0152551L19.6798 0.115262C20.2025 0.20079 20.899 0.31993 21.4174 0.435346L22.6762 0.798556C23.1052 0.961648 23.6808 1.16766 24.1033 1.35154L25.3338 1.95861C25.7144 2.18676 26.2284 2.47716 26.6007 2.72278C26.7205 2.80469 26.8802 2.9138 27 2.99561C26.6702 2.78235 26.2304 2.49795 25.9007 2.2847C25.8835 2.27456 25.8605 2.2606 25.843 2.25078Z" fill="#00009E"/>
<path d="M21.0783 0.37335C7.69929 -1.03264 3.02207 13.8278 10.7722 23.3558C14.7047 28.1901 23.96 33.3561 32.0549 26.6382C32.2481 26.4406 32.5057 26.1773 32.699 25.9798C36.9432 20.8095 36.2244 15.3726 34.8739 11.7221L35.3285 13.1215L35.4044 13.4001L35.723 14.8414C35.8102 15.4754 35.9241 16.3217 35.9737 16.9597L36 18.3859C35.9737 18.8153 35.9551 19.3892 35.9117 19.8173L35.7148 21.2042C35.6224 21.6196 35.5144 22.1772 35.4057 22.5886L34.9997 23.9117C34.8446 24.3068 34.6517 24.8395 34.4811 25.2283L33.8821 26.461C33.6666 26.8305 33.3918 27.3308 33.1619 27.6915L32.3922 28.8015C32.1162 29.1421 31.7583 29.6049 31.4688 29.9341L30.5786 30.87C30.2313 31.1862 29.7737 31.6144 29.4129 31.9154L28.5744 32.563C28.0998 32.887 27.458 33.3061 26.9668 33.6044L26.5847 33.8162C26.1086 34.0638 24.9937 34.6431 23.581 35.1068L23.3941 35.1665C23.34 35.1831 23.2682 35.206 23.2139 35.222L23.0493 35.2709L22.8887 35.317L22.7346 35.3597L22.582 35.4005L22.4297 35.44L22.2766 35.4782L22.1181 35.5163L21.9564 35.5534L21.7819 35.592C21.7278 35.6034 21.6559 35.619 21.6018 35.6299L21.3979 35.6704C21.334 35.6823 21.2488 35.6987 21.1849 35.7102L20.9285 35.7545C20.8471 35.7674 20.7385 35.7852 20.6571 35.7974L20.3053 35.8467C20.1909 35.8604 20.0385 35.8797 19.9239 35.8921L19.3906 35.9418C19.2054 35.9535 18.9584 35.971 18.7731 35.9794L17.8458 35.9956C16.6301 35.9535 16.5307 35.9501 15.7344 35.8539L14.49 35.6509C14.0182 35.5393 13.3873 35.3964 12.9209 35.2638L11.6486 34.8364C11.2401 34.6643 10.6901 34.4466 10.289 34.258L9.07889 33.6267C8.71387 33.3999 8.21919 33.1093 7.86342 32.8679L6.75621 32.051C6.43374 31.7727 5.99368 31.4129 5.68246 31.1221L4.7068 30.135C4.43106 29.8089 4.05108 29.3843 3.78849 29.0475L2.96935 27.905C2.74605 27.535 2.43393 27.0499 2.2257 26.6711L1.58675 25.3878C1.42225 24.9776 1.18671 24.4369 1.03899 24.0203L0.60356 22.6102L0.597753 22.5884L0.279096 21.1469C0.218849 20.7092 0.121401 20.1275 0.0791196 19.6875L0 18.2559C0.0106158 17.8241 0.00816584 17.2477 0.0362026 16.8167L0.183373 15.4187C0.26104 14.9995 0.348961 14.4374 0.443143 14.0217L0.80263 12.6817C0.94381 12.2814 1.11766 11.7424 1.27435 11.3479L1.831 10.0922C2.03289 9.71639 2.28912 9.20822 2.50561 8.8407L3.2391 7.69923C3.50095 7.35195 3.83939 6.88044 4.11495 6.54396L4.98554 5.56175C5.31435 5.24114 5.74588 4.80612 6.08795 4.49977L6.96716 3.77108C7.40232 3.45466 7.98646 3.03742 8.43695 2.74304L8.8487 2.49441C9.47558 2.14159 10.6423 1.48506 12.4208 0.881609L12.6075 0.821898C12.6616 0.805201 12.7338 0.783151 12.7877 0.766363L12.9524 0.717361L13.1132 0.671263L13.2672 0.628522L13.4197 0.587687L13.5721 0.548305L13.7252 0.510192L13.8839 0.47217L14.0456 0.434874L14.22 0.396399C14.274 0.385055 14.3459 0.369084 14.4 0.358559L14.604 0.317995C14.668 0.306017 14.7531 0.289684 14.8171 0.278249L15.0734 0.233875C15.1548 0.22099 15.2635 0.203295 15.345 0.190954L15.6968 0.141679C15.8112 0.127977 15.9635 0.108649 16.0781 0.0962159L16.6114 0.0465791C16.7967 0.0349639 17.0435 0.0173593 17.2291 0.0089201C18.5345 -0.0480672 19.8259 0.0787024 21.0783 0.37335Z" fill="#00009E"/>
<path d="M23.3684 0.798741C21.805 0.364377 20.9062 0.258989 19.8936 0.166333C18.9435 0.0260414 17.9755 -0.0275797 17 0.0113714C17.2511 0.00665006 17.5856 0.000326814 17.8367 -0.00439453L18.5939 0.0116245L19.7574 0.0931517C20.2952 0.162876 21.0119 0.260001 21.5453 0.354091L22.8405 0.650187L24 0.995605L23.3684 0.798741Z" fill="#000099"/>
<path d="M20.0807 0.175729C7.06062 -0.517286 1.5588 14.7584 11.1611 24.9408C11.5633 25.3672 21.1289 35.2954 31.5511 27.6216C31.6246 27.5571 31.7227 27.4709 31.7961 27.4063C33.1831 26.0212 36.8676 22.3422 35.7845 15.2071L35.9526 16.6453L35.9737 16.9598L36 18.3859C35.9737 18.8154 35.9551 19.3893 35.9117 19.8174L35.7148 21.2043C35.6224 21.6197 35.5144 22.1773 35.4057 22.5887L34.9997 23.9118C34.8446 24.3069 34.6517 24.8396 34.4811 25.2284L33.8821 26.4611C33.6666 26.8305 33.3918 27.3308 33.1619 27.6916L32.3922 28.8015C32.1162 29.1422 31.7583 29.605 31.4688 29.9342L30.5786 30.87C30.2313 31.1863 29.7737 31.6145 29.4129 31.9155L28.5744 32.5631C28.0998 32.887 27.458 33.3062 26.9668 33.6045L26.5847 33.8163C26.1086 34.0638 24.9937 34.6432 23.581 35.1069L23.3941 35.1665C23.34 35.1832 23.2682 35.2061 23.2139 35.2221L23.0493 35.271L22.8887 35.3171L22.7346 35.3598L22.582 35.4006L22.4297 35.4401L22.2766 35.4782L22.1181 35.5164L21.9564 35.5536L21.7819 35.5921C21.7278 35.6034 21.6559 35.619 21.6018 35.6299L21.3979 35.6705C21.334 35.6824 21.2488 35.6988 21.1849 35.7103L20.9285 35.7546C20.8471 35.7675 20.7385 35.7853 20.6571 35.7975L20.3053 35.8468C20.1909 35.8604 20.0385 35.8798 19.9239 35.8922L19.3906 35.9419C19.2054 35.9535 18.9584 35.971 18.7731 35.9795L17.8458 35.9956C16.6301 35.9536 16.5307 35.9501 15.7344 35.8539L14.49 35.6509C14.0182 35.5393 13.3873 35.3965 12.9209 35.2639L11.6486 34.8364C11.2401 34.6644 10.6901 34.4467 10.289 34.2581L9.07889 33.6268C8.71387 33.3999 8.21919 33.1093 7.86342 32.868L6.75621 32.0511C6.43374 31.7728 5.99368 31.413 5.68246 31.1222L4.7068 30.1351C4.43106 29.809 4.05108 29.3842 3.78849 29.0476L2.96935 27.9051C2.74605 27.5351 2.43393 27.0499 2.2257 26.6712L1.58675 25.3878C1.42225 24.9776 1.18671 24.4369 1.03899 24.0204L0.60356 22.6103L0.597753 22.5885L0.279096 21.147C0.218849 20.7092 0.121402 20.1276 0.0791199 19.6876L0 18.256C0.0106158 17.8242 0.00816624 17.2476 0.0362029 16.8167L0.183373 15.4187C0.26104 14.9995 0.348961 14.4375 0.443143 14.0217L0.80263 12.6817C0.943811 12.2815 1.11766 11.7424 1.27435 11.348L1.831 10.0921C2.03289 9.71642 2.28912 9.20825 2.50561 8.84074L3.2391 7.69926C3.50095 7.35199 3.83939 6.88048 4.11495 6.544L4.98554 5.56177C5.31435 5.24118 5.74588 4.80615 6.08795 4.49979L6.96716 3.77111C7.40232 3.45469 7.98646 3.03744 8.43695 2.74307L8.8487 2.49443C9.47576 2.14162 10.6424 1.48508 12.421 0.88163L12.6077 0.82192C12.6617 0.805224 12.734 0.783172 12.7879 0.766384L12.9525 0.717383L13.1134 0.671285L13.2674 0.628544L13.4199 0.587709L13.5723 0.548326L13.7254 0.510214L13.8841 0.472191L14.0458 0.434895L14.2202 0.396419C14.2742 0.385077 14.3461 0.369106 14.4002 0.358579L14.6042 0.318016C14.6682 0.306038 14.7533 0.289704 14.8173 0.278271L15.0736 0.233897C15.155 0.221011 15.2636 0.203315 15.3451 0.190974L15.697 0.1417C15.8113 0.127998 15.9637 0.108669 16.0782 0.0962374L16.6116 0.0465998C16.7968 0.0349845 17.0437 0.01738 17.2292 0.00894078C18.1907 -0.0330739 19.1445 0.0246397 20.0807 0.175729Z" fill="#000099"/>
<path d="M19.0213 0.0456999C5.03658 -0.138058 1.4562 15.9553 10.3001 25.2324C14.0882 29.206 22.701 34.3917 30.954 28.6223C31.1696 28.4394 31.457 28.1955 31.6727 28.0125C32.7188 27.0657 35.9023 24.1844 36 18.0295L35.9417 19.4439L35.9075 19.8174L35.7107 21.2043C35.6183 21.6195 35.5103 22.1773 35.4016 22.5887L34.9957 23.9118C34.8406 24.3068 34.6477 24.8396 34.4772 25.2284L33.8782 26.461C33.6628 26.8305 33.3879 27.3308 33.1581 27.6915L32.3885 28.8015C32.1125 29.1421 31.7547 29.605 31.4652 29.9342L30.575 30.87C30.2279 31.1862 29.7703 31.6145 29.4095 31.9155L28.5711 32.563C28.0965 32.887 27.4549 33.3062 26.9638 33.6044L26.5816 33.8163C26.1056 34.0638 24.9909 34.6431 23.5783 35.1068L23.3914 35.1665C23.3373 35.1832 23.2655 35.2061 23.2112 35.222L23.0467 35.271L22.886 35.317L22.732 35.3598L22.5794 35.4006L22.4271 35.4401L22.2741 35.4782L22.1155 35.5163L21.9539 35.5535L21.7794 35.5921C21.7253 35.6034 21.6534 35.619 21.5993 35.6299L21.3955 35.6705C21.3315 35.6824 21.2464 35.6988 21.1825 35.7102L20.9261 35.7546C20.8447 35.7675 20.7362 35.7852 20.6547 35.7975L20.303 35.8468C20.1886 35.8604 20.0363 35.8797 19.9216 35.8921L19.3883 35.9419C19.2032 35.9535 18.9563 35.971 18.7709 35.9795L17.8437 35.9956C16.6282 35.9535 16.5288 35.9501 15.7326 35.8539L14.4883 35.6509C14.0166 35.5393 13.3858 35.3965 12.9194 35.2639L11.6472 34.8364C11.2388 34.6643 10.6889 34.4466 10.2878 34.2581L9.07785 33.6268C8.71287 33.3999 8.21825 33.1093 7.86253 32.868L6.75543 32.051C6.433 31.7728 5.993 31.4129 5.68181 31.1221L4.70626 30.1351C4.43055 29.809 4.05061 29.3842 3.78806 29.0474L2.969 27.9051C2.74574 27.5351 2.43365 27.0499 2.22544 26.6711L1.58657 25.3877C1.42209 24.9776 1.18657 24.4368 1.03887 24.0204L0.603491 22.6103L0.597684 22.5885L0.279064 21.1469C0.218824 20.7091 0.121388 20.1274 0.0791108 19.6876L0 18.2558C0.0106146 17.8241 0.0081653 17.2476 0.0361988 16.8166L0.183352 15.4187C0.26101 14.9995 0.348921 14.4375 0.443092 14.0216L0.802538 12.6817C0.943703 12.2815 1.11753 11.7423 1.27421 11.348L1.83079 10.0921C2.03266 9.71635 2.28886 9.20818 2.50532 8.84067L3.23873 7.69919C3.50055 7.35191 3.83895 6.8804 4.11448 6.54392L4.98497 5.5617C5.31375 5.2411 5.74523 4.80608 6.08726 4.49971L6.96636 3.77104C7.40147 3.45461 7.98555 3.03737 8.43599 2.743L8.84769 2.49435C9.47468 2.14163 10.6412 1.48509 12.4196 0.881639L12.6063 0.821929C12.6604 0.805232 12.7325 0.783181 12.7865 0.766394L12.9511 0.717391L13.1119 0.671293L13.2659 0.628553L13.4184 0.587717L13.5708 0.548334L13.7238 0.510222L13.8825 0.472199L14.0442 0.434904L14.2186 0.396428C14.2726 0.385085 14.3444 0.369114 14.3986 0.358587L14.6026 0.318025C14.6665 0.306046 14.7516 0.289713 14.8156 0.278279L15.0719 0.233904C15.1533 0.221018 15.2619 0.203324 15.3433 0.190983L15.6952 0.141708C15.8095 0.128006 15.9619 0.108677 16.0764 0.0962446L16.6097 0.0466076C16.7949 0.0349922 17.0418 0.0173877 17.2272 0.00894845C17.829 -0.0173675 18.4279 -0.00457262 19.0213 0.0456999Z" fill="#000094"/>
<path d="M17.9781 -0.00433395C4.59779 0.400386 0.101082 16.9275 10.6881 26.7896C11.6743 27.7083 20.6056 35.5936 30.3997 29.6711C30.6083 29.5175 30.8863 29.3126 31.0948 29.1589C34.9556 26.1723 35.6874 22.3142 36 20.6669L35.7369 22.0374L35.5992 22.5886L35.1911 23.9117C35.0351 24.3068 34.8411 24.8395 34.6696 25.2283L34.0673 26.461C33.8506 26.8305 33.5743 27.3307 33.3432 27.6915L32.5693 28.8015C32.2918 29.1421 31.9319 29.6049 31.6408 29.9341L30.7457 30.87C30.3966 31.1862 29.9365 31.6144 29.5737 31.9154L28.7306 32.563C28.2534 32.887 27.6081 33.3061 27.1143 33.6044L26.73 33.8162C26.2513 34.0638 25.1304 34.6431 23.7099 35.1068L23.522 35.1664C23.4676 35.1831 23.3954 35.206 23.3408 35.222L23.1753 35.2709L23.0138 35.317L22.8589 35.3597L22.7055 35.4005L22.5523 35.44L22.3984 35.4782L22.239 35.5163L22.0764 35.5534L21.901 35.592C21.8466 35.6034 21.7743 35.619 21.7199 35.6299L21.5149 35.6704C21.4506 35.6823 21.365 35.6987 21.3007 35.7102L21.0429 35.7545C20.9611 35.7674 20.8519 35.7852 20.77 35.7974L20.4163 35.8467C20.3012 35.8604 20.148 35.8797 20.0328 35.8921L19.4966 35.9418C19.3104 35.9535 19.0621 35.971 18.8757 35.9794L17.9433 35.9956C16.721 35.9535 16.6211 35.95 15.8204 35.8539L14.5692 35.6509C14.0948 35.5393 13.4605 35.3964 12.9915 35.2638L11.7123 34.8364C11.3016 34.6643 10.7486 34.4466 10.3453 34.258L9.12852 33.6267C8.76151 33.3999 8.26412 33.1092 7.90641 32.8679L6.79314 32.051C6.46891 31.7727 6.02645 31.4129 5.71353 31.1221L4.73253 30.135C4.45529 29.8089 4.07322 29.3843 3.8092 29.0475L2.98558 27.905C2.76107 27.535 2.44723 27.0499 2.23787 26.6711L1.59543 25.3878C1.43002 24.9776 1.1932 24.4369 1.04467 24.0203L0.606859 22.6102L0.60102 22.5884L0.280622 21.1469C0.220045 20.7092 0.122066 20.1275 0.0795524 19.6875L0 18.2559C0.0106738 17.8241 0.00821088 17.2477 0.0364008 16.8167L0.184375 15.4187C0.262467 14.9995 0.350869 14.4374 0.445565 14.0217L0.807017 12.6817C0.94897 12.2814 1.12377 11.7424 1.28132 11.3479L1.84101 10.0922C2.044 9.71638 2.30163 9.20821 2.51931 8.8407L3.25681 7.69922C3.52009 7.35194 3.86038 6.88043 4.13744 6.54395L5.01279 5.56174C5.3434 5.24114 5.77729 4.80612 6.12123 4.49976L7.00524 3.77108C7.44278 3.45466 8.03012 3.03741 8.48307 2.74304L8.89707 2.4944C9.52756 2.14159 10.7006 1.48506 12.4889 0.881603L12.6767 0.821893C12.7309 0.805196 12.8036 0.783145 12.8579 0.766358L13.0233 0.717355L13.1851 0.671257L13.34 0.628517L13.4933 0.587682L13.6465 0.548299L13.8004 0.510187L13.96 0.472164L14.1226 0.434868L14.298 0.396392C14.3523 0.38505 14.4245 0.369079 14.479 0.358552L14.6841 0.31799C14.7484 0.306012 14.834 0.289678 14.8983 0.278244L15.156 0.23387C15.2379 0.220984 15.3471 0.20329 15.429 0.190948L15.7828 0.141674C15.8977 0.127971 16.051 0.108643 16.1661 0.0962109L16.7024 0.0465737C16.8887 0.0349584 17.1369 0.017354 17.3234 0.00891475C17.5421 -0.00061344 17.7604 -0.00496915 17.9781 -0.00433395Z" fill="#00008F"/>
<path d="M29.1768 30.762C29.369 30.6376 29.6253 30.4716 29.8175 30.3472C32.3257 28.6552 34.0694 26.2834 35 23.2977L34.5394 24.6045L34.301 25.1783L33.7051 26.4167C33.4906 26.7879 33.2173 27.2905 32.9886 27.6529L32.2229 28.768C31.9484 29.1103 31.5923 29.5753 31.3044 29.906L30.4187 30.8462C30.0733 31.1639 29.6181 31.5941 29.2592 31.8966L28.4251 32.547C27.9529 32.8725 27.3145 33.2937 26.8259 33.5933L26.4457 33.8062C25.9722 34.0548 24.8631 34.6368 23.4577 35.1026L23.2719 35.1626C23.218 35.1794 23.1466 35.2024 23.0926 35.2184L22.9289 35.2676L22.769 35.3138L22.6158 35.3569L22.464 35.3979L22.3125 35.4375L22.1602 35.4758L22.0025 35.514L21.8416 35.5515L21.6681 35.5902C21.6143 35.6016 21.5427 35.6173 21.4889 35.6282L21.2861 35.669C21.2225 35.6809 21.1378 35.6974 21.0742 35.7089L20.8192 35.7535C20.7382 35.7665 20.6302 35.7842 20.5491 35.7966L20.1992 35.8461C20.0854 35.8598 19.9338 35.8792 19.8198 35.8917L19.2892 35.9417C19.1051 35.9533 18.8594 35.9709 18.675 35.9794L17.7525 35.9956C16.5432 35.9533 16.4443 35.9499 15.6522 35.8532L14.4143 35.6493C13.9449 35.5372 13.3173 35.3936 12.8534 35.2604L11.5877 34.831C11.1814 34.6581 10.6343 34.4394 10.2352 34.2499L9.03145 33.6158C8.66833 33.3878 8.17624 33.0959 7.82234 32.8535L6.7209 32.0327C6.40011 31.7531 5.96236 31.3916 5.65277 31.0994L4.68221 30.1079C4.40791 29.7802 4.0299 29.3535 3.76869 29.0152L2.95383 27.8675C2.7317 27.4958 2.42121 27.0084 2.21407 26.6278L1.57846 25.3385C1.41482 24.9265 1.18051 24.3832 1.03356 23.9647L0.600406 22.5481L0.594629 22.5262L0.277638 21.0779C0.217705 20.6381 0.120767 20.0537 0.0787064 19.6118L0 18.1734C0.0105603 17.7397 0.00812356 17.1605 0.0360137 16.7275L0.182414 15.323C0.259676 14.902 0.347138 14.3373 0.440827 13.9195L0.798435 12.5734C0.938879 12.1713 1.11182 11.6296 1.26769 11.2335L1.82144 9.97181C2.02227 9.5943 2.27716 9.08376 2.49252 8.71454L3.22218 7.56776C3.48266 7.21888 3.81932 6.74518 4.09344 6.40713L4.95948 5.42034C5.28658 5.09826 5.71586 4.66121 6.05614 4.35343L6.93075 3.62137C7.36363 3.30347 7.94473 2.88429 8.39286 2.58855L8.80246 2.33875C9.42624 1.9843 10.5868 1.32472 12.3561 0.718461L12.5419 0.658473C12.5957 0.641699 12.6674 0.619545 12.7211 0.60268L12.8849 0.55345L13.0449 0.507137L13.1981 0.464199L13.3498 0.423174L13.5014 0.383607L13.6536 0.345318L13.8115 0.307119L13.9724 0.269651L14.1459 0.230996C14.1996 0.2196 14.2711 0.203555 14.325 0.192979L14.5279 0.152229C14.5915 0.140195 14.6762 0.123784 14.7398 0.112298L14.9949 0.0677173C15.0758 0.0547714 15.1838 0.0369947 15.2649 0.0245964C15.3247 0.0158436 15.4043 0.0042661 15.464 -0.00439453C15.4608 -0.00393908 15.4566 -0.00339154 15.4533 -0.002845C1.78804 2.03307 -0.248215 20.6693 12.2493 29.3216C14.8264 31.1058 21.6348 34.8178 29.1768 30.762Z" fill="#00008A"/>
<path d="M28.1914 32.0594C30.7479 30.7823 32.5393 29.0674 34 26.4989L33.308 27.6761L33.2809 27.7184L32.5085 28.8248C32.2315 29.1644 31.8723 29.6256 31.5818 29.9538L30.6883 30.8866C30.3398 31.2018 29.8806 31.6287 29.5185 31.9287L28.677 32.5741C28.2006 32.8971 27.5566 33.3148 27.0636 33.6121L26.6801 33.8233C26.2023 34.07 25.0834 34.6475 23.6656 35.1096L23.4781 35.1692C23.4238 35.1858 23.3517 35.2085 23.2972 35.2245L23.132 35.2732L22.9708 35.3192L22.8162 35.3618L22.6631 35.4025L22.5102 35.4418L22.3566 35.4799L22.1974 35.5178L22.0352 35.5549L21.8601 35.5933C21.8058 35.6047 21.7336 35.6203 21.6793 35.6311L21.4747 35.6715C21.4105 35.6833 21.3251 35.6997 21.2609 35.7111L21.0036 35.7553C20.922 35.7682 20.813 35.7858 20.7312 35.7981L20.3782 35.8473C20.2633 35.8609 20.1104 35.8801 19.9954 35.8925L19.4602 35.9421C19.2744 35.9536 19.0265 35.9711 18.8405 35.9794L17.9098 35.9956C16.6898 35.9536 16.59 35.9502 15.7909 35.8543L14.542 35.652C14.0685 35.5408 13.4353 35.3983 12.9673 35.2662L11.6904 34.8401C11.2805 34.6686 10.7285 34.4516 10.3259 34.2636L9.11148 33.6345C8.74515 33.4083 8.24869 33.1187 7.89166 32.8781L6.78046 32.0638C6.45683 31.7864 6.0152 31.4278 5.70286 31.1379L4.7237 30.1541C4.44697 29.829 4.06562 29.4057 3.80209 29.07L2.98 27.9313C2.75591 27.5625 2.44267 27.079 2.23369 26.7014L1.59245 25.4222C1.42735 25.0133 1.19097 24.4744 1.04272 24.0591L0.605726 22.6537L0.599898 22.6319L0.280098 21.1951C0.219635 20.7588 0.121837 20.179 0.0794035 19.7404L0 18.3134C0.0106539 17.883 0.00819515 17.3085 0.0363325 16.8789L0.184031 15.4854C0.261977 15.0677 0.350214 14.5074 0.444733 14.0929L0.80551 12.7574C0.947198 12.3583 1.12167 11.821 1.27893 11.4279L1.83758 10.1762C2.04019 9.80163 2.29734 9.29512 2.5146 8.9288L3.25073 7.79102C3.51352 7.44487 3.85317 6.97489 4.12972 6.6395L5.00343 5.66047C5.33343 5.34091 5.76651 4.90729 6.1098 4.60194L6.99216 3.87563C7.42888 3.56023 8.01513 3.14434 8.46724 2.85092L8.88046 2.60308C9.50968 2.25151 10.6805 1.59709 12.4655 0.995605L12.232 1.07384C-0.849582 5.90225 0.274544 24.7364 14.0545 31.6081C16.7628 32.9586 22.2007 34.8131 28.1914 32.0594Z" fill="#000085"/>
<path d="M33.5192 12.0125C36.165 21.0714 27.3725 26.4082 19.8508 22.9166C11.1326 18.8696 12.8348 6.81745 20.4979 4.37666C25.5726 2.76027 31.9008 6.47115 33.5192 12.0125Z" fill="#0000D6"/>
<path d="M32.5804 11.5359C34.9118 19.5644 27.1274 25.5638 19.1459 21.8897C11.7509 18.4858 12.5002 6.86622 20.2752 4.37875C25.5449 2.69272 31.2171 6.84173 32.5804 11.5359Z" fill="#0000DB"/>
<path d="M31.9475 13.713C32.834 22.421 22.2757 25.7526 16.6461 20.4486C11.2622 15.3764 14.6273 5.57124 21.941 5.01989C27.2755 4.61785 31.4959 9.2786 31.9475 13.713Z" fill="#0000E0"/>
<path d="M31.9761 13.1872C32.5315 20.6107 23.2787 24.8572 17.6275 19.7724C12.2479 14.9319 15.6779 5.40986 22.9466 5.00643C27.3338 4.76292 31.6376 8.66217 31.9761 13.1872Z" fill="#0000E6"/>
<path d="M30.9826 13.6475C31.4462 21.1709 22.5419 24.3534 17.6808 20.0734C14.6113 17.3708 14.7665 13.3112 15.3086 11.8742C16.376 9.04455 19.2355 5.99792 22.991 5.99561C26.6227 5.99339 30.7006 9.0676 30.9826 13.6475Z" fill="#0000EB"/>
<path d="M29.9824 13.0555C30.4271 20.1377 22.3428 23.1926 17.7497 19.2687C12.5314 14.8108 15.3572 7.42819 21.0744 6.15873C25.3709 5.20469 29.7001 8.55637 29.9824 13.0555Z" fill="#0000F0"/>
<path d="M29.9803 13.4962C30.3937 19.0872 24.2158 23.3619 18.8022 19.5318C13.8305 16.0144 15.8383 8.10439 21.9615 7.08526C25.5608 6.48616 29.6419 8.91928 29.9803 13.4962Z" fill="#0000F5"/>
<path d="M28.9824 12.9882C29.397 19.3139 22.3811 21.9542 18.3722 18.4031C13.1615 13.7874 17.5552 7.45822 21.7898 7.03123C25.8321 6.62362 28.7723 9.78233 28.9824 12.9882Z" fill="#0000FA"/>
<path d="M28.984 13.4926C29.368 19.1756 22.772 22.0794 18.1259 18.273C13.6236 14.5844 16.9046 8.29704 22.0856 8.00731C26.273 7.77317 28.8224 11.1022 28.984 13.4926Z" fill="#0000FF"/>
<path d="M28.9484 13.4301C29.6036 18.7553 23.8789 21.5636 19.9935 19.0842C15.3581 16.1265 16.4968 10.0828 20.7384 8.37218C23.2613 7.35474 28.3043 8.1952 28.9484 13.4301Z" fill="#1F1FFF"/>
<path d="M27.9581 13.9642C28.5184 18.7007 23.3292 21.3976 19.9483 19.2447C15.1691 16.2013 16.8295 10.672 20.4709 9.3107C23.4613 8.19283 27.5035 10.1206 27.9581 13.9642Z" fill="#2B2BFF"/>
<path d="M27.8693 15.816C27.2957 18.1851 24.9108 19.8955 23.3658 19.9834C18.995 20.2326 17.4516 16.5772 17.3841 16.4135C16.7999 14.9985 16.9973 13.988 17.2259 12.8183C17.2282 12.8063 18.3008 10.7716 18.5318 10.5394C19.0291 10.0395 19.815 9.4087 20.4987 9.2784C22.717 8.85546 22.9752 8.90656 24.3292 9.43415C27.7386 10.7624 28.3142 13.9785 27.8693 15.816Z" fill="#3535FF"/>
<path d="M26.8339 15.2997C26.476 16.7125 25.4302 17.6766 24.8683 18.1945C24.3821 18.6428 23.4853 18.9579 22.8328 18.9881C19.4703 19.1436 17.8485 16.8504 17.3871 15.7366C15.7158 11.7016 19.7943 7.97501 23.1627 9.25013C27.4485 10.8726 27.1579 14.0212 26.8339 15.2997Z" fill="#3D3DFF"/>
<path d="M27.8054 15.769C27.7862 15.8246 27.3199 17.1394 26.0441 18.1864C25.5203 18.6164 24.5764 18.9739 23.8743 18.9956L21.3624 18.7179C19.8399 17.9099 19.0013 17.4648 18.3443 16.0606C17.824 14.9484 17.7377 13.0522 19.2065 11.3684C19.659 10.8499 20.555 10.3878 21.2428 10.182C21.9101 9.98256 22.888 9.94452 23.5781 10.0614C24.3998 10.2005 25.4252 10.6859 26.1133 11.1214C26.6023 11.431 27.0819 12.0396 27.416 12.4906C28.3175 13.7075 27.942 15.3077 27.8054 15.769Z" fill="#4444FF"/>
<path d="M26.9837 14.8458C26.9599 15.1464 27.0282 15.5724 26.9081 15.8481C26.6211 16.506 26.128 17.3444 25.659 17.8834C25.3336 18.2575 23.3935 18.9873 23.3743 18.9942C23.3065 19.0187 21.0915 18.7095 20.9311 18.6531C20.3993 18.4661 19.7765 17.9895 19.3745 17.5889C17.3764 15.5983 18.0606 13.0531 18.3531 12.4804C18.9781 11.2574 19.074 11.0695 20.9825 10.102C21.0047 10.0908 23.2124 9.9879 23.2539 9.99607C24.5493 10.2532 27.2335 11.6815 26.9837 14.8458Z" fill="#4B4BFF"/>
<path d="M26.7813 15.3361C26.5571 15.9246 26.0506 16.668 25.5291 17.0722C25.4297 17.1492 23.4339 17.9946 23.3501 17.9952C20.9418 18.0134 19.288 17.3635 18.3433 15.4003C17.3248 13.2843 18.8954 11.3796 18.9122 11.3621C19.3975 10.8527 20.2785 10.3405 20.9868 10.1408C21.6773 9.94613 22.6888 9.96317 23.3965 10.0977C25.4166 10.4816 27.7279 12.8505 26.7813 15.3361Z" fill="#5151FF"/>
<path d="M25.7579 15.4698C25.583 15.9644 25.2157 16.6019 24.8191 16.9371C24.7251 17.0166 22.8284 17.9961 22.7693 17.9956C22.6881 17.995 20.3449 17.5864 20.3113 17.567C19.6586 17.1894 18.7817 16.5096 18.3099 15.4158C17.4343 13.3854 18.691 11.4846 18.7052 11.4688C19.1807 10.9317 19.9865 10.3308 20.6647 10.121C21.3285 9.91547 22.2996 9.99035 22.9759 10.147C23.7368 10.3233 26.8881 12.2721 25.7579 15.4698Z" fill="#5757FF"/>
<path d="M25.7552 15.9248C25.6294 16.2651 25.3844 16.7136 25.1046 16.9396C24.5932 17.3527 23.8439 18.012 23.1911 17.9953C22.4824 17.9773 21.4861 17.9105 20.8674 17.5581C19.9133 17.0145 19.2713 15.771 19.2661 15.7592C18.5573 14.1346 19.4875 12.4175 19.4991 12.405C19.9637 11.9076 20.6934 11.2873 21.3398 11.092C21.9727 10.901 22.8968 11.0266 23.5383 11.1853C24.1801 11.3442 26.8046 13.0853 25.7552 15.9248Z" fill="#5C5CFF"/>
<path d="M25.7114 16.0657C25.6212 16.3034 25.4583 16.6254 25.2596 16.7786C24.6918 17.2165 23.9195 18.0282 23.2104 17.9946C22.4405 17.9581 21.3652 17.8654 20.6904 17.4831C20.1155 17.1575 19.2701 15.7718 19.2649 15.7596C18.7213 14.5116 19.1417 12.8052 19.3986 12.5435C20.4388 11.4836 21.3449 10.9977 21.3512 10.9957C21.3637 10.9918 23.6316 11.1247 23.7535 11.1854C24.3075 11.4617 25.1128 11.9296 25.3474 12.5144C25.547 13.0118 25.9313 13.6486 25.9862 14.1837C26.0442 14.7514 25.9131 15.5338 25.7114 16.0657Z" fill="#6161FF"/>
<path d="M25.6492 15.5159C25.392 16.083 23.28 16.9967 23.2634 16.9956C22.4791 16.9457 21.3888 16.8536 20.6976 16.5208C20.244 16.3024 19.3658 15.1267 19.3608 15.1166C19.1346 14.6687 18.8937 13.9747 19.0497 13.5038C19.3829 12.4976 19.3829 12.4976 20.5364 11.5661C20.7776 11.3714 21.1014 11.0336 21.4265 11.012C22.2176 10.9595 23.333 11.0245 24.0458 11.3336C25.3951 11.9187 26.6248 13.3651 25.6492 15.5159Z" fill="#6565FF"/>
<path d="M24.6234 16.5811C24.5034 16.862 22.6355 17.9967 22.622 17.9956C20.4168 17.8153 19.5754 16.8885 19.2579 16.1426C19.2525 16.1303 18.7605 14.8187 19.1497 13.8008C19.4 13.1456 20.2526 12.6149 20.7774 12.1674C20.9428 12.0264 21.26 11.9769 21.4726 12.0018C22.1052 12.0756 22.9715 12.1961 23.5417 12.49C23.9158 12.6829 24.4812 12.9743 24.9609 14.7885C25.1006 15.3169 24.8375 16.0802 24.6234 16.5811Z" fill="#6A6AFF"/>
<path d="M24.7988 15.3926C24.3546 16.4545 23.0542 16.995 23.0432 16.9953C22.2884 17.0126 20.5463 16.2496 20.2264 15.4977C20.2216 15.4866 19.9273 13.9926 20.017 13.7865C20.3127 13.1065 21.0337 12.2399 21.7309 12.0376C22.4221 11.8372 23.3693 12.4076 24.0552 12.6263C24.1617 12.6601 24.265 12.7864 24.3413 12.8699C24.6705 13.2298 24.8983 13.8913 24.9864 14.3768C25.0417 14.6817 24.918 15.1076 24.7988 15.3926Z" fill="#6E6EFF"/>
<path d="M24.9308 14.8446C24.9226 14.8639 23.7936 16.8447 23.0009 16.9875C22.801 17.0235 22.5218 16.9331 22.3395 16.8442C21.6421 16.5042 20.6088 16.1434 20.0908 15.5685C19.9468 15.4087 20.0159 13.6932 20.0211 13.6808C20.2842 13.0433 20.9817 12.2321 21.6516 12.0515C22.4079 11.8475 23.5765 12.2304 24.1713 12.7371C24.1836 12.7475 25.2819 14.022 24.9308 14.8446Z" fill="#7272FF"/>
<path d="M22.4501 15.9672C22.4382 15.9778 22.4207 15.9926 22.4046 15.9954C22.3031 16.013 20.1681 14.801 20.1594 14.7866C19.896 14.3465 19.9967 13.5671 20.1902 13.0946C20.3614 12.6762 20.8359 12.1474 21.2875 12.0299C21.8002 11.8966 22.5673 12.1747 22.9955 12.4764C23.437 12.7876 24.0167 13.4155 23.9996 13.9416C23.9752 14.6954 23.0231 15.4517 22.4501 15.9672Z" fill="#7777FF"/>
<path d="M22.8121 15.9821C22.2458 16.0834 21.4194 15.5954 21.1363 15.1606C20.8713 14.7535 21.0478 14.053 21.2024 13.6057C21.2848 13.3675 21.5992 13.0809 21.8774 13.0162C22.1948 12.9423 22.6863 13.0775 22.9353 13.2626C23.3615 13.5796 24.0126 14.1094 23.9998 14.5945C23.9862 15.1118 23.3997 15.8771 22.8121 15.9821Z" fill="#7A7AFF"/>
<path d="M22.2171 15.9841C21.8444 16.069 21.2962 15.6667 21.1142 15.3065C20.8433 14.7692 21.1275 13.8754 21.2187 13.2721C21.2355 13.1616 21.3616 13.0355 21.462 13.0062C21.577 12.9725 21.766 13.0217 21.8458 13.1171C22.2426 13.5904 23.0076 14.2034 22.9999 14.8407C22.995 15.2668 22.6047 15.896 22.2171 15.9841Z" fill="#7E7EFF"/>
<path d="M22.6142 14.9925C22.4304 15.0156 22.1601 14.9056 22.0715 14.8071C21.878 14.592 22.1354 14.2391 22.1628 13.9956C22.414 14.201 23.001 14.4261 23 14.6801C22.9996 14.7964 22.8055 14.9685 22.6142 14.9925Z" fill="#8282FF"/>
</g>
</svg>
