<svg width="49" height="49" viewBox="0 0 49 49" fill="none" xmlns="http://www.w3.org/2000/svg">
<g id="Group">
<path id="Vector" d="M23.5423 0.0199127C19.1078 0.173885 14.7608 1.56798 11.0258 4.03158C5.51708 7.66455 1.70717 13.3242 0.437203 19.762C0.10826 21.439 0 22.5834 0 24.506C0 26.1124 0.0374745 26.7033 0.229011 28.0225C1.20751 34.8764 5.14234 41.0729 10.9467 44.9264C14.5193 47.2943 18.3833 48.6093 22.772 48.9547C23.5257 49.0172 25.4202 49.013 26.2488 48.9547C30.4959 48.6468 34.5973 47.2444 38.0949 44.8973C43.916 40.9938 47.7717 34.8973 48.771 28.0225C48.9584 26.7491 49 26.0666 49 24.4852C49 22.9039 48.9584 22.2963 48.771 20.9896C47.3303 10.9022 39.6272 2.67077 29.6423 0.535934C28.3599 0.265438 26.8817 0.0740128 25.7367 0.0365562C25.3869 0.0240746 24.9455 0.00742722 24.7498 0.00326538C24.5541 -0.00505829 24.0128 0.00326538 23.5423 0.0199127ZM24.6124 1.2309C24.5958 1.64289 24.5833 2.23382 24.5833 2.54177V3.09525H24.3584C24.1502 3.09525 24.1336 3.10357 24.0836 3.22009L24.0337 3.34493L23.8879 3.25754C23.7588 3.17431 23.7297 3.17431 23.5798 3.22009C23.4924 3.24922 23.4174 3.28667 23.4174 3.29916C23.4174 3.3158 23.5048 3.37822 23.6173 3.44481C23.7838 3.54052 23.8421 3.61543 24.0003 3.91089C24.1461 4.18555 24.2335 4.29791 24.3876 4.41027L24.5833 4.55176V5.26754C24.5833 5.66288 24.5708 6.39529 24.5541 6.89051L24.5291 7.79771H23.9004C22.9594 7.79771 19.2244 7.6479 19.1786 7.61045C19.1203 7.55635 20.1238 5.37157 20.5527 4.62251C21.4562 3.03282 22.6096 1.69699 23.738 0.939598C24.0045 0.760654 24.5333 0.473515 24.5999 0.473515C24.6208 0.473515 24.6249 0.785625 24.6124 1.2309ZM25.8866 0.735687C26.1447 0.860531 26.5028 1.07693 26.686 1.21426C27.3397 1.70115 28.0767 2.51264 28.6222 3.34493L28.8804 3.74027L28.668 3.75276C28.4432 3.76524 28.3557 3.73195 28.0851 3.54052C27.956 3.44481 27.8102 3.40319 27.3439 3.3158L26.7651 3.21177L26.3779 3.36158C26.1614 3.44481 25.9823 3.50723 25.9823 3.50307C25.7866 3.14102 25.7033 3.09525 25.2245 3.09525H24.958V1.78022V0.465191L25.187 0.481834C25.3619 0.498482 25.541 0.560905 25.8866 0.735687ZM22.1558 0.581711C22.1433 0.594196 21.9184 0.677425 21.6603 0.764816C20.1779 1.26003 18.5707 2.04655 17.2591 2.9163C15.6435 3.99412 14.3944 5.14685 12.9037 6.9571C12.8787 6.98623 11.5796 6.69909 11.1383 6.56592C10.4929 6.37033 9.94324 6.09983 9.74754 5.8876C9.66426 5.79188 9.59347 5.70033 9.59347 5.67952C9.59347 5.65455 9.80583 5.47977 10.064 5.28834C13.5408 2.68326 17.434 1.13519 21.856 0.60252C22.0184 0.581711 22.1558 0.565063 22.1641 0.560905C22.1724 0.560905 22.1724 0.569225 22.1558 0.581711ZM23.5423 0.61084C23.5423 0.619164 23.3674 0.756493 23.1592 0.914631C21.6186 2.0632 20.1321 4.24381 19.0412 6.96542L18.7997 7.56883L18.4125 7.55635C17.5714 7.53138 15.1439 7.29834 13.9655 7.12772C13.6574 7.0861 13.3909 7.04865 13.3742 7.04865C13.2993 7.04865 13.3576 6.9571 13.6407 6.62834C15.885 4.01493 18.5874 2.17139 21.7227 1.11854C22.4889 0.860531 23.5423 0.569225 23.5423 0.61084ZM27.7686 0.681587C31.4703 1.18097 35.1469 2.62083 38.2407 4.78481C38.8569 5.21344 39.8645 5.99995 39.8645 6.04573C39.8645 6.06654 39.7854 6.15393 39.6897 6.23716C39.3357 6.56176 38.3989 6.903 37.1955 7.15268L36.5127 7.29417L36.3794 7.1402L36.2462 6.98623L36.4127 6.96126C36.5293 6.94461 36.6126 6.903 36.6792 6.81561C36.7333 6.74902 36.775 6.67828 36.7708 6.66163C36.7667 6.64082 36.5043 6.5243 36.1879 6.40362L35.6174 6.18306L34.8804 5.44232C32.8152 3.36574 30.4959 1.86345 27.7686 0.848045C27.448 0.727364 27.1773 0.623325 27.1649 0.61084C27.1524 0.598358 27.2107 0.60252 27.2898 0.615002C27.3689 0.627487 27.5854 0.656616 27.7686 0.681587ZM28.2058 1.39736C30.0212 2.13394 31.7118 3.14934 33.2982 4.46021C33.6896 4.78064 35.0761 6.1248 35.0761 6.1789C35.0761 6.19555 35.0178 6.22051 34.9471 6.23716C34.7014 6.29126 34.7514 6.47853 35.0262 6.52846C35.4426 6.60337 35.4842 6.62418 35.784 6.97374C35.9422 7.16101 36.0671 7.32331 36.0546 7.33163C36.0172 7.36908 35.6966 7.1402 35.6757 7.05697C35.6466 6.9571 35.6133 6.94461 35.5508 7.00287C35.53 7.02368 35.3093 7.06945 35.0595 7.10691L34.6056 7.16933L34.3516 7.04033C34.2101 6.96958 34.0435 6.85306 33.9811 6.77399C33.877 6.64915 33.8561 6.64082 33.7604 6.68244C33.6479 6.73238 33.6355 6.77399 33.598 7.16517C33.5563 7.58548 33.5355 7.61461 33.2774 7.64374L33.0567 7.66455L32.2406 7.14853C31.641 6.76567 31.3911 6.6325 31.2954 6.6325C31.2204 6.6325 31.1621 6.64915 31.1621 6.67411C31.1621 6.69909 31.0497 6.71573 30.9123 6.71573C30.7124 6.71573 30.6583 6.69909 30.6208 6.63666C30.5625 6.52014 30.5709 6.42443 30.6375 6.42443C30.6708 6.42443 30.7458 6.40778 30.804 6.38281L30.9081 6.34536L30.8207 6.12896C30.7374 5.93753 30.7083 5.9084 30.4918 5.81269C30.2669 5.71281 30.2503 5.70033 30.142 5.43399C29.9713 5.03033 29.4966 4.094 29.2301 3.64456C28.618 2.61251 27.9352 1.78022 27.144 1.10606L26.9358 0.927113L27.3106 1.06028C27.5188 1.13103 27.9185 1.285 28.2058 1.39736ZM29.455 4.82226C29.634 5.18847 29.838 5.62126 29.9047 5.78772L30.0296 6.08735L29.8797 6.10815C29.7964 6.12064 29.5216 6.14145 29.2676 6.15393C29.0178 6.16642 28.7305 6.18722 28.6347 6.19971C28.4681 6.22467 28.464 6.22884 28.5056 6.3412C28.5431 6.45356 28.5639 6.46188 28.8637 6.49101C29.0386 6.50766 29.4008 6.50766 29.6715 6.49101C30.1295 6.46604 30.1628 6.4702 30.2045 6.54511C30.2919 6.71157 30.2711 6.71573 29.43 6.71573H28.6139L28.0184 7.27753L27.4272 7.83933H26.4528C25.9157 7.83933 25.3536 7.82684 25.1995 7.8102L24.9164 7.78523V6.29542C24.9164 5.47145 24.9247 4.80145 24.933 4.80145C24.9414 4.80145 25.0163 4.83058 25.0954 4.86387C25.187 4.90133 25.3786 4.92629 25.5826 4.92629C25.9032 4.92629 25.9199 4.93045 26.0739 5.07195C26.2363 5.2176 26.6111 5.34244 26.8859 5.34244C27.0566 5.34244 27.194 5.42567 27.6062 5.7794C27.9893 6.10815 28.0642 6.13728 28.3016 6.03325C28.5223 5.93753 28.6055 5.85847 28.5514 5.79604C28.464 5.68368 28.4598 5.49226 28.5472 5.32996C28.5931 5.2384 28.6222 5.1635 28.6139 5.15517C28.6055 5.14685 28.4973 5.09692 28.3682 5.03865C28.1642 4.95126 28.1225 4.90965 28.0226 4.71406C27.9643 4.59338 27.9143 4.43108 27.9143 4.36033C27.9143 4.22717 27.9227 4.223 28.1142 4.19804C28.5889 4.13977 28.8887 4.08984 28.9511 4.05238C29.0427 3.99828 29.0719 4.04406 29.455 4.82226ZM10.0931 6.54095C10.5553 6.76151 11.2132 6.96542 11.9877 7.13604C12.3333 7.21095 12.6206 7.27753 12.6289 7.28585C12.6372 7.29001 12.5956 7.36908 12.5331 7.45231C12.0501 8.10566 11.2382 9.42485 10.9051 10.0865C10.8218 10.2571 10.7469 10.4028 10.7385 10.4111C10.7344 10.4153 10.6677 10.3945 10.5886 10.3612C10.5095 10.3321 10.3346 10.2904 10.1931 10.2738L9.93907 10.2447L9.28951 9.32082C8.93142 8.81311 8.60665 8.36784 8.56501 8.33038C8.52337 8.29709 8.24856 8.13063 7.94876 7.96417C7.65313 7.79771 7.39913 7.65206 7.39081 7.64374C7.36582 7.62293 8.26105 6.77815 8.82316 6.29126L9.27702 5.89592L9.50603 6.13312C9.67259 6.30375 9.83914 6.42027 10.0931 6.54095ZM40.6057 6.66995C40.8264 6.87387 41.0637 7.09859 41.1304 7.16933L41.2553 7.29834H39.7605C38.9402 7.29834 38.2781 7.29001 38.2865 7.27753C38.2989 7.26921 38.503 7.19014 38.7403 7.10691C39.2983 6.91548 39.7646 6.67411 39.9728 6.4702C40.0602 6.38281 40.1477 6.3079 40.1685 6.30375C40.1852 6.30375 40.3809 6.46604 40.6057 6.66995ZM13.9447 7.48144C14.9731 7.62709 16.4638 7.78107 17.6089 7.86014C18.1377 7.89759 18.5874 7.93504 18.6165 7.94337C18.6498 7.95585 18.5998 8.1556 18.4583 8.57591C18.0252 9.86181 17.6547 11.3058 17.2966 13.0828L17.1009 14.0607L16.8968 14.0524C16.7844 14.0483 16.4763 14.0316 16.2098 14.0191L15.7268 13.99L15.6477 13.861C15.6061 13.7861 15.5602 13.6238 15.5478 13.4989C15.5269 13.2784 15.5228 13.2701 15.377 13.2284C15.2896 13.2076 15.1855 13.1535 15.1439 13.1119C15.0356 13.0162 14.9856 13.0204 14.8815 13.1327C14.7983 13.2201 14.7941 13.2576 14.8191 13.5364L14.8482 13.8443L14.6858 13.8152C14.3028 13.7486 14.3069 13.7528 14.2695 13.5905C14.2445 13.4865 14.2486 13.3699 14.282 13.2284C14.3486 12.9704 14.4069 12.4045 14.3902 12.1964C14.3777 12.0716 14.3486 12.0216 14.2445 11.9592C14.0321 11.8302 13.9822 11.8468 13.9447 12.0716C13.928 12.1839 13.9197 12.3254 13.9239 12.3961C13.9447 12.8747 13.9364 12.9704 13.8614 13.0245C13.8198 13.0578 13.7407 13.0828 13.6949 13.0828C13.6199 13.0828 13.5908 13.1286 13.5283 13.3366C13.4409 13.6155 13.3867 13.6654 13.0869 13.7486C12.9287 13.7902 12.7497 13.7861 12.1292 13.732C11.2507 13.6529 11.0425 13.6279 10.9759 13.5863C10.9509 13.5697 10.8926 13.3283 10.8468 13.0453C10.801 12.7624 10.7552 12.5252 10.7427 12.5127C10.7344 12.5002 10.6719 12.5168 10.6094 12.5501C10.5095 12.5959 10.4804 12.6542 10.4054 12.9579L10.318 13.3117L10.1181 13.3491C10.0099 13.3658 9.91409 13.3741 9.90576 13.3658C9.89327 13.3574 9.9932 13.062 10.1223 12.7166C10.4054 11.9634 10.4137 11.955 10.8301 12.1631C10.9759 12.2338 11.1216 12.2921 11.1549 12.2921C11.1882 12.2921 11.2882 12.1506 11.3798 11.9675L11.5421 11.6429L11.4755 11.2018L11.4131 10.7607L11.2299 10.6733L11.0508 10.5859L11.2007 10.2863C11.7587 9.171 12.9828 7.31498 13.1244 7.3566C13.1619 7.36908 13.5325 7.42318 13.9447 7.48144ZM37.6702 7.46896C37.6244 7.51473 36.8916 7.64374 36.7875 7.62293C36.75 7.61461 36.9082 7.56883 37.1372 7.51889C37.6327 7.41486 37.7327 7.40654 37.6702 7.46896ZM34.9221 7.49393C34.8929 7.50225 34.843 7.50225 34.818 7.49393C34.7888 7.48144 34.8097 7.47312 34.8679 7.47312C34.9262 7.47312 34.9471 7.48144 34.9221 7.49393ZM36.4127 7.76442C36.4585 7.82684 36.4877 7.92672 36.4918 8.03492V8.21386H36.1088H35.7215L35.6507 8.0474L35.58 7.88094L35.2968 7.87678C34.9346 7.87678 35.0553 7.81852 35.5175 7.77691C35.7465 7.7561 35.8881 7.76442 35.9464 7.79355C36.0172 7.83101 36.0338 7.83101 36.0338 7.78107C36.0338 7.6479 36.3045 7.63958 36.4127 7.76442ZM30.2461 7.7561C30.2461 7.77691 30.2003 7.79771 30.142 7.79771C30.0837 7.79771 30.0379 7.77691 30.0379 7.7561C30.0379 7.73113 30.0837 7.71449 30.142 7.71449C30.2003 7.71449 30.2461 7.73113 30.2461 7.7561ZM34.5557 7.9184C34.5307 7.93504 34.4099 8.0266 34.2808 8.12231L34.0518 8.28877L33.8103 8.14312C33.6813 8.06405 33.5772 7.98914 33.5855 7.98498C33.5938 7.97666 33.777 7.95585 33.9935 7.94337C34.2101 7.92672 34.3974 7.90591 34.4058 7.89759C34.4141 7.88927 34.4599 7.88094 34.5099 7.88094C34.5598 7.88094 34.5765 7.89759 34.5557 7.9184ZM20.6485 8.0474C21.1065 8.06821 21.9975 8.09734 22.6263 8.10983C23.255 8.12231 23.9462 8.14312 24.1627 8.1556L24.5541 8.18057L24.525 11.2268C24.5083 12.8997 24.4833 14.2771 24.475 14.2855C24.4334 14.3271 18.5707 14.1648 17.7671 14.0982L17.4673 14.0732L17.4881 13.9442C17.6213 13.1993 17.8837 11.9758 18.071 11.2184C18.2876 10.3237 18.7539 8.72989 18.9121 8.30957C18.9538 8.20138 19.0037 8.07653 19.0162 8.03492C19.0412 7.96417 19.0829 7.96001 19.4326 7.98082C19.6408 7.99746 20.1904 8.0266 20.6485 8.0474ZM30.6 8.42194C30.7083 8.63833 30.7666 8.71324 30.829 8.71324C30.879 8.71324 30.929 8.75485 30.9539 8.81311C30.9873 8.90883 31.4203 10.6442 31.4744 10.9063C31.5161 11.1144 31.4286 11.0728 31.3703 10.8564C31.3204 10.6816 31.312 10.6733 31.1247 10.6442C31.0206 10.6317 30.8457 10.5817 30.7374 10.536L30.5417 10.4527L30.3085 10.5401C30.1795 10.5901 29.9921 10.6275 29.8922 10.6275C29.7048 10.6275 29.7048 10.6275 29.7048 10.7732C29.7048 10.8814 29.7423 10.9604 29.8505 11.0811C29.9296 11.1685 29.9963 11.2642 29.9963 11.2934C29.9963 11.3683 29.8047 11.6138 29.6798 11.6929C29.584 11.7594 29.5716 11.7511 29.2384 11.5056C28.847 11.2143 28.8804 11.206 28.6638 11.6304C28.5348 11.8843 28.439 12.2338 28.3849 12.6666L28.3515 12.9371L28.0976 13.062C27.8561 13.1827 27.8477 13.191 27.8727 13.3117C27.9268 13.5614 27.9976 13.6238 28.4973 13.8735C28.7721 14.0108 28.9969 14.144 28.9969 14.1648C28.9969 14.1897 28.8637 14.2064 28.6847 14.2064C28.4307 14.2064 28.3307 14.1856 28.1642 14.1024C28.0518 14.0441 27.9518 13.9983 27.9393 13.9983C27.931 13.9983 27.9102 14.0441 27.8977 14.0982C27.881 14.1648 27.8352 14.2064 27.7603 14.223C27.6937 14.2314 27.015 14.248 26.2488 14.2563L24.8539 14.2688L24.8664 11.3974C24.8747 9.81603 24.8872 8.4469 24.9039 8.34703L24.9247 8.17225H26.153H27.3814L27.3564 8.30542C27.3439 8.38032 27.3231 8.56759 27.3064 8.72156L27.2773 9.00454L28.0601 9.81603C28.489 10.2655 28.8595 10.6234 28.8762 10.6192C28.897 10.6109 29.2426 10.3487 29.6423 10.0324C30.3502 9.47479 30.3668 9.45815 30.321 9.35411C30.2794 9.26255 30.2544 9.25007 30.1462 9.27504C29.7048 9.36659 29.7714 9.39572 29.3009 8.89634L28.8762 8.44274L28.9511 8.3179C29.0219 8.19722 29.0303 8.19305 29.4383 8.16809C29.6632 8.1556 29.9879 8.14312 30.1503 8.13895L30.4543 8.13063L30.6 8.42194ZM31.6743 8.84641C31.9949 8.95044 32.2197 9.1502 32.1948 9.30833C32.1823 9.3874 32.1573 9.39988 31.9741 9.39988C31.8408 9.39988 31.7201 9.42901 31.6451 9.47479C31.5827 9.5164 31.5244 9.54554 31.5161 9.53721C31.4703 9.49144 31.3079 8.75485 31.3412 8.75485C31.3662 8.75485 31.5161 8.79647 31.6743 8.84641ZM32.8693 10.0033C33.3148 10.203 33.369 10.2197 33.6521 10.2114L33.9602 10.2072L34.6681 10.7149L35.3759 11.2184L35.2635 11.335C35.1802 11.4224 35.1428 11.5222 35.1053 11.7511L35.0595 12.0507L34.5057 12.4461C33.9727 12.8248 33.9436 12.8414 33.7604 12.8248L33.573 12.8123L33.5855 12.9579C33.598 13.087 33.6146 13.1036 33.7229 13.1161C34.0935 13.1452 34.1185 13.1619 34.1185 13.3158C34.1185 13.4865 34.0435 13.6488 33.8936 13.7861L33.7854 13.886L33.5355 13.8111C33.3107 13.7445 33.2857 13.7237 33.2857 13.6279C33.2857 13.424 33.1566 13.0204 33.065 12.933C33.015 12.8872 32.8402 12.7957 32.6736 12.7332C32.5112 12.6708 32.3572 12.5959 32.3363 12.5709C32.3155 12.5418 32.2822 12.4378 32.2656 12.3337C32.2073 11.9634 32.0823 11.5347 32.0074 11.4515C31.9616 11.4016 31.8783 11.1227 31.7825 10.7066C31.6493 10.0948 31.641 10.0449 31.7159 10.0699C31.7701 10.0865 31.8533 10.0366 31.9949 9.90342C32.1698 9.74112 32.2156 9.71616 32.2947 9.74945C32.3488 9.77026 32.607 9.88261 32.8693 10.0033ZM8.79402 10.7191L8.92726 10.8606L8.80235 11.285L8.67327 11.7095L8.75654 11.8302C8.83566 11.9384 8.83566 11.955 8.77736 12.005C8.74405 12.0341 8.69825 12.0882 8.67327 12.1298C8.63996 12.1964 8.67327 12.2172 8.95641 12.3046C9.25204 12.392 9.28119 12.4128 9.29368 12.5168C9.30201 12.5917 9.26869 12.6916 9.19375 12.7957C9.13129 12.8872 9.08965 12.9704 9.10214 12.9829C9.11463 12.9954 9.22706 13.0162 9.35197 13.0287C9.61846 13.0537 9.62262 13.0537 9.66426 12.6167C9.68508 12.3587 9.70173 12.3212 9.79334 12.2879C9.85163 12.2671 9.9016 12.2547 9.90576 12.2588C9.90993 12.2671 9.81416 12.5335 9.69341 12.8539L9.47689 13.4365L9.3145 13.4324C9.22706 13.4324 8.9689 13.4074 8.73572 13.3783C8.40262 13.3366 8.2777 13.2992 8.12364 13.2035C7.92794 13.0828 7.92794 13.0828 7.92794 12.8539C7.92794 12.7041 7.91128 12.6167 7.87797 12.6042C7.84883 12.5959 7.68227 12.546 7.51156 12.4919L7.20343 12.3961L7.09101 12.0133L6.98275 11.6304L7.11183 11.6055C7.18261 11.5888 7.36999 11.5472 7.52405 11.5139L7.81135 11.4515L8.0362 11.1061C8.16111 10.9147 8.26105 10.744 8.26105 10.7191C8.26105 10.6983 8.11948 10.5651 7.94876 10.4194C7.77804 10.2738 7.63647 10.1531 7.63647 10.1489C7.63647 10.1448 7.65729 10.0782 7.68227 9.99914C7.70726 9.92007 7.7364 9.83268 7.74473 9.79939C7.76139 9.74945 8.39845 10.3112 8.79402 10.7191ZM44.4239 11.0478C44.5697 11.2559 44.5738 11.2601 44.5031 11.3683C44.3906 11.5389 43.9493 11.9176 43.8577 11.9176C43.841 11.9176 43.816 11.7553 43.7994 11.5514C43.7827 11.3516 43.7619 11.1602 43.7536 11.1227C43.7411 11.077 43.8077 11.027 43.9951 10.9521C44.1408 10.8897 44.2616 10.8398 44.2657 10.8398C44.2657 10.8356 44.3407 10.9313 44.4239 11.0478ZM45.1943 12.2588C46.3018 14.119 47.272 16.4536 47.8008 18.526C47.9424 19.0753 47.9549 19.1669 47.9007 19.2002C47.8508 19.2335 46.5766 19.6621 46.1228 19.8036C45.9854 19.841 46.002 19.7578 46.1728 19.504L46.3185 19.2876V18.243V17.1985L45.5024 16.1332C44.7113 15.1094 44.6821 15.0595 44.6196 14.7848C44.5822 14.6142 44.5364 14.4977 44.5031 14.4977C44.4739 14.4977 44.4239 14.4894 44.3906 14.4769C44.349 14.4561 44.3365 14.481 44.3532 14.5768C44.3657 14.6683 44.3532 14.7141 44.299 14.7307C44.1991 14.7682 44.0284 14.6808 44.0284 14.5892C44.0284 14.5476 44.095 14.2896 44.1741 14.015C44.2532 13.7445 44.3199 13.5156 44.3199 13.5073C44.3199 13.5031 44.2407 13.5031 44.145 13.5073C43.9867 13.5197 43.9659 13.5114 43.9784 13.4365C44.0409 12.9455 44.0367 12.7873 43.9701 12.7124C43.9326 12.6708 43.891 12.5709 43.8785 12.4919C43.8535 12.3504 43.8577 12.342 44.2074 12.109C44.4031 11.98 44.6072 11.8177 44.6613 11.7511C44.7154 11.6845 44.7695 11.6304 44.7862 11.6304C44.8029 11.6263 44.9861 11.9134 45.1943 12.2588ZM13.7365 14.2064C14.3319 14.2522 15.3146 14.3146 15.9225 14.352C16.5263 14.3895 17.0301 14.4269 17.0342 14.4311C17.0426 14.4394 17.0009 14.7391 16.9426 15.1053C16.672 16.8573 16.4721 18.784 16.3181 21.1436L16.2889 21.5722L16.0932 21.568C15.6685 21.5556 15.6768 21.5639 15.5269 21.0479C15.3979 20.5943 15.3895 20.5818 15.0106 20.124C14.6942 19.7412 14.6067 19.6579 14.5151 19.6579C14.4527 19.6579 14.1321 19.6787 13.8031 19.6995L13.2035 19.7412L12.2625 19.3458L11.3215 18.9546L10.8218 18.9921C10.547 19.0129 10.2639 19.0337 10.1931 19.0337H10.064L9.9932 19.583C9.87661 20.4944 9.92658 20.3945 9.56849 20.4278C9.37279 20.4486 9.22289 20.4861 9.1646 20.5318C9.07716 20.6026 9.04385 20.6026 8.74405 20.5485C8.56501 20.5194 8.41094 20.4861 8.40262 20.4819C8.38596 20.4653 8.5775 18.8714 8.64412 18.4677C8.69825 18.1515 8.70241 18.1473 8.85648 18.0932C8.94392 18.0641 9.09381 17.9725 9.19375 17.8893C9.31866 17.7853 9.45607 17.727 9.6601 17.6771L9.9474 17.6105L10.3013 17.1569C10.497 16.903 10.6844 16.6741 10.7177 16.6409C10.7718 16.5909 10.8301 16.6117 11.1507 16.7907L11.5172 16.9987L11.9752 16.9904C12.3374 16.9821 12.4415 16.9904 12.4665 17.0404C12.4832 17.0736 12.6247 17.444 12.7746 17.8685C12.9287 18.293 13.0744 18.68 13.0994 18.7299C13.1702 18.8756 13.649 19.2418 13.7656 19.2418C13.8239 19.2418 14.0155 19.2043 14.1945 19.1585C14.6067 19.0545 14.64 19.0545 14.7566 19.1794C14.8774 19.3042 14.9357 19.3084 15.0939 19.196L15.2147 19.1128V18.5426C15.2105 18.2181 15.1855 17.856 15.1522 17.702C15.1189 17.5356 15.1064 17.3275 15.1189 17.1527C15.1314 16.9946 15.1314 16.8697 15.1147 16.8697C15.0981 16.8697 14.8482 16.8406 14.5651 16.8073C14.0446 16.7407 13.9072 16.7532 13.52 16.8989C13.4783 16.9155 13.4658 16.8156 13.4658 16.4827C13.4658 16.025 13.5075 15.8294 13.6032 15.8294C13.7323 15.8294 13.7948 15.7212 13.8198 15.4507L13.8489 15.176L13.3784 15.1219C13.1161 15.0928 12.8829 15.0595 12.8579 15.0428C12.8329 15.0304 12.6081 14.8056 12.3583 14.5435L11.9044 14.0691L12.2791 14.0982C12.4873 14.1107 13.1411 14.1606 13.7365 14.2064ZM19.8781 14.5393C20.5319 14.5643 21.831 14.5934 22.7637 14.6101C23.9296 14.6267 24.4709 14.6517 24.4833 14.6808C24.5083 14.7515 24.4417 22.1049 24.4167 22.1298C24.3668 22.1756 21.1564 22.0175 19.4409 21.8843C18.0377 21.7761 16.6928 21.6471 16.6637 21.618C16.6179 21.5722 16.7844 19.3125 16.9468 17.8061C17.0551 16.7782 17.3507 14.6225 17.3965 14.4769C17.4048 14.4478 17.6338 14.4436 18.0502 14.4644C18.4041 14.481 19.2244 14.5143 19.8781 14.5393ZM31.2912 14.5768C31.337 14.6309 31.3703 14.7183 31.3703 14.7682C31.3703 14.8514 31.337 14.8722 31.1621 14.9097C31.0455 14.9346 30.8957 14.9555 30.829 14.9555C30.7666 14.9555 30.6833 14.9679 30.6458 14.9804C30.5459 15.0179 30.5667 15.176 30.6833 15.2884C31.0039 15.5922 30.5667 15.9792 30.1795 15.7378C29.9463 15.5922 29.838 15.5714 29.7881 15.6629C29.7339 15.7669 29.7339 15.7878 29.8006 15.7878C29.8297 15.7878 29.9296 15.8627 30.0171 15.9584C30.1087 16.0499 30.2544 16.1664 30.3419 16.2081C30.5084 16.2954 31.0747 16.412 31.3204 16.412C31.5077 16.412 31.4744 16.3287 31.2537 16.2538C31.0664 16.1914 31.0081 16.0915 31.0747 15.9584C31.1788 15.7711 31.2746 15.8127 32.2989 16.4744C32.3655 16.5202 32.4737 17.5481 32.5987 19.325C32.7236 21.1519 32.7527 21.9592 32.6944 21.9967C32.6653 22.0133 32.5362 22.03 32.4113 22.03C32.2864 22.03 31.8908 22.0508 31.5369 22.0716C30.2669 22.1465 27.1399 22.2047 25.9615 22.1756L24.7831 22.1465L24.8123 18.4136C24.8289 16.362 24.8539 14.6725 24.8706 14.66C24.8831 14.6433 25.6242 14.6184 26.5195 14.6017L28.1434 14.5726L28.0642 14.66C28.0184 14.7099 27.9143 14.7682 27.8269 14.7932L27.6728 14.8431L27.627 15.2218C27.5771 15.5922 27.6021 15.7836 27.6937 15.8419C27.7145 15.8543 27.8144 15.846 27.9143 15.8252C28.1184 15.7794 28.3765 15.5256 28.414 15.3341C28.4348 15.226 28.4432 15.226 28.8637 15.2051L29.2926 15.1843L29.101 14.9971C28.9553 14.8514 28.9137 14.7848 28.9137 14.6766C28.9137 14.5435 28.9178 14.5393 29.0927 14.5351C29.1885 14.531 29.5216 14.5143 29.8297 14.4977C30.1378 14.481 30.575 14.4686 30.804 14.4727C31.1788 14.481 31.2204 14.4894 31.2912 14.5768ZM3.93066 16.0166C4.10138 16.1914 4.13052 16.2039 4.32622 16.2039C4.50527 16.1997 4.56773 16.1748 4.78008 16.0208L5.02991 15.8419L5.19647 15.9417C5.30472 16.0083 5.45462 16.1706 5.60868 16.3912C5.8252 16.7074 5.85019 16.7699 5.89599 17.0695C5.93346 17.3525 5.95845 17.4107 6.03756 17.4565C6.11251 17.494 6.13749 17.5439 6.13749 17.6438C6.13749 17.7728 6.16247 17.7936 6.51224 18.0017C6.90364 18.2264 6.93695 18.2805 6.83702 18.4636C6.80787 18.5135 6.78705 18.7091 6.78289 18.8964V19.2418H7.08268H7.38248L7.2992 18.9505C7.25756 18.7923 7.22009 18.6425 7.22009 18.6217C7.22009 18.6009 7.37831 18.4802 7.57401 18.3471L7.92794 18.1099L8.00705 17.8352C8.04869 17.6812 8.10699 17.4773 8.13197 17.3858C8.16528 17.2568 8.21941 17.186 8.34849 17.1028C8.44009 17.0404 8.52337 16.9946 8.5317 17.0029C8.54002 17.0112 8.51088 17.2027 8.46508 17.4315C8.41094 17.7312 8.36514 17.8685 8.30269 17.9184C8.20692 17.9975 8.19026 18.1182 8.28187 18.1182C8.35682 18.1182 8.35682 18.0807 8.28187 18.5468C8.22774 18.8797 8.05286 20.2821 8.05286 20.382C8.05286 20.4403 7.57818 20.3654 7.52405 20.2988C7.4949 20.253 7.39913 20.2364 7.21176 20.2364C7.05354 20.2322 6.28323 20.1032 5.29223 19.9035C4.37619 19.7245 3.62254 19.5747 3.61421 19.5747C3.58923 19.5747 3.59339 19.2085 3.62254 18.963L3.65168 18.7466L4.05557 18.963L4.45947 19.1794L4.9966 18.9754C5.29223 18.8631 5.67114 18.7091 5.8377 18.6342C6.11251 18.5094 6.13749 18.4885 6.13749 18.372C6.13749 18.1848 6.06254 18.0599 5.90015 17.9725C5.82104 17.9309 5.72944 17.8394 5.69613 17.7769C5.642 17.6687 5.61701 17.6604 5.38384 17.6604C5.09653 17.6604 4.99244 17.6146 4.39701 17.2235L3.98895 16.9571L3.53093 17.1444L3.07707 17.3317L2.59823 17.2984C2.12772 17.2651 2.11939 17.2651 2.11106 17.161C2.10274 17.1028 2.14021 16.9738 2.19434 16.8697L2.28594 16.6825L2.58574 16.6617C2.94383 16.6367 3.12704 16.5243 3.47264 16.1082C3.59755 15.9542 3.70998 15.8335 3.72247 15.8294C3.73496 15.8294 3.83073 15.9126 3.93066 16.0166ZM9.46023 16.9238C9.47272 17.1028 9.4644 17.1194 9.33948 17.186C9.26453 17.2235 9.11463 17.34 9.00221 17.4399C8.89395 17.5439 8.80235 17.6022 8.80235 17.573C8.80235 17.5064 8.93559 16.8156 8.95224 16.7948C8.96474 16.774 9.35614 16.7116 9.4061 16.7241C9.43108 16.7282 9.4519 16.8156 9.46023 16.9238ZM33.1816 17.5813C33.369 17.623 33.4398 17.6646 33.548 17.7936C33.623 17.8851 33.8103 18.0974 33.9727 18.268C34.2267 18.5468 34.2767 18.5801 34.3766 18.5593C34.4724 18.5385 34.4932 18.551 34.4932 18.6176C34.4932 18.7258 34.5682 18.7216 34.6889 18.6134C34.7972 18.5094 34.7805 18.4885 34.9221 18.9338L35.0137 19.2293L35.9131 20.0699L36.8166 20.9105L36.8416 21.1311C36.8749 21.3725 36.7916 21.6554 36.6917 21.6554C36.6626 21.6554 36.292 21.6929 35.8673 21.7387C35.0512 21.8261 33.1066 21.9925 33.0983 21.9759C33.0942 21.9717 33.0608 21.3683 33.0192 20.6317C32.9817 19.8993 32.9234 18.963 32.8901 18.551C32.8568 18.1431 32.8193 17.6646 32.8069 17.494L32.786 17.1818L32.8651 17.3566C32.9401 17.5148 32.9651 17.5314 33.1816 17.5813ZM48.1672 20.1906C48.5003 22.0175 48.6253 23.9401 48.5295 25.6921C48.5003 26.1831 48.4712 26.6242 48.4587 26.6742C48.442 26.7366 48.3005 26.8282 47.9507 26.9946C46.61 27.6396 44.7446 28.1765 42.2921 28.6259C41.8507 28.705 41.3843 28.784 41.2553 28.7965L41.0221 28.8257L41.0471 28.705C41.0762 28.5552 41.1803 27.5855 41.2428 26.8989C41.2678 26.6118 41.2886 26.3745 41.2969 26.3704C41.3011 26.3662 41.5176 26.2788 41.7799 26.179C42.0422 26.0791 42.4919 25.9043 42.7792 25.7878C43.0665 25.6713 43.3872 25.5464 43.4954 25.509C43.7661 25.4091 43.9451 25.2801 44.0367 25.1136C44.0825 25.0387 44.1824 24.8889 44.2574 24.7849C44.4323 24.5601 44.4364 24.5144 44.2949 24.3479C44.2074 24.2439 44.1908 24.1898 44.2074 24.0691C44.2407 23.8236 44.5197 23.1369 44.7113 22.8248L44.8903 22.5335L44.9153 21.98C44.9361 21.4515 44.9486 21.4057 45.1235 20.9521C45.2484 20.6275 45.3317 20.4694 45.3858 20.4486C45.5399 20.3903 45.7772 20.3695 45.7772 20.4112C45.7772 20.4361 45.7189 20.6816 45.6481 20.9563C45.5815 21.2351 45.4857 21.7137 45.4441 22.03C45.3691 22.5418 45.1734 23.2451 45.0277 23.4948C44.9944 23.5531 45.011 23.5697 45.136 23.5947C45.4025 23.6446 45.4607 23.5822 45.519 23.1869C45.594 22.6667 45.6689 22.4794 45.8896 22.2797C46.0562 22.1215 46.1936 21.8677 46.1936 21.7137C46.1936 21.6721 46.1394 21.6554 46.0062 21.6554C45.7814 21.6554 45.7689 21.6097 45.9104 21.2726C45.9771 21.1144 46.0104 20.9355 46.027 20.6234L46.0478 20.1906L46.6308 20.0117C46.9514 19.9118 47.3928 19.7661 47.6093 19.6871C47.8258 19.6121 48.0173 19.558 48.0298 19.5705C48.0465 19.583 48.1089 19.8618 48.1672 20.1906ZM5.15483 20.2405C5.95428 20.3987 6.61633 20.536 6.62466 20.5485C6.65381 20.5735 6.54555 20.6026 5.97927 20.7191C5.47544 20.819 5.46295 20.8231 5.19647 21.052C5.04657 21.1769 4.90083 21.2809 4.86752 21.2809C4.83838 21.2809 4.51776 21.0895 4.16383 20.8564C3.46015 20.3987 3.48097 20.4278 3.53926 20.0616C3.56008 19.9451 3.58506 19.9118 3.63503 19.9284C3.6725 19.9367 4.35537 20.0782 5.15483 20.2405ZM7.80303 20.7441C7.96958 20.7774 8.01122 20.8065 8.01122 20.8731C8.01122 20.9397 7.9904 20.9521 7.89879 20.9313C7.83217 20.923 7.69477 20.898 7.58651 20.8856C7.42412 20.8648 7.38664 20.8439 7.38664 20.7774C7.38664 20.6858 7.48657 20.6775 7.80303 20.7441ZM8.79402 20.9272C8.80651 20.9397 8.79818 20.9688 8.7732 20.9938C8.70658 21.0603 8.34432 20.9979 8.34432 20.9147C8.34432 20.8648 8.3818 20.8564 8.55668 20.8772C8.67743 20.8939 8.78153 20.9147 8.79402 20.9272ZM38.8236 21.102C39.0068 21.1519 39.0734 21.1893 39.0734 21.2434C39.0734 21.3267 39.0609 21.3308 38.2198 21.4474C37.8784 21.4931 37.5453 21.5389 37.4828 21.5514C37.3912 21.5639 37.3662 21.5556 37.3662 21.4973C37.3662 21.4432 37.4537 21.4057 37.7743 21.3308C38.0783 21.2601 38.199 21.2102 38.2698 21.1352C38.3739 21.0104 38.4822 21.0062 38.8236 21.102ZM40.7473 21.6471C40.9347 21.747 40.943 21.7595 40.9721 21.9842C41.0221 22.367 41.0179 25.1802 40.9638 25.2343C40.893 25.305 40.6557 25.2343 40.5807 25.1178C40.5433 25.0595 40.4558 24.8431 40.3809 24.6351C40.2268 24.1815 40.1893 24.1565 39.623 24.0982C39.1484 24.0483 39.1151 24.0649 39.19 24.3437C39.2192 24.4478 39.3066 24.6184 39.3815 24.7183C39.5523 24.943 39.6772 25.3966 39.6355 25.6463L39.6106 25.8086L39.1734 25.8627C38.7403 25.9126 38.7361 25.9168 38.682 26.0416C38.6321 26.1582 38.6362 26.1831 38.7278 26.308L38.8319 26.4453L38.682 27.1278C38.5987 27.5065 38.5321 27.8227 38.5321 27.8311C38.5321 27.8602 38.045 28.2306 38.0033 28.2306C37.9867 28.2306 37.9367 28.1723 37.8992 28.1016C37.8118 27.9517 37.7701 27.9601 37.3829 28.1723C37.2455 28.2514 37.1081 28.3138 37.0831 28.3138C37.0581 28.3138 36.8541 28.0808 36.6334 27.7936C36.4086 27.5065 36.2045 27.2734 36.1796 27.2734C36.1546 27.2734 35.9214 27.2443 35.6632 27.211L35.1927 27.1486L34.7472 27.4149L34.3058 27.6813L33.6688 27.6604L33.0275 27.6355L33.0525 27.2776C33.1108 26.4869 33.1566 24.2147 33.1316 23.2992L33.1066 22.3296L33.498 22.3005C33.7146 22.2838 34.3849 22.2256 34.9929 22.1715C35.6008 22.1132 36.217 22.0591 36.3669 22.0425L36.6376 22.0216L36.6501 22.2838C36.6626 22.5751 36.7209 22.8373 36.8041 22.9663C36.8458 23.037 36.8916 23.0495 37.0248 23.037L37.1872 23.0204L37.233 22.7457C37.258 22.5918 37.3121 22.3421 37.3538 22.1881L37.4287 21.9093L37.6369 21.8843C37.9783 21.8385 39.7438 21.5764 39.9478 21.5348C40.2185 21.4848 40.5224 21.5264 40.7473 21.6471ZM3.61837 22.2963L3.26445 22.8248V23.112C3.26445 23.4449 3.19366 23.5531 2.85223 23.7778C2.62738 23.9193 2.55659 24.0524 2.55659 24.3396C2.55659 24.5726 2.39837 24.8015 1.89454 25.3092C1.67386 25.5339 1.39488 25.8502 1.26997 26.0125C1.14505 26.179 1.02847 26.3038 1.01181 26.2955C0.978501 26.2705 0.820275 25.6921 0.791129 25.4632L0.770309 25.2967L1.21584 24.8931C1.46151 24.6725 1.74465 24.4187 1.84874 24.3271L2.03611 24.1565L1.86123 24.1815C1.7613 24.1939 1.68219 24.1939 1.68219 24.1815C1.68219 24.1648 1.8196 23.9442 1.99031 23.6821C2.24847 23.2826 2.35257 23.166 2.64403 22.933C2.83557 22.7832 3.09373 22.5418 3.21864 22.4045C3.43933 22.1507 3.9265 21.722 3.95564 21.7511C3.96397 21.7595 3.81407 22.005 3.61837 22.2963ZM16.1973 21.9467C16.2306 21.9467 16.2556 21.9759 16.2556 22.0092C16.2556 22.0674 16.2431 22.0674 16.1307 22.0092C16.0016 21.9426 15.9558 21.876 16.0724 21.9218C16.1099 21.9343 16.164 21.9467 16.1973 21.9467ZM17.9836 22.1132C19.7949 22.2755 21.8143 22.4003 23.6589 22.4711L24.4167 22.5002L24.4126 24.5851C24.4084 25.7295 24.3959 27.3442 24.3792 28.1681L24.3543 29.6663L23.6256 29.6538C22.0225 29.6247 18.4208 29.4873 17.13 29.4041L16.6928 29.375L16.6553 28.9755L16.6179 28.5718L17.1467 27.7021L17.6713 26.8365V25.4882V24.1398L17.1508 23.1869C16.8052 22.5543 16.6304 22.1881 16.6304 22.1049V21.98L16.851 22.005C16.9676 22.0175 17.4798 22.0674 17.9836 22.1132ZM41.6175 22.3712C41.8007 22.6375 41.9215 22.8956 41.9673 23.112C41.9839 23.191 42.0422 23.3575 42.1005 23.474C42.1921 23.6613 42.2005 23.7112 42.1588 23.8236C42.1338 23.8985 42.113 24.1398 42.113 24.3646V24.7682L41.9215 24.9388C41.7591 25.0803 41.4301 25.2343 41.3843 25.1844C41.376 25.176 41.3635 24.4644 41.3552 23.603C41.3385 21.8593 41.3219 21.9343 41.6175 22.3712ZM32.7694 22.7249C32.7985 23.1036 32.7527 26.4703 32.7069 27.211L32.6819 27.6272L32.5195 27.648L32.3572 27.6688L32.2281 28.0433L32.099 28.4137L31.6535 28.7341C31.2454 29.0254 31.1705 29.0629 30.8207 29.1461C30.6083 29.2002 30.2877 29.2876 30.1087 29.3417C29.8255 29.4291 29.7756 29.4582 29.7381 29.5664L29.6965 29.6871L27.2107 29.6788L24.729 29.6663L24.7415 27.211C24.7457 25.8585 24.7623 24.248 24.7748 23.6321L24.804 22.5085L26.4528 22.5252C27.9768 22.5377 30.5834 22.4794 31.7659 22.4087C32.0407 22.3879 32.3696 22.3712 32.5029 22.3712L32.7361 22.3629L32.7694 22.7249ZM0.724507 26.7324C0.703688 26.7699 0.66205 26.824 0.628739 26.8531C0.562118 26.9072 0.549626 26.8448 0.495496 26.129L0.470513 25.8377L0.616247 26.2539C0.712016 26.5285 0.74949 26.6908 0.724507 26.7324ZM40.8889 26.8656C40.8389 27.5314 40.689 28.834 40.6598 28.8631C40.6224 28.9047 39.7105 29.0337 38.5071 29.1627C37.029 29.325 36.8499 29.3334 36.8749 29.2668C36.8874 29.2335 36.9374 29.0837 36.9873 28.9297C37.0748 28.6675 37.0873 28.6509 37.2622 28.5926C37.4329 28.5344 37.4495 28.5344 37.5828 28.6259C37.8159 28.784 37.8701 28.784 38.2656 28.6217C38.986 28.3346 39.0193 28.3055 39.2441 27.8436L39.4398 27.4316L40.1394 26.9821C40.5266 26.7366 40.8597 26.5285 40.8805 26.5285C40.9013 26.5244 40.9055 26.6742 40.8889 26.8656ZM48.3171 27.8893C47.984 30.2114 47.2678 32.6126 46.2977 34.6725L46.0562 35.1802L45.6773 35.3009C44.7113 35.6089 43.1915 35.9792 41.7799 36.2456C40.9888 36.3954 39.2733 36.6784 39.1525 36.6784C39.0942 36.6784 39.1192 36.5868 39.2816 36.1457C39.9062 34.4936 40.4683 32.313 40.8264 30.1906C40.9138 29.6538 40.9929 29.2127 40.9971 29.2044C41.0054 29.2002 41.2636 29.1544 41.5717 29.1045C44.2324 28.6717 46.5642 28.0475 47.9924 27.3816C48.2047 27.2859 48.3879 27.2193 48.3921 27.2401C48.4004 27.2568 48.3671 27.5481 48.3171 27.8893ZM12.5123 29.0962C12.429 29.1045 12.2791 29.1003 12.1792 29.0837L12.0002 29.0545L12.1126 28.938L12.2209 28.8257L12.4415 28.9547L12.6622 29.0837L12.5123 29.0962ZM16.3097 29.092L16.3306 29.3542H16.1598C16.0641 29.3542 15.9142 29.3417 15.8309 29.3292L15.6768 29.3001L15.9766 29.0629C16.1432 28.9297 16.2806 28.8257 16.2806 28.8257C16.2848 28.8298 16.2972 28.9505 16.3097 29.092ZM40.614 29.3126C40.614 29.3334 40.5474 29.737 40.4683 30.2073C40.1394 32.1424 39.648 34.0733 39.0609 35.7212C38.782 36.4994 38.6737 36.7616 38.6237 36.7616C38.6029 36.7616 38.1949 36.8074 37.7202 36.8656C36.6667 36.9905 35.0137 37.1486 34.9262 37.1278C34.8846 37.1195 34.9679 37.0363 35.1511 36.8948C35.4092 36.6992 35.5508 36.5202 36.5876 35.0804C37.2205 34.2023 37.7493 33.4574 37.7618 33.4241C37.7826 33.3742 37.6702 33.0454 37.4745 32.5585C37.4537 32.5086 37.5203 32.4545 37.7202 32.3504C37.8701 32.2714 37.9908 32.1923 37.9908 32.1757C37.9908 32.159 37.6827 31.6596 37.308 31.0604C36.6459 30.0075 36.6251 29.9701 36.6667 29.8369C36.7084 29.6996 36.7209 29.6954 36.9665 29.6704C37.8992 29.5789 39.3441 29.4208 39.8021 29.3583C40.4516 29.2668 40.614 29.2585 40.614 29.3126ZM13.6949 29.5414C14.5443 29.5997 15.477 29.6621 15.7768 29.6788L16.3181 29.7079L16.3472 29.8744C16.3639 29.9659 16.4055 30.4445 16.443 30.9355C16.5637 32.5377 16.8219 34.6018 17.0884 36.1166C17.155 36.5036 17.2008 36.8282 17.1925 36.8365C17.1383 36.8948 10.8093 36.1291 10.1931 35.9917C10.1223 35.9751 10.0723 35.8544 9.89327 35.2968C9.56433 34.2522 9.34364 33.395 9.34364 33.1578C9.34364 32.9538 9.37279 32.8956 9.79334 32.2131L10.2472 31.4848L10.3013 30.6151C10.3305 30.1407 10.3721 29.7287 10.3929 29.7037C10.4137 29.6746 10.6469 29.6413 10.9675 29.6247C11.463 29.5955 11.5088 29.5872 11.6004 29.4915C11.6837 29.3999 11.717 29.3916 11.9252 29.4124C12.0501 29.4291 12.8496 29.4832 13.6949 29.5414ZM18.6915 29.8327C20.2113 29.9035 21.8518 29.9617 23.3425 30.0034L24.3709 30.0325L24.3459 33.6571C24.3334 35.6505 24.3126 37.2943 24.296 37.3068C24.221 37.3858 17.6921 36.9614 17.6047 36.874C17.5672 36.8407 17.4007 35.9251 17.2591 34.9722C17.0426 33.5406 16.8136 31.4848 16.7303 30.1698L16.7011 29.7204L17.0301 29.7453C17.2091 29.7578 17.9586 29.7994 18.6915 29.8327ZM29.5382 30.0533C29.5382 30.0575 29.4841 30.1698 29.4175 30.303C29.3509 30.4362 29.2759 30.6234 29.2509 30.7191C29.226 30.8148 29.1843 30.973 29.1593 31.0687L29.1135 31.2435L29.0427 31.1478C28.972 31.0562 28.9636 31.0562 28.847 31.1145C28.7804 31.1478 28.693 31.2435 28.6472 31.3225C28.5597 31.489 28.489 31.5181 28.1434 31.5181C27.9227 31.5181 27.7103 31.5889 26.3737 32.0966C25.5368 32.417 24.8206 32.6875 24.7831 32.7042C24.7124 32.7333 24.7082 32.6542 24.7082 31.4058C24.7082 30.6734 24.7165 30.0658 24.7248 30.0575C24.7457 30.0408 29.5382 30.0325 29.5382 30.0533ZM25.3453 34.4936C25.4244 34.6809 25.541 34.993 25.6076 35.1886L25.7242 35.5506L25.6617 36.333C25.6076 36.9863 25.6076 37.132 25.6534 37.2277C25.6825 37.2901 25.695 37.3484 25.6742 37.3567C25.6575 37.3692 25.4244 37.365 25.1579 37.3567L24.6666 37.3317V35.7046C24.6666 34.8099 24.679 33.9817 24.6915 33.8652L24.7207 33.6488L24.9622 33.9068C25.1412 34.0941 25.2412 34.2481 25.3453 34.4936ZM9.4061 34.9056C9.49354 35.2052 9.59764 35.5464 9.63928 35.6755C9.68508 35.8003 9.71423 35.9043 9.71006 35.9127C9.70173 35.9168 9.56849 35.9002 9.4061 35.871L9.11463 35.8253L9.08549 35.5423C9.06467 35.3342 9.02303 35.1969 8.91061 35.0013L8.76487 34.7433L8.98139 34.5269C9.09798 34.4062 9.20624 34.3188 9.22289 34.3396C9.23955 34.3563 9.31866 34.6101 9.4061 34.9056ZM45.6481 35.9584C44.0784 38.8299 41.9381 41.3517 39.3024 43.4491L38.9235 43.7446L38.0741 43.9152C37.0415 44.1191 36.2545 44.2481 35.097 44.4146C34.6181 44.4853 34.1476 44.5519 34.0602 44.5644C33.8936 44.5893 33.8978 44.5852 34.5806 43.8902C36.3003 42.1341 37.6327 40.0825 38.7736 37.4358L38.9319 37.0737L39.2608 37.0238C40.6932 36.7991 41.5592 36.6492 42.3629 36.4869C43.2831 36.2997 45.0152 35.8794 45.5065 35.7254C45.644 35.6796 45.773 35.6422 45.7897 35.6422C45.8105 35.638 45.7439 35.7837 45.6481 35.9584ZM9.61013 36.2622C9.74754 36.283 9.85996 36.308 9.86412 36.3122C9.86829 36.3205 9.93907 36.5202 10.0265 36.7616C11.005 39.4541 12.5248 41.9967 14.3069 43.9318C14.5942 44.2398 14.6609 44.3355 14.5859 44.3188C14.5318 44.3064 14.207 44.2481 13.8614 44.1898C12.9245 44.0275 11.5713 43.7362 10.4137 43.4533L9.37696 43.1952L8.91477 42.7999C8.35265 42.3255 7.26173 41.2602 7.26173 41.1894C7.26173 41.1644 7.53238 40.432 7.86132 39.5664C8.37764 38.2223 8.51504 37.9018 8.79818 37.4066L9.13545 36.824V36.5036V36.179L9.25204 36.1998C9.3145 36.2123 9.47689 36.2373 9.61013 36.2622ZM11.3423 36.5119C12.6414 36.695 14.7483 36.953 15.9225 37.0737C17.1508 37.1986 17.2966 37.2194 17.2966 37.2485C17.2966 37.3359 17.6713 38.9422 17.842 39.5789C18.3583 41.5098 19.1287 43.5032 19.8115 44.6642C19.8948 44.8099 19.9573 44.9347 19.9489 44.9472C19.9073 44.9847 17.7463 44.7641 16.1723 44.556L15.3187 44.4437L14.9024 44.0275C13.0953 42.2131 11.6004 39.8244 10.4887 36.9738C10.3638 36.6492 10.2597 36.3787 10.2597 36.3663C10.2597 36.3538 10.3013 36.3538 10.3555 36.3663C10.4054 36.3787 10.851 36.4412 11.3423 36.5119ZM38.4905 37.1736C38.4905 37.2984 37.6536 39.013 37.208 39.7995C36.6043 40.869 35.7715 42.0384 34.9637 42.9622C34.539 43.4491 33.4939 44.4853 33.3065 44.6101C33.2607 44.6393 33.0942 44.6767 32.9359 44.6934C32.6611 44.7225 32.6486 44.7183 32.6778 44.6434C32.6986 44.6018 32.9359 43.628 33.2066 42.4836C33.5855 40.9023 33.7312 40.2198 33.8103 39.633C33.9269 38.7633 34.1601 37.7021 34.2559 37.6064C34.3058 37.5564 34.5515 37.5232 35.2802 37.4607C35.8048 37.4191 36.6917 37.3276 37.2497 37.2651C38.4239 37.1278 38.4905 37.1236 38.4905 37.1736ZM18.5041 37.3234C19.874 37.4441 21.7186 37.5648 23.7214 37.6605L24.2918 37.6854V39.3417C24.2918 40.2489 24.2793 41.9218 24.2627 43.0579L24.2377 45.1262H23.6298C23.0385 45.1262 21.781 45.0762 20.8691 45.018L20.4194 44.9888L20.3195 44.8182C19.2827 43.0454 18.4999 40.9439 17.8837 38.2722C17.7671 37.7728 17.6713 37.34 17.6713 37.3109C17.6713 37.2485 17.6671 37.2485 18.5041 37.3234ZM25.4244 37.7187H25.8741L26.0823 38.1349L26.2904 38.551H26.4778C26.6319 38.551 26.7401 38.5968 27.1607 38.8507C27.5729 39.1045 27.6604 39.1753 27.6812 39.2751C27.6937 39.3417 27.7062 39.6705 27.7062 40.0117V40.6318L27.8394 40.8482C27.956 41.0396 27.9726 41.0979 27.9685 41.3392L27.9601 41.6097L28.2808 42.1049L28.6014 42.6002L28.8928 42.6792C29.0511 42.725 29.1885 42.7666 29.201 42.7749C29.2093 42.7874 29.1468 42.8998 29.0636 43.0246C28.9803 43.1536 28.922 43.2743 28.9345 43.2951C28.947 43.3159 29.0969 43.4075 29.2676 43.5032C29.4383 43.5989 29.5799 43.7029 29.5799 43.7362C29.5799 43.807 29.0011 44.9431 28.9386 44.9972C28.872 45.0513 26.9816 45.1262 25.695 45.1262H24.5958L24.6124 42.8249C24.6208 41.5639 24.6374 39.8827 24.6499 39.0962L24.6749 37.6688L24.8289 37.6938C24.9122 37.7063 25.1787 37.7187 25.4244 37.7187ZM10.9301 43.936C11.8669 44.1649 13.3076 44.4562 14.3402 44.6268C14.944 44.7308 15.1355 44.7766 15.223 44.8474C15.2813 44.8973 15.4978 45.0804 15.7018 45.2552C17.1342 46.4787 19.137 47.6272 20.7734 48.164C21.1898 48.2972 21.1856 48.3305 20.765 48.2639C17.1383 47.6938 13.6324 46.2623 10.6053 44.1191C10.1847 43.8236 10.0973 43.7529 10.1514 43.7529C10.1598 43.7529 10.5095 43.8361 10.9301 43.936ZM29.9338 44.3729C29.9671 44.581 30.0712 44.7017 30.2461 44.7392C30.3335 44.7558 30.371 44.7849 30.371 44.8432C30.371 44.9431 30.3502 44.9472 29.8172 44.9805L29.3675 45.0055L29.6049 44.5394C29.8505 44.0442 29.8755 44.0317 29.9338 44.3729ZM38.1574 44.2731C38.1574 44.3022 37.4703 44.7558 36.9082 45.0929C35.5716 45.896 34.1393 46.5827 32.6694 47.1195L32.3238 47.2485L32.353 46.5286L32.378 45.8128L32.5071 45.7088C33.1358 45.2052 33.4398 44.993 33.5522 44.9764C33.623 44.968 34.1143 44.9015 34.6389 44.8307C35.5508 44.7142 37.5703 44.3854 37.9284 44.3022C38.1407 44.2481 38.1574 44.2481 38.1574 44.2731ZM16.8843 45.0013C17.4215 45.0679 18.3084 45.1636 18.858 45.2094C20.3237 45.3384 20.1904 45.3093 20.3445 45.534C21.2397 46.8532 22.1974 47.7354 23.3549 48.318L23.813 48.5469L23.5423 48.5219C23.3924 48.5095 22.9344 48.4137 22.5222 48.3139C20.8025 47.8852 19.2619 47.2402 17.8254 46.358C17.0759 45.896 15.731 44.8806 15.8642 44.8765C15.885 44.8765 16.3472 44.9306 16.8843 45.0013ZM32.5987 45.1886C32.4654 45.2968 32.4113 45.3176 32.4113 45.2552C32.4113 45.1428 32.4737 45.0846 32.5945 45.0846H32.7236L32.5987 45.1886ZM30.3127 45.6755C30.2544 46.4204 30.1795 46.5952 29.9505 46.5119C29.838 46.4703 29.8297 46.4703 29.8297 46.5619C29.8297 46.874 29.8089 46.8948 29.3134 47.1154C29.0594 47.2277 28.618 47.4067 28.3307 47.5107C27.8394 47.6896 26.8317 48.0018 26.8317 47.9768C26.8317 47.9726 26.9692 47.8644 27.1357 47.7354C27.727 47.2818 28.4848 46.4204 28.9761 45.6464C29.0594 45.509 29.1385 45.3883 29.1468 45.38C29.1593 45.3675 29.8547 45.3093 30.1587 45.2968L30.3419 45.2926L30.3127 45.6755ZM22.6055 45.4383C23.0885 45.4508 23.6547 45.4716 23.8713 45.4841L24.2627 45.509L24.2377 46.8823C24.2252 47.6397 24.2044 48.2639 24.196 48.2722C24.1711 48.3014 23.5382 48.0267 23.23 47.8519C22.5139 47.4524 21.6103 46.6285 21.0107 45.8295C20.8442 45.6089 20.7109 45.4175 20.7109 45.3967C20.7109 45.38 20.9399 45.3759 21.2231 45.3925C21.502 45.405 22.1266 45.43 22.6055 45.4383ZM28.7055 45.4008C28.7055 45.4965 28.0059 46.4037 27.5937 46.8324C26.7943 47.673 25.7117 48.2847 24.8248 48.3929L24.5833 48.4221V46.9655V45.5132L26.0115 45.4799C27.2107 45.4549 28.4515 45.4092 28.6555 45.3842C28.6805 45.38 28.7055 45.3883 28.7055 45.4008ZM29.6923 47.6605L29.6507 47.9934L29.4425 48.0392C28.6222 48.214 27.4855 48.3846 26.8109 48.4345L26.4778 48.4595L27.0608 48.2931C27.8227 48.0767 28.6513 47.7895 29.2218 47.5398C29.4758 47.4316 29.6923 47.3401 29.7048 47.3359C29.7173 47.3318 29.7131 47.4816 29.6923 47.6605Z" fill="#04A201"/>
</g>
</svg>
