<svg width="104" height="95" viewBox="0 0 104 95" fill="none" xmlns="http://www.w3.org/2000/svg">
<path d="M73.2342 6.88154C76.0066 7.31175 78.242 7.97684 81.1726 9.67163C81.5705 9.98049 81.9637 10.2991 82.3521 10.6273C82.3379 10.7399 82.3097 10.8815 82.2663 11.082C82.1856 11.4549 82.0107 11.9195 81.7688 12.3955C82.4636 13.276 83.1327 14.1871 83.7748 15.1267C84.198 14.4391 84.5535 13.7013 84.7991 12.9098C86.2739 14.4021 87.6515 16.0397 88.9172 17.8049C88.9201 18.12 88.8163 18.4892 88.5798 19.0069C88.2971 19.625 87.7994 20.3124 87.1875 20.9435C87.7103 21.9998 88.19 23.0606 88.6238 24.1301C89.5868 23.2482 90.4194 22.2028 90.9951 20.9895C92.3972 23.363 93.5974 25.9027 94.5747 28.5641C94.4696 29.059 94.2043 29.5525 93.7659 30.1142C93.1478 30.9062 92.1833 31.6642 91.0831 32.2315C91.3284 33.4156 91.522 34.6021 91.6734 35.7825C93.2799 35.0769 94.756 34.0351 95.849 32.6342C95.8551 32.6262 95.8623 32.6195 95.8683 32.6115C96.6229 35.3847 97.14 38.2325 97.4106 41.1058C97.2017 41.8274 96.7281 42.4184 95.9589 42.984C94.97 43.7111 93.5272 44.2088 91.99 44.3758C91.9244 45.5732 91.8144 46.7592 91.6613 47.9289C93.7825 47.8285 95.8517 47.2437 97.5015 46.0308C97.5465 45.9977 97.5894 45.9612 97.6339 45.9269C97.6256 48.8977 97.3515 51.838 96.8166 54.6938C96.4008 55.3341 95.7515 55.7614 94.8361 56.0644C93.4997 56.5071 91.6792 56.4825 89.8562 56.0263C89.509 57.1214 89.1243 58.1952 88.703 59.2449C91.0831 59.9741 93.5396 60.1534 95.6559 59.4707C94.742 62.5104 93.5254 65.3771 92.0331 68.0071C91.4636 68.4219 90.7271 68.601 89.7947 68.5944C88.3211 68.5839 86.4697 67.9572 84.6998 66.9125C84.6988 66.9137 84.6958 66.9125 84.6951 66.9136C84.0905 67.8246 83.4534 68.7009 82.7857 69.5402C84.9048 70.9484 87.19 71.9071 89.3545 72.0717C87.9308 73.9453 86.3519 75.6268 84.6408 77.0913C83.9344 77.3413 83.1001 77.2731 82.1054 76.9413C80.8447 76.5207 79.4171 75.6027 78.059 74.3765C75.8186 76.2196 73.3948 77.6536 70.8491 78.5853L69.8982 75.2164C71.9351 74.4706 73.9023 73.3418 75.7552 71.9027C74.3366 70.0964 73.1978 68.0386 72.6227 66.1942C72.1125 64.5564 72.0115 63.2209 72.381 62.1134C73.5043 61.5408 74.5592 60.8339 75.5406 60.0094C75.8056 61.1953 76.2716 62.3423 76.8658 63.3797C77.7511 64.926 78.9182 66.3265 80.2372 67.5415C80.9008 66.7451 81.5335 65.91 82.1334 65.0387C80.8988 63.9464 79.8344 62.6966 79.1293 61.465C78.2298 59.8944 77.9042 58.5566 78.1921 57.285C79.1416 56.1019 79.9885 54.7844 80.7303 53.3562C81.1491 54.0865 81.6531 54.7521 82.2073 55.3389C83.2739 56.468 84.5471 57.3895 85.916 58.1049C86.3436 57.0918 86.7377 56.0553 87.0901 54.9898C85.8699 54.3743 84.7708 53.5926 83.9577 52.7319C82.9763 51.6928 82.4415 50.6975 82.3408 49.6242C82.8307 48.2252 83.2306 46.7747 83.5368 45.2854C83.9712 45.7015 84.4372 46.0617 84.9268 46.3602C86.1072 47.078 87.4308 47.531 88.7964 47.7606C88.965 46.6221 89.0952 45.4699 89.1738 44.3047C87.9983 44.1205 86.8963 43.7502 86.0404 43.2294C85.0455 42.6244 84.4361 41.9621 84.1549 41.1208C84.3025 39.5195 84.3559 37.8998 84.3146 36.2745C84.6277 36.4074 84.9466 36.5129 85.269 36.5901C86.468 36.8734 87.7372 36.8581 88.9966 36.6191C88.8648 35.4503 88.6836 34.2872 88.4536 33.1347C87.4262 33.3287 86.4309 33.3392 85.6301 33.15C84.8898 32.9751 84.3783 32.7147 84.0318 32.3243C83.8172 30.464 83.4874 28.6184 83.0453 26.8042C83.1442 26.8007 83.2407 26.7924 83.338 26.7827C84.3338 26.6854 85.3264 26.338 86.273 25.8243C85.8509 24.7704 85.3787 23.7189 84.8582 22.6744C84.1804 23.016 83.5084 23.2321 82.9459 23.2871C82.553 23.3255 82.255 23.3058 82.0162 23.2372C81.4887 21.6627 80.8743 20.1298 80.1777 18.6499C80.7621 18.3686 81.3119 17.9759 81.8258 17.5093C81.1948 16.5806 80.536 15.6811 79.8508 14.8129C79.5335 15.0744 79.2228 15.284 78.9458 15.4088C78.7902 15.4787 78.6597 15.5281 78.5492 15.5573C78.0926 14.7704 77.6209 14.0083 77.1275 13.2778C75.8272 11.3093 74.4123 9.24302 73.2342 6.88154Z" fill="#1E9F14"/>
<path d="M30.7648 6.88154C27.9924 7.31175 25.757 7.97684 22.8265 9.67163C22.4285 9.98049 22.0353 10.2991 21.647 10.6273C21.6611 10.7399 21.6893 10.8815 21.7328 11.082C21.8134 11.4549 21.9883 11.9195 22.2302 12.3955C21.5354 13.276 20.8663 14.1871 20.2243 15.1267C19.8011 14.4391 19.4456 13.7013 19.1999 12.9098C17.7252 14.4021 16.3475 16.0397 15.0818 17.8049C15.0789 18.12 15.1827 18.4892 15.4193 19.0069C15.702 19.625 16.1996 20.3124 16.8115 20.9435C16.2887 21.9998 15.8091 23.0606 15.3752 24.1301C14.4123 23.2482 13.5796 22.2028 13.0039 20.9895C11.6018 23.363 10.4016 25.9027 9.42436 28.5641C9.52938 29.059 9.79471 29.5525 10.2331 30.1142C10.8512 30.9062 11.8158 31.6642 12.9159 32.2315C12.6706 33.4156 12.477 34.6021 12.3256 35.7825C10.7191 35.0769 9.24299 34.0351 8.15001 32.6342C8.14396 32.6262 8.13673 32.6195 8.13068 32.6115C7.37611 35.3847 6.85907 38.2325 6.58846 41.1058C6.79731 41.8274 7.27095 42.4184 8.04015 42.984C9.02903 43.7111 10.4718 44.2088 12.009 44.3758C12.0746 45.5732 12.1846 46.7592 12.3377 47.9289C10.2165 47.8285 8.14737 47.2437 6.49753 46.0308C6.45253 45.9977 6.4096 45.9612 6.36516 45.9269C6.37341 48.8977 6.64752 51.838 7.18245 54.6938C7.59818 55.3341 8.24748 55.7614 9.16291 56.0644C10.4993 56.5071 12.3198 56.4825 14.1428 56.0263C14.49 57.1214 14.8747 58.1952 15.296 59.2449C12.9159 59.9741 10.4595 60.1534 8.34316 59.4707C9.257 62.5104 10.4736 65.3771 11.9659 68.0071C12.5354 68.4219 13.2719 68.601 14.2043 68.5944C15.6779 68.5839 17.5293 67.9572 19.2992 66.9125C19.3002 66.9137 19.3032 66.9125 19.3039 66.9136C19.9086 67.8246 20.5456 68.7009 21.2133 69.5402C19.0942 70.9484 16.809 71.9071 14.6445 72.0717C16.0682 73.9453 17.6472 75.6268 19.3582 77.0913C20.0647 77.3413 20.8989 77.2731 21.8937 76.9413C23.1543 76.5207 24.5819 75.6027 25.94 74.3765C28.1804 76.2196 30.6043 77.6536 33.1499 78.5853L34.1009 75.2164C32.0639 74.4706 30.0967 73.3418 28.2438 71.9027C29.6624 70.0964 30.8012 68.0386 31.3763 66.1942C31.8865 64.5564 31.9875 63.2209 31.618 62.1134C30.4947 61.5408 29.4398 60.8339 28.4585 60.0094C28.1934 61.1953 27.7274 62.3423 27.1333 63.3797C26.248 64.926 25.0809 66.3265 23.7618 67.5415C23.0982 66.7451 22.4655 65.91 21.8656 65.0387C23.1002 63.9464 24.1646 62.6966 24.8697 61.465C25.7693 59.8944 26.0948 58.5566 25.8069 57.285C24.8574 56.1019 24.0105 54.7844 23.2687 53.3562C22.8499 54.0865 22.3459 54.7521 21.7917 55.3389C20.7251 56.468 19.4519 57.3895 18.083 58.1049C17.6554 57.0918 17.2613 56.0553 16.9089 54.9898C18.1291 54.3743 19.2282 53.5926 20.0413 52.7319C21.0227 51.6928 21.5575 50.6975 21.6582 49.6242C21.1683 48.2252 20.7685 46.7747 20.4622 45.2854C20.0278 45.7015 19.5618 46.0617 19.0722 46.3602C17.8918 47.078 16.5683 47.531 15.2026 47.7606C15.034 46.6221 14.9038 45.4699 14.8252 44.3047C16.0007 44.1205 17.1027 43.7502 17.9586 43.2294C18.9535 42.6244 19.5629 41.9621 19.8442 41.1208C19.6965 39.5195 19.6431 37.8998 19.6844 36.2745C19.3713 36.4074 19.0524 36.5129 18.73 36.5901C17.531 36.8734 16.2618 36.8581 15.0024 36.6191C15.1342 35.4503 15.3154 34.2872 15.5454 33.1347C16.5728 33.3287 17.5681 33.3392 18.3689 33.15C19.1092 32.9751 19.6207 32.7147 19.9672 32.3243C20.1818 30.464 20.5116 28.6184 20.9537 26.8042C20.8548 26.8007 20.7584 26.7924 20.661 26.7827C19.6652 26.6854 18.6726 26.338 17.726 25.8243C18.1481 24.7704 18.6204 23.7189 19.1408 22.6744C19.8186 23.016 20.4906 23.2321 21.0531 23.2871C21.4461 23.3255 21.744 23.3058 21.9829 23.2372C22.5103 21.6627 23.1247 20.1298 23.8213 18.6499C23.2369 18.3686 22.6872 17.9759 22.1732 17.5093C22.8042 16.5806 23.463 15.6811 24.1482 14.8129C24.4656 15.0744 24.7763 15.284 25.0532 15.4088C25.2089 15.4787 25.3393 15.5281 25.4498 15.5573C25.9065 14.7704 26.3781 14.0083 26.8715 13.2778C28.1718 11.3093 29.5867 9.24302 30.7648 6.88154Z" fill="#1E9F14"/>
<path d="M39.7256 7.81869L37.5452 6.66324L35.3993 7.88745L35.7759 5.36068L34 3.60365L36.4131 3.19755L37.4614 0.887451L38.5762 3.16317L41 3.49247L39.2759 5.30512L39.7256 7.81869Z" fill="#1E9F14" stroke="#1E9F14" stroke-width="0.757198"/>
<path d="M66.7256 7.81869L64.5452 6.66324L62.3993 7.88745L62.7759 5.36068L61 3.60365L63.4131 3.19755L64.4614 0.887451L65.5762 3.16317L68 3.49247L66.2759 5.30512L66.7256 7.81869Z" fill="#1E9F14" stroke="#1E9F14" stroke-width="0.757198"/>
<path d="M41 82.8875V89.8875H44.4068C46.3115 89.8875 48.1543 89.813 48.6188 89.7236C51.1739 89.2023 53.0941 87.43 53.7909 84.9279C54.0697 83.9449 54.0697 81.8449 53.7909 80.8619C53.1096 78.3598 51.1739 76.5726 48.6188 76.0513C48.1543 75.9619 46.3115 75.8875 44.4068 75.8875H41V82.8875ZM48.6498 78.7172C49.997 79.2087 50.8642 80.2811 51.2204 81.8896C51.5765 83.5577 51.0345 85.3151 49.8886 86.2981C48.913 87.1172 47.9839 87.3555 45.7076 87.3555H43.7874V82.8875V78.4194H45.8005C47.4419 78.4194 47.9529 78.4789 48.6498 78.7172Z" fill="#04A201"/>
<path d="M50.3051 76.1701C50.4729 76.3189 51.0679 76.8545 51.6323 77.3604L52.6545 78.2679H55.4157C58.4363 78.2679 58.9245 78.372 59.5042 79.0862C60.1907 79.9193 59.7483 81.0947 58.6499 81.3922C58.3448 81.4666 57.1396 81.541 55.9954 81.541H53.8902V82.6568V83.7727H55.8429C58.238 83.7727 59.1533 83.9958 59.8245 84.7397C60.5873 85.5878 60.3737 86.5399 59.3211 87.0904C58.7567 87.3731 58.3753 87.4029 55.6445 87.4624L52.5934 87.5219L51.2967 88.7121L50 89.8875L54.8055 89.8428C60.0076 89.7833 60.2669 89.7536 61.5026 88.9204C62.2044 88.4443 62.8299 87.388 62.9672 86.4209C63.1807 85.067 62.3264 83.3859 61.1518 82.8205L60.7246 82.6122L61.1975 82.3742C62.8756 81.5261 63.0129 78.6845 61.4416 77.1521C60.9534 76.6611 60.5415 76.4231 59.7635 76.1999C58.8329 75.9172 58.36 75.8875 54.3783 75.8875C50.122 75.8875 50.0153 75.8875 50.3051 76.1701Z" fill="#04A201"/>
<g filter="url(#filter0_iiiii_2009_699)">
<path d="M77 40.3875C77 47.1505 74.3134 53.6365 69.5312 58.4187C64.749 63.2009 58.263 65.8875 51.5 65.8875C44.737 65.8875 38.251 63.2009 33.4688 58.4187C28.6866 53.6365 26 47.1505 26 40.3875C26 33.6244 28.6866 27.1384 33.4688 22.3562C38.251 17.5741 44.737 14.8875 51.5 14.8875C58.263 14.8875 64.749 17.5741 69.5312 22.3562C74.3134 27.1384 77 33.6244 77 40.3875Z" fill="white"/>
</g>
<path d="M51.5 15.24C58.1695 15.24 64.5662 17.8892 69.2822 22.6052C73.9982 27.3212 76.6475 33.718 76.6475 40.3875C76.6475 47.0569 73.9982 53.4537 69.2822 58.1697C64.5662 62.8857 58.1695 65.5349 51.5 65.5349C44.8305 65.5349 38.4338 62.8857 33.7178 58.1697C29.0018 53.4537 26.3525 47.0569 26.3525 40.3875C26.3525 33.718 29.0018 27.3212 33.7178 22.6052C38.4338 17.8892 44.8305 15.24 51.5 15.24Z" stroke="white" stroke-width="0.70552"/>
<path d="M50.5423 16.9074C46.1078 17.0613 41.7608 18.4554 38.0258 20.919C32.5171 24.552 28.7072 30.2116 27.4372 36.6494C27.1083 38.3265 27 39.4709 27 41.3935C27 42.9998 27.0375 43.5908 27.229 44.9099C28.2075 51.7639 32.1423 57.9603 37.9467 61.8139C41.5193 64.1818 45.3833 65.4968 49.772 65.8422C50.5257 65.9046 52.4202 65.9004 53.2488 65.8422C57.4959 65.5342 61.5973 64.1318 65.0949 61.7847C70.916 57.8813 74.7717 51.7847 75.771 44.9099C75.9584 43.6365 76 42.9541 76 41.3727C76 39.7913 75.9584 39.1838 75.771 37.877C74.3303 27.7896 66.6272 19.5582 56.6423 17.4234C55.3599 17.1529 53.8817 16.9615 52.7367 16.924C52.3869 16.9115 51.9455 16.8949 51.7498 16.8907C51.5541 16.8824 51.0128 16.8907 50.5423 16.9074ZM51.6124 18.1184C51.5958 18.5303 51.5833 19.1213 51.5833 19.4292V19.9827H51.3584C51.1502 19.9827 51.1336 19.991 51.0836 20.1075L51.0337 20.2324L50.8879 20.145C50.7588 20.0618 50.7297 20.0618 50.5798 20.1075C50.4924 20.1367 50.4174 20.1741 50.4174 20.1866C50.4174 20.2033 50.5048 20.2657 50.6173 20.3323C50.7838 20.428 50.8421 20.5029 51.0003 20.7983C51.1461 21.073 51.2335 21.1854 51.3876 21.2977L51.5833 21.4392V22.155C51.5833 22.5503 51.5708 23.2827 51.5541 23.778L51.5291 24.6852H50.9004C49.9594 24.6852 46.2244 24.5354 46.1786 24.4979C46.1203 24.4438 47.1238 22.259 47.5527 21.51C48.4562 19.9203 49.6096 18.5844 50.738 17.827C51.0045 17.6481 51.5333 17.361 51.5999 17.361C51.6208 17.361 51.6249 17.6731 51.6124 18.1184ZM52.8866 17.6231C53.1447 17.748 53.5028 17.9644 53.686 18.1017C54.3397 18.5886 55.0767 19.4001 55.6222 20.2324L55.8804 20.6277L55.668 20.6402C55.4432 20.6527 55.3557 20.6194 55.0851 20.428C54.956 20.3323 54.8102 20.2906 54.3439 20.2033L53.7651 20.0992L53.3779 20.249C53.1614 20.3323 52.9823 20.3947 52.9823 20.3905C52.7866 20.0285 52.7033 19.9827 52.2245 19.9827H51.958V18.6677V17.3526L52.187 17.3693C52.3619 17.3859 52.541 17.4484 52.8866 17.6231ZM49.1558 17.4692C49.1433 17.4816 48.9184 17.5649 48.6603 17.6523C47.1779 18.1475 45.5707 18.934 44.2591 19.8038C42.6435 20.8816 41.3944 22.0343 39.9037 23.8445C39.8787 23.8737 38.5796 23.5865 38.1383 23.4534C37.4929 23.2578 36.9432 22.9873 36.7475 22.775C36.6643 22.6793 36.5935 22.5878 36.5935 22.567C36.5935 22.542 36.8058 22.3672 37.064 22.1758C40.5408 19.5707 44.434 18.0226 48.856 17.49C49.0184 17.4692 49.1558 17.4525 49.1641 17.4484C49.1724 17.4484 49.1724 17.4567 49.1558 17.4692ZM50.5423 17.4983C50.5423 17.5066 50.3674 17.6439 50.1592 17.8021C48.6186 18.9506 47.1321 21.1313 46.0412 23.8529L45.7997 24.4563L45.4125 24.4438C44.5714 24.4188 42.1439 24.1858 40.9655 24.0152C40.6574 23.9736 40.3909 23.9361 40.3742 23.9361C40.2993 23.9361 40.3576 23.8445 40.6407 23.5158C42.885 20.9024 45.5874 19.0588 48.7227 18.006C49.4889 17.748 50.5423 17.4567 50.5423 17.4983ZM54.7686 17.569C58.4703 18.0684 62.1469 19.5083 65.2407 21.6723C65.8569 22.1009 66.8645 22.8874 66.8645 22.9332C66.8645 22.954 66.7854 23.0414 66.6897 23.1246C66.3357 23.4492 65.3989 23.7904 64.1955 24.0401L63.5127 24.1816L63.3794 24.0277L63.2462 23.8737L63.4127 23.8487C63.5293 23.8321 63.6126 23.7904 63.6792 23.7031C63.7333 23.6365 63.775 23.5657 63.7708 23.5491C63.7667 23.5283 63.5043 23.4118 63.1879 23.2911L62.6174 23.0705L61.8804 22.3298C59.8152 20.2532 57.4959 18.7509 54.7686 17.7355C54.448 17.6148 54.1773 17.5108 54.1649 17.4983C54.1524 17.4858 54.2107 17.49 54.2898 17.5025C54.3689 17.5149 54.5854 17.5441 54.7686 17.569ZM55.2058 18.2848C57.0212 19.0214 58.7118 20.0368 60.2982 21.3477C60.6896 21.6681 62.0761 23.0123 62.0761 23.0663C62.0761 23.083 62.0178 23.108 61.9471 23.1246C61.7014 23.1787 61.7514 23.366 62.0262 23.4159C62.4426 23.4908 62.4842 23.5116 62.784 23.8612C62.9422 24.0485 63.0671 24.2108 63.0546 24.2191C63.0172 24.2565 62.6966 24.0277 62.6757 23.9444C62.6466 23.8445 62.6133 23.8321 62.5508 23.8903C62.53 23.9111 62.3093 23.9569 62.0595 23.9944L61.6056 24.0568L61.3516 23.9278C61.2101 23.857 61.0435 23.7405 60.9811 23.6614C60.877 23.5366 60.8561 23.5283 60.7604 23.5699C60.6479 23.6198 60.6355 23.6614 60.598 24.0526C60.5563 24.4729 60.5355 24.5021 60.2774 24.5312L60.0567 24.552L59.2406 24.036C58.641 23.6531 58.3911 23.52 58.2954 23.52C58.2204 23.52 58.1621 23.5366 58.1621 23.5616C58.1621 23.5865 58.0497 23.6032 57.9123 23.6032C57.7124 23.6032 57.6583 23.5865 57.6208 23.5241C57.5625 23.4076 57.5709 23.3119 57.6375 23.3119C57.6708 23.3119 57.7458 23.2952 57.804 23.2703L57.9081 23.2328L57.8207 23.0164C57.7374 22.825 57.7083 22.7959 57.4918 22.7001C57.2669 22.6003 57.2503 22.5878 57.142 22.3214C56.9713 21.9178 56.4966 20.9814 56.2301 20.532C55.618 19.5 54.9352 18.6677 54.144 17.9935L53.9358 17.8146L54.3106 17.9477C54.5188 18.0185 54.9185 18.1725 55.2058 18.2848ZM56.455 21.7097C56.634 22.0759 56.838 22.5087 56.9047 22.6752L57.0296 22.9748L56.8797 22.9956C56.7964 23.0081 56.5216 23.0289 56.2676 23.0414C56.0178 23.0539 55.7305 23.0747 55.6347 23.0872C55.4681 23.1121 55.464 23.1163 55.5056 23.2286C55.5431 23.341 55.5639 23.3493 55.8637 23.3785C56.0386 23.3951 56.4008 23.3951 56.6715 23.3785C57.1295 23.3535 57.1628 23.3577 57.2045 23.4326C57.2919 23.599 57.2711 23.6032 56.43 23.6032H55.6139L55.0184 24.165L54.4272 24.7268H53.4528C52.9157 24.7268 52.3536 24.7143 52.1995 24.6977L51.9164 24.6727V23.1829C51.9164 22.3589 51.9247 21.6889 51.933 21.6889C51.9414 21.6889 52.0163 21.718 52.0954 21.7513C52.187 21.7888 52.3786 21.8137 52.5826 21.8137C52.9032 21.8137 52.9199 21.8179 53.0739 21.9594C53.2363 22.105 53.6111 22.2299 53.8859 22.2299C54.0566 22.2299 54.194 22.3131 54.6062 22.6668C54.9893 22.9956 55.0642 23.0247 55.3016 22.9207C55.5223 22.825 55.6055 22.7459 55.5514 22.6835C55.464 22.5711 55.4598 22.3797 55.5472 22.2174C55.5931 22.1259 55.6222 22.0509 55.6139 22.0426C55.6055 22.0343 55.4973 21.9844 55.3682 21.9261C55.1642 21.8387 55.1225 21.7971 55.0226 21.6015C54.9643 21.4808 54.9143 21.3185 54.9143 21.2478C54.9143 21.1146 54.9227 21.1105 55.1142 21.0855C55.5889 21.0272 55.8887 20.9773 55.9511 20.9398C56.0427 20.8857 56.0719 20.9315 56.455 21.7097ZM37.0931 23.4284C37.5553 23.649 38.2132 23.8529 38.9877 24.0235C39.3333 24.0984 39.6206 24.165 39.6289 24.1733C39.6372 24.1775 39.5956 24.2565 39.5331 24.3398C39.0501 24.9931 38.2382 26.3123 37.9051 26.974C37.8218 27.1446 37.7469 27.2902 37.7385 27.2986C37.7344 27.3027 37.6677 27.2819 37.5886 27.2486C37.5095 27.2195 37.3346 27.1779 37.1931 27.1612L36.9391 27.1321L36.2895 26.2083C35.9314 25.7006 35.6066 25.2553 35.565 25.2178C35.5234 25.1845 35.2486 25.0181 34.9488 24.8516C34.6531 24.6852 34.3991 24.5395 34.3908 24.5312C34.3658 24.5104 35.261 23.6656 35.8232 23.1787L36.277 22.7834L36.506 23.0206C36.6726 23.1912 36.8391 23.3077 37.0931 23.4284ZM67.6057 23.5574C67.8264 23.7613 68.0637 23.986 68.1304 24.0568L68.2553 24.1858H66.7605C65.9402 24.1858 65.2781 24.1775 65.2865 24.165C65.2989 24.1567 65.503 24.0776 65.7403 23.9944C66.2983 23.8029 66.7646 23.5616 66.9728 23.3577C67.0602 23.2703 67.1477 23.1954 67.1685 23.1912C67.1852 23.1912 67.3809 23.3535 67.6057 23.5574ZM40.9447 24.3689C41.9731 24.5145 43.4638 24.6685 44.6089 24.7476C45.1377 24.785 45.5874 24.8225 45.6165 24.8308C45.6498 24.8433 45.5998 25.0431 45.4583 25.4634C45.0252 26.7493 44.6547 28.1933 44.2966 29.9702L44.1009 30.9482L43.8968 30.9399C43.7844 30.9357 43.4763 30.9191 43.2098 30.9066L42.7268 30.8774L42.6477 30.7484C42.6061 30.6735 42.5602 30.5112 42.5478 30.3864C42.5269 30.1658 42.5228 30.1575 42.377 30.1159C42.2896 30.0951 42.1855 30.041 42.1439 29.9994C42.0356 29.9037 41.9856 29.9078 41.8815 30.0202C41.7983 30.1076 41.7941 30.145 41.8191 30.4238L41.8482 30.7318L41.6858 30.7027C41.3028 30.6361 41.3069 30.6402 41.2695 30.4779C41.2445 30.3739 41.2486 30.2574 41.282 30.1159C41.3486 29.8579 41.4069 29.2919 41.3902 29.0838C41.3777 28.959 41.3486 28.9091 41.2445 28.8466C41.0321 28.7176 40.9822 28.7343 40.9447 28.959C40.928 29.0714 40.9197 29.2129 40.9239 29.2836C40.9447 29.7622 40.9364 29.8579 40.8614 29.912C40.8198 29.9453 40.7407 29.9702 40.6949 29.9702C40.6199 29.9702 40.5908 30.016 40.5283 30.2241C40.4409 30.5029 40.3867 30.5528 40.0869 30.6361C39.9287 30.6777 39.7497 30.6735 39.1292 30.6194C38.2507 30.5404 38.0425 30.5154 37.9759 30.4738C37.9509 30.4571 37.8926 30.2158 37.8468 29.9328C37.801 29.6498 37.7552 29.4126 37.7427 29.4001C37.7344 29.3876 37.6719 29.4043 37.6094 29.4376C37.5095 29.4833 37.4804 29.5416 37.4054 29.8454L37.318 30.1991L37.1181 30.2366C37.0099 30.2532 36.9141 30.2615 36.9058 30.2532C36.8933 30.2449 36.9932 29.9494 37.1223 29.604C37.4054 28.8508 37.4137 28.8425 37.8301 29.0506C37.9759 29.1213 38.1216 29.1796 38.1549 29.1796C38.1882 29.1796 38.2882 29.0381 38.3798 28.855L38.5421 28.5304L38.4755 28.0893L38.4131 27.6481L38.2299 27.5607L38.0508 27.4734L38.2007 27.1737C38.7587 26.0585 39.9828 24.2024 40.1244 24.244C40.1619 24.2565 40.5325 24.3106 40.9447 24.3689ZM64.6702 24.3564C64.6244 24.4022 63.8916 24.5312 63.7875 24.5104C63.75 24.5021 63.9082 24.4563 64.1372 24.4063C64.6327 24.3023 64.7327 24.294 64.6702 24.3564ZM61.9221 24.3814C61.8929 24.3897 61.843 24.3897 61.818 24.3814C61.7888 24.3689 61.8097 24.3606 61.8679 24.3606C61.9262 24.3606 61.9471 24.3689 61.9221 24.3814ZM63.4127 24.6519C63.4585 24.7143 63.4877 24.8142 63.4918 24.9224V25.1013H63.1088H62.7215L62.6507 24.9349L62.58 24.7684L62.2968 24.7642C61.9346 24.7642 62.0553 24.706 62.5175 24.6644C62.7465 24.6436 62.8881 24.6519 62.9464 24.681C63.0172 24.7185 63.0338 24.7185 63.0338 24.6685C63.0338 24.5354 63.3045 24.527 63.4127 24.6519ZM57.2461 24.6436C57.2461 24.6644 57.2003 24.6852 57.142 24.6852C57.0837 24.6852 57.0379 24.6644 57.0379 24.6436C57.0379 24.6186 57.0837 24.6019 57.142 24.6019C57.2003 24.6019 57.2461 24.6186 57.2461 24.6436ZM61.5557 24.8058C61.5307 24.8225 61.4099 24.914 61.2808 25.0098L61.0518 25.1762L60.8103 25.0306C60.6813 24.9515 60.5772 24.8766 60.5855 24.8724C60.5938 24.8641 60.777 24.8433 60.9935 24.8308C61.2101 24.8142 61.3974 24.7934 61.4058 24.785C61.4141 24.7767 61.4599 24.7684 61.5099 24.7684C61.5598 24.7684 61.5765 24.785 61.5557 24.8058ZM47.6485 24.9349C48.1065 24.9557 48.9975 24.9848 49.6263 24.9973C50.255 25.0098 50.9462 25.0306 51.1627 25.0431L51.5541 25.068L51.525 28.1142C51.5083 29.7871 51.4833 31.1646 51.475 31.1729C51.4334 31.2145 45.5707 31.0522 44.7671 30.9856L44.4673 30.9607L44.4881 30.8317C44.6213 30.0868 44.8837 28.8633 45.071 28.1059C45.2876 27.2112 45.7539 25.6173 45.9121 25.197C45.9538 25.0888 46.0037 24.964 46.0162 24.9224C46.0412 24.8516 46.0829 24.8475 46.4326 24.8683C46.6408 24.8849 47.1904 24.914 47.6485 24.9349ZM57.6 25.3094C57.7083 25.5258 57.7666 25.6007 57.829 25.6007C57.879 25.6007 57.929 25.6423 57.9539 25.7006C57.9873 25.7963 58.4203 27.5316 58.4744 27.7938C58.5161 28.0019 58.4286 27.9602 58.3703 27.7439C58.3204 27.5691 58.312 27.5607 58.1247 27.5316C58.0206 27.5191 57.8457 27.4692 57.7374 27.4234L57.5417 27.3402L57.3085 27.4276C57.1795 27.4775 56.9921 27.515 56.8922 27.515C56.7048 27.515 56.7048 27.515 56.7048 27.6606C56.7048 27.7688 56.7423 27.8479 56.8505 27.9686C56.9296 28.056 56.9963 28.1517 56.9963 28.1808C56.9963 28.2557 56.8047 28.5012 56.6798 28.5803C56.584 28.6469 56.5716 28.6386 56.2384 28.393C55.847 28.1017 55.8804 28.0934 55.6638 28.5179C55.5348 28.7717 55.439 29.1213 55.3849 29.5541L55.3515 29.8246L55.0976 29.9494C54.8561 30.0701 54.8477 30.0784 54.8727 30.1991C54.9268 30.4488 54.9976 30.5112 55.4973 30.7609C55.7721 30.8983 55.9969 31.0314 55.9969 31.0522C55.9969 31.0772 55.8637 31.0938 55.6847 31.0938C55.4307 31.0938 55.3307 31.073 55.1642 30.9898C55.0518 30.9315 54.9518 30.8858 54.9393 30.8858C54.931 30.8858 54.9102 30.9315 54.8977 30.9856C54.881 31.0522 54.8352 31.0938 54.7603 31.1105C54.6937 31.1188 54.015 31.1355 53.2488 31.1438L51.8539 31.1563L51.8664 28.2848C51.8747 26.7035 51.8872 25.3344 51.9039 25.2345L51.9247 25.0597H53.153H54.3814L54.3564 25.1929C54.3439 25.2678 54.3231 25.455 54.3064 25.609L54.2773 25.892L55.0601 26.7035C55.489 27.1529 55.8595 27.5108 55.8762 27.5066C55.897 27.4983 56.2426 27.2362 56.6423 26.9199C57.3502 26.3622 57.3668 26.3456 57.321 26.2416C57.2794 26.15 57.2544 26.1375 57.1462 26.1625C56.7048 26.254 56.7714 26.2832 56.3009 25.7838L55.8762 25.3302L55.9511 25.2053C56.0219 25.0847 56.0303 25.0805 56.4383 25.0555C56.6632 25.0431 56.9879 25.0306 57.1503 25.0264L57.4543 25.0181L57.6 25.3094ZM58.6743 25.7339C58.9949 25.8379 59.2197 26.0376 59.1948 26.1958C59.1823 26.2748 59.1573 26.2873 58.9741 26.2873C58.8408 26.2873 58.7201 26.3165 58.6451 26.3622C58.5827 26.4039 58.5244 26.433 58.5161 26.4247C58.4703 26.3789 58.3079 25.6423 58.3412 25.6423C58.3662 25.6423 58.5161 25.6839 58.6743 25.7339ZM59.8693 26.8907C60.3148 27.0905 60.369 27.1071 60.6521 27.0988L60.9602 27.0947L61.6681 27.6024L62.3759 28.1059L62.2635 28.2224C62.1802 28.3098 62.1428 28.4097 62.1053 28.6386L62.0595 28.9382L61.5057 29.3335C60.9727 29.7122 60.9436 29.7289 60.7604 29.7122L60.573 29.6997L60.5855 29.8454C60.598 29.9744 60.6146 29.9911 60.7229 30.0035C61.0935 30.0327 61.1185 30.0493 61.1185 30.2033C61.1185 30.3739 61.0435 30.5362 60.8936 30.6735L60.7854 30.7734L60.5355 30.6985C60.3107 30.6319 60.2857 30.6111 60.2857 30.5154C60.2857 30.3115 60.1566 29.9078 60.065 29.8204C60.015 29.7747 59.8402 29.6831 59.6736 29.6207C59.5112 29.5583 59.3572 29.4833 59.3363 29.4584C59.3155 29.4292 59.2822 29.3252 59.2656 29.2212C59.2073 28.8508 59.0823 28.4222 59.0074 28.3389C58.9616 28.289 58.8783 28.0102 58.7825 27.594C58.6493 26.9823 58.641 26.9324 58.7159 26.9573C58.7701 26.974 58.8533 26.924 58.9949 26.7909C59.1698 26.6286 59.2156 26.6036 59.2947 26.6369C59.3488 26.6577 59.607 26.7701 59.8693 26.8907ZM35.794 27.6065L35.9273 27.748L35.8023 28.1725L35.6733 28.597L35.7565 28.7176C35.8357 28.8258 35.8357 28.8425 35.7774 28.8924C35.7441 28.9216 35.6982 28.9757 35.6733 29.0173C35.64 29.0838 35.6733 29.1047 35.9564 29.192C36.252 29.2794 36.2812 29.3002 36.2937 29.4043C36.302 29.4792 36.2687 29.5791 36.1937 29.6831C36.1313 29.7747 36.0897 29.8579 36.1021 29.8704C36.1146 29.8829 36.2271 29.9037 36.352 29.9161C36.6185 29.9411 36.6226 29.9411 36.6643 29.5042C36.6851 29.2461 36.7017 29.2087 36.7933 29.1754C36.8516 29.1546 36.9016 29.1421 36.9058 29.1463C36.9099 29.1546 36.8142 29.4209 36.6934 29.7414L36.4769 30.324L36.3145 30.3198C36.2271 30.3198 35.9689 30.2948 35.7357 30.2657C35.4026 30.2241 35.2777 30.1866 35.1236 30.0909C34.9279 29.9702 34.9279 29.9702 34.9279 29.7414C34.9279 29.5915 34.9113 29.5042 34.878 29.4917C34.8488 29.4833 34.6823 29.4334 34.5116 29.3793L34.2034 29.2836L34.091 28.9007L33.9827 28.5179L34.1118 28.4929C34.1826 28.4763 34.37 28.4347 34.524 28.4014L34.8114 28.3389L35.0362 27.9935C35.1611 27.8021 35.261 27.6315 35.261 27.6065C35.261 27.5857 35.1195 27.4525 34.9488 27.3069C34.778 27.1612 34.6365 27.0406 34.6365 27.0364C34.6365 27.0322 34.6573 26.9657 34.6823 26.8866C34.7073 26.8075 34.7364 26.7201 34.7447 26.6868C34.7614 26.6369 35.3985 27.1987 35.794 27.6065ZM71.4239 27.9353C71.5697 28.1434 71.5738 28.1475 71.5031 28.2557C71.3906 28.4263 70.9493 28.805 70.8577 28.805C70.841 28.805 70.816 28.6427 70.7994 28.4388C70.7827 28.2391 70.7619 28.0476 70.7536 28.0102C70.7411 27.9644 70.8077 27.9145 70.9951 27.8396C71.1408 27.7771 71.2616 27.7272 71.2657 27.7272C71.2657 27.723 71.3407 27.8188 71.4239 27.9353ZM72.1943 29.1463C73.3018 31.0065 74.272 33.341 74.8008 35.4135C74.9424 35.9628 74.9549 36.0543 74.9007 36.0876C74.8508 36.1209 73.5766 36.5495 73.1228 36.691C72.9854 36.7285 73.002 36.6453 73.1728 36.3914L73.3185 36.175V35.1305V34.0859L72.5024 33.0206C71.7113 31.9969 71.6821 31.9469 71.6196 31.6723C71.5822 31.5017 71.5364 31.3851 71.5031 31.3851C71.4739 31.3851 71.4239 31.3768 71.3906 31.3643C71.349 31.3435 71.3365 31.3685 71.3532 31.4642C71.3657 31.5558 71.3532 31.6015 71.299 31.6182C71.1991 31.6556 71.0284 31.5682 71.0284 31.4767C71.0284 31.4351 71.095 31.1771 71.1741 30.9024C71.2532 30.6319 71.3199 30.403 71.3199 30.3947C71.3199 30.3906 71.2407 30.3906 71.145 30.3947C70.9867 30.4072 70.9659 30.3989 70.9784 30.324C71.0409 29.8329 71.0367 29.6748 70.9701 29.5999C70.9326 29.5583 70.891 29.4584 70.8785 29.3793C70.8535 29.2378 70.8577 29.2295 71.2074 28.9965C71.4031 28.8675 71.6072 28.7052 71.6613 28.6386C71.7154 28.572 71.7695 28.5179 71.7862 28.5179C71.8029 28.5137 71.9861 28.8009 72.1943 29.1463ZM40.7365 31.0938C41.3319 31.1396 42.3146 31.202 42.9225 31.2395C43.5263 31.2769 44.0301 31.3144 44.0342 31.3186C44.0426 31.3269 44.0009 31.6265 43.9426 31.9927C43.672 33.7447 43.4721 35.6715 43.3181 38.031L43.2889 38.4597L43.0932 38.4555C42.6685 38.443 42.6768 38.4513 42.5269 37.9353C42.3979 37.4817 42.3895 37.4692 42.0106 37.0115C41.6942 36.6286 41.6067 36.5454 41.5151 36.5454C41.4527 36.5454 41.1321 36.5662 40.8031 36.587L40.2035 36.6286L39.2625 36.2333L38.3215 35.8421L37.8218 35.8795C37.547 35.9003 37.2639 35.9212 37.1931 35.9212H37.064L36.9932 36.4705C36.8766 37.3818 36.9266 37.282 36.5685 37.3152C36.3728 37.3361 36.2229 37.3735 36.1646 37.4193C36.0772 37.49 36.0438 37.49 35.7441 37.4359C35.565 37.4068 35.4109 37.3735 35.4026 37.3693C35.386 37.3527 35.5775 35.7589 35.6441 35.3552C35.6982 35.0389 35.7024 35.0348 35.8565 34.9807C35.9439 34.9515 36.0938 34.86 36.1937 34.7767C36.3187 34.6727 36.4561 34.6145 36.6601 34.5645L36.9474 34.4979L37.3013 34.0443C37.497 33.7905 37.6844 33.5616 37.7177 33.5283C37.7718 33.4784 37.8301 33.4992 38.1507 33.6781L38.5172 33.8862L38.9752 33.8779C39.3374 33.8695 39.4415 33.8779 39.4665 33.9278C39.4832 33.9611 39.6247 34.3315 39.7746 34.7559C39.9287 35.1804 40.0744 35.5674 40.0994 35.6174C40.1702 35.763 40.649 36.1292 40.7656 36.1292C40.8239 36.1292 41.0155 36.0918 41.1945 36.046C41.6067 35.942 41.64 35.942 41.7566 36.0668C41.8774 36.1917 41.9357 36.1958 42.0939 36.0835L42.2147 36.0002V35.4301C42.2105 35.1055 42.1855 34.7435 42.1522 34.5895C42.1189 34.423 42.1064 34.2149 42.1189 34.0402C42.1314 33.882 42.1314 33.7572 42.1147 33.7572C42.0981 33.7572 41.8482 33.7281 41.5651 33.6948C41.0446 33.6282 40.9072 33.6407 40.52 33.7863C40.4783 33.803 40.4658 33.7031 40.4658 33.3702C40.4658 32.9124 40.5075 32.7168 40.6032 32.7168C40.7323 32.7168 40.7948 32.6086 40.8198 32.3381L40.8489 32.0635L40.3784 32.0094C40.1161 31.9802 39.8829 31.9469 39.8579 31.9303C39.8329 31.9178 39.6081 31.6931 39.3583 31.4309L38.9044 30.9565L39.2791 30.9856C39.4873 30.9981 40.1411 31.0481 40.7365 31.0938ZM46.8781 31.4268C47.5319 31.4517 48.831 31.4809 49.7637 31.4975C50.9296 31.5142 51.4709 31.5391 51.4833 31.5682C51.5083 31.639 51.4417 38.9923 51.4167 39.0173C51.3668 39.0631 48.1564 38.9049 46.4409 38.7718C45.0377 38.6636 43.6928 38.5346 43.6637 38.5054C43.6179 38.4597 43.7844 36.2 43.9468 34.6935C44.0551 33.6656 44.3507 31.51 44.3965 31.3643C44.4048 31.3352 44.6338 31.331 45.0502 31.3519C45.4041 31.3685 46.2244 31.4018 46.8781 31.4268ZM58.2912 31.4642C58.337 31.5183 58.3703 31.6057 58.3703 31.6556C58.3703 31.7389 58.337 31.7597 58.1621 31.7971C58.0455 31.8221 57.8957 31.8429 57.829 31.8429C57.7666 31.8429 57.6833 31.8554 57.6458 31.8679C57.5459 31.9053 57.5667 32.0635 57.6833 32.1758C58.0039 32.4796 57.5667 32.8666 57.1795 32.6253C56.9463 32.4796 56.838 32.4588 56.7881 32.5504C56.7339 32.6544 56.7339 32.6752 56.8006 32.6752C56.8297 32.6752 56.9296 32.7501 57.0171 32.8458C57.1087 32.9374 57.2544 33.0539 57.3419 33.0955C57.5084 33.1829 58.0747 33.2994 58.3204 33.2994C58.5077 33.2994 58.4744 33.2162 58.2537 33.1413C58.0664 33.0789 58.0081 32.979 58.0747 32.8458C58.1788 32.6586 58.2746 32.7002 59.2989 33.3618C59.3655 33.4076 59.4737 34.4355 59.5987 36.2125C59.7236 38.0393 59.7527 38.8467 59.6944 38.8841C59.6653 38.9008 59.5362 38.9174 59.4113 38.9174C59.2864 38.9174 58.8908 38.9382 58.5369 38.959C57.2669 39.0339 54.1399 39.0922 52.9615 39.0631L51.7831 39.0339L51.8123 35.3011C51.8289 33.2495 51.8539 31.5599 51.8706 31.5474C51.8831 31.5308 52.6242 31.5058 53.5195 31.4892L55.1434 31.4601L55.0642 31.5474C55.0184 31.5974 54.9143 31.6556 54.8269 31.6806L54.6728 31.7305L54.627 32.1092C54.5771 32.4796 54.6021 32.671 54.6937 32.7293C54.7145 32.7418 54.8144 32.7335 54.9143 32.7127C55.1184 32.6669 55.3765 32.413 55.414 32.2216C55.4348 32.1134 55.4432 32.1134 55.8637 32.0926L56.2926 32.0718L56.101 31.8845C55.9553 31.7389 55.9137 31.6723 55.9137 31.5641C55.9137 31.4309 55.9178 31.4268 56.0927 31.4226C56.1885 31.4184 56.5216 31.4018 56.8297 31.3851C57.1378 31.3685 57.575 31.356 57.804 31.3602C58.1788 31.3685 58.2204 31.3768 58.2912 31.4642ZM30.9307 32.9041C31.1014 33.0789 31.1305 33.0914 31.3262 33.0914C31.5053 33.0872 31.5677 33.0622 31.7801 32.9082L32.0299 32.7293L32.1965 32.8292C32.3047 32.8958 32.4546 33.0581 32.6087 33.2786C32.8252 33.5949 32.8502 33.6573 32.896 33.9569C32.9335 34.2399 32.9584 34.2982 33.0376 34.344C33.1125 34.3814 33.1375 34.4313 33.1375 34.5312C33.1375 34.6602 33.1625 34.681 33.5122 34.8891C33.9036 35.1138 33.9369 35.1679 33.837 35.351C33.8079 35.401 33.787 35.5966 33.7829 35.7838V36.1292H34.0827H34.3825L34.2992 35.8379C34.2576 35.6798 34.2201 35.53 34.2201 35.5092C34.2201 35.4884 34.3783 35.3677 34.574 35.2345L34.9279 34.9973L35.0071 34.7226C35.0487 34.5687 35.107 34.3648 35.132 34.2732C35.1653 34.1442 35.2194 34.0735 35.3485 33.9902C35.4401 33.9278 35.5234 33.882 35.5317 33.8904C35.54 33.8987 35.5109 34.0901 35.4651 34.319C35.4109 34.6186 35.3651 34.7559 35.3027 34.8059C35.2069 34.8849 35.1903 35.0056 35.2819 35.0056C35.3568 35.0056 35.3568 34.9682 35.2819 35.4343C35.2277 35.7672 35.0529 37.1696 35.0529 37.2695C35.0529 37.3277 34.5782 37.2528 34.524 37.1862C34.4949 37.1405 34.3991 37.1238 34.2118 37.1238C34.0535 37.1197 33.2832 36.9907 32.2922 36.7909C31.3762 36.612 30.6225 36.4621 30.6142 36.4621C30.5892 36.4621 30.5934 36.0959 30.6225 35.8504L30.6517 35.634L31.0556 35.8504L31.4595 36.0668L31.9966 35.8629C32.2922 35.7505 32.6711 35.5966 32.8377 35.5217C33.1125 35.3968 33.1375 35.376 33.1375 35.2595C33.1375 35.0722 33.0625 34.9474 32.9002 34.86C32.821 34.8184 32.7294 34.7268 32.6961 34.6644C32.642 34.5562 32.617 34.5479 32.3838 34.5479C32.0965 34.5479 31.9924 34.5021 31.397 34.1109L30.989 33.8446L30.5309 34.0318L30.0771 34.2191L29.5982 34.1858C29.1277 34.1525 29.1194 34.1525 29.1111 34.0485C29.1027 33.9902 29.1402 33.8612 29.1943 33.7572L29.2859 33.5699L29.5857 33.5491C29.9438 33.5241 30.127 33.4118 30.4726 32.9956C30.5976 32.8417 30.71 32.721 30.7225 32.7168C30.735 32.7168 30.8307 32.8 30.9307 32.9041ZM36.4602 33.8113C36.4727 33.9902 36.4644 34.0069 36.3395 34.0735C36.2645 34.1109 36.1146 34.2274 36.0022 34.3273C35.894 34.4313 35.8023 34.4896 35.8023 34.4605C35.8023 34.3939 35.9356 33.7031 35.9522 33.6823C35.9647 33.6615 36.3561 33.599 36.4061 33.6115C36.4311 33.6157 36.4519 33.7031 36.4602 33.8113ZM60.1816 34.4688C60.369 34.5104 60.4398 34.552 60.548 34.681C60.623 34.7726 60.8103 34.9848 60.9727 35.1554C61.2267 35.4343 61.2767 35.4676 61.3766 35.4467C61.4724 35.4259 61.4932 35.4384 61.4932 35.505C61.4932 35.6132 61.5682 35.609 61.6889 35.5008C61.7972 35.3968 61.7805 35.376 61.9221 35.8213L62.0137 36.1167L62.9131 36.9574L63.8166 37.798L63.8416 38.0185C63.8749 38.2599 63.7916 38.5429 63.6917 38.5429C63.6626 38.5429 63.292 38.5803 62.8673 38.6261C62.0512 38.7135 60.1066 38.88 60.0983 38.8633C60.0942 38.8592 60.0608 38.2557 60.0192 37.5192C59.9817 36.7867 59.9234 35.8504 59.8901 35.4384C59.8568 35.0306 59.8193 34.552 59.8069 34.3814L59.786 34.0693L59.8651 34.2441C59.9401 34.4022 59.9651 34.4189 60.1816 34.4688ZM75.1672 37.078C75.5003 38.9049 75.6253 40.8275 75.5295 42.5795C75.5003 43.0706 75.4712 43.5117 75.4587 43.5616C75.442 43.6241 75.3005 43.7156 74.9507 43.8821C73.61 44.5271 71.7446 45.0639 69.2921 45.5134C68.8507 45.5924 68.3843 45.6715 68.2553 45.684L68.0221 45.7131L68.0471 45.5924C68.0762 45.4426 68.1803 44.473 68.2428 43.7863C68.2678 43.4992 68.2886 43.262 68.2969 43.2578C68.3011 43.2537 68.5176 43.1663 68.7799 43.0664C69.0422 42.9665 69.4919 42.7918 69.7792 42.6752C70.0665 42.5587 70.3872 42.4339 70.4954 42.3964C70.7661 42.2965 70.9451 42.1675 71.0367 42.0011C71.0825 41.9262 71.1824 41.7764 71.2574 41.6723C71.4323 41.4476 71.4364 41.4018 71.2949 41.2354C71.2074 41.1313 71.1908 41.0772 71.2074 40.9565C71.2407 40.711 71.5197 40.0244 71.7113 39.7123L71.8903 39.421L71.9153 38.8675C71.9361 38.339 71.9486 38.2932 72.1235 37.8396C72.2484 37.515 72.3317 37.3569 72.3858 37.3361C72.5399 37.2778 72.7772 37.257 72.7772 37.2986C72.7772 37.3236 72.7189 37.5691 72.6481 37.8438C72.5815 38.1226 72.4857 38.6011 72.4441 38.9174C72.3691 39.4293 72.1734 40.1326 72.0277 40.3823C71.9944 40.4405 72.011 40.4572 72.136 40.4821C72.4025 40.5321 72.4607 40.4697 72.519 40.0743C72.594 39.5541 72.6689 39.3669 72.8896 39.1671C73.0562 39.009 73.1936 38.7551 73.1936 38.6011C73.1936 38.5595 73.1394 38.5429 73.0062 38.5429C72.7814 38.5429 72.7689 38.4971 72.9104 38.16C72.9771 38.0019 73.0104 37.8229 73.027 37.5108L73.0478 37.078L73.6308 36.8991C73.9514 36.7992 74.3928 36.6536 74.6093 36.5745C74.8258 36.4996 75.0173 36.4455 75.0298 36.458C75.0465 36.4705 75.1089 36.7493 75.1672 37.078ZM32.1548 37.128C32.9543 37.2861 33.6163 37.4234 33.6247 37.4359C33.6538 37.4609 33.5455 37.49 32.9793 37.6066C32.4754 37.7064 32.463 37.7106 32.1965 37.9395C32.0466 38.0643 31.9008 38.1684 31.8675 38.1684C31.8384 38.1684 31.5178 37.9769 31.1638 37.7439C30.4601 37.2861 30.481 37.3152 30.5393 36.949C30.5601 36.8325 30.5851 36.7992 30.635 36.8159C30.6725 36.8242 31.3554 36.9657 32.1548 37.128ZM34.803 37.6315C34.9696 37.6648 35.0112 37.6939 35.0112 37.7605C35.0112 37.8271 34.9904 37.8396 34.8988 37.8188C34.8322 37.8105 34.6948 37.7855 34.5865 37.773C34.4241 37.7522 34.3866 37.7314 34.3866 37.6648C34.3866 37.5733 34.4866 37.5649 34.803 37.6315ZM35.794 37.8146C35.8065 37.8271 35.7982 37.8562 35.7732 37.8812C35.7066 37.9478 35.3443 37.8854 35.3443 37.8021C35.3443 37.7522 35.3818 37.7439 35.5567 37.7647C35.6774 37.7813 35.7815 37.8021 35.794 37.8146ZM65.8236 37.9894C66.0068 38.0393 66.0734 38.0768 66.0734 38.1309C66.0734 38.2141 66.0609 38.2183 65.2198 38.3348C64.8784 38.3806 64.5453 38.4264 64.4828 38.4388C64.3912 38.4513 64.3662 38.443 64.3662 38.3847C64.3662 38.3307 64.4537 38.2932 64.7743 38.2183C65.0783 38.1475 65.199 38.0976 65.2698 38.0227C65.3739 37.8979 65.4822 37.8937 65.8236 37.9894ZM67.7473 38.5346C67.9347 38.6344 67.943 38.6469 67.9721 38.8716C68.0221 39.2545 68.0179 42.0677 67.9638 42.1218C67.893 42.1925 67.6557 42.1218 67.5807 42.0052C67.5433 41.947 67.4558 41.7306 67.3809 41.5225C67.2268 41.0689 67.1893 41.0439 66.623 40.9857C66.1484 40.9357 66.1151 40.9524 66.19 41.2312C66.2192 41.3352 66.3066 41.5059 66.3815 41.6057C66.5523 41.8305 66.6772 42.2841 66.6355 42.5337L66.6106 42.696L66.1734 42.7501C65.7403 42.8001 65.7361 42.8042 65.682 42.9291C65.6321 43.0456 65.6362 43.0706 65.7278 43.1954L65.8319 43.3327L65.682 44.0152C65.5987 44.3939 65.5321 44.7102 65.5321 44.7185C65.5321 44.7476 65.045 45.118 65.0033 45.118C64.9867 45.118 64.9367 45.0598 64.8992 44.989C64.8118 44.8392 64.7701 44.8475 64.3829 45.0598C64.2455 45.1388 64.1081 45.2013 64.0831 45.2013C64.0581 45.2013 63.8541 44.9682 63.6334 44.6811C63.4086 44.3939 63.2045 44.1609 63.1796 44.1609C63.1546 44.1609 62.9214 44.1318 62.6632 44.0985L62.1927 44.036L61.7472 44.3024L61.3058 44.5687L60.6688 44.5479L60.0275 44.5229L60.0525 44.165C60.1108 43.3744 60.1566 41.1022 60.1316 40.1867L60.1066 39.217L60.498 39.1879C60.7146 39.1713 61.3849 39.113 61.9929 39.0589C62.6008 39.0006 63.217 38.9465 63.3669 38.9299L63.6376 38.9091L63.6501 39.1713C63.6626 39.4626 63.7209 39.7247 63.8041 39.8538C63.8458 39.9245 63.8916 39.937 64.0248 39.9245L64.1872 39.9079L64.233 39.6332C64.258 39.4792 64.3121 39.2295 64.3538 39.0756L64.4287 38.7967L64.6369 38.7718C64.9783 38.726 66.7438 38.4638 66.9478 38.4222C67.2185 38.3723 67.5224 38.4139 67.7473 38.5346ZM30.6184 39.1838L30.2644 39.7123V39.9994C30.2644 40.3323 30.1937 40.4405 29.8522 40.6652C29.6274 40.8067 29.5566 40.9399 29.5566 41.227C29.5566 41.4601 29.3984 41.689 28.8945 42.1967C28.6739 42.4214 28.3949 42.7377 28.27 42.9C28.1451 43.0664 28.0285 43.1913 28.0118 43.1829C27.9785 43.158 27.8203 42.5795 27.7911 42.3506L27.7703 42.1842L28.2158 41.7805C28.4615 41.56 28.7446 41.3061 28.8487 41.2146L29.0361 41.0439L28.8612 41.0689C28.7613 41.0814 28.6822 41.0814 28.6822 41.0689C28.6822 41.0523 28.8196 40.8317 28.9903 40.5695C29.2485 40.17 29.3526 40.0535 29.644 39.8205C29.8356 39.6706 30.0937 39.4293 30.2186 39.292C30.4393 39.0381 30.9265 38.6095 30.9556 38.6386C30.964 38.6469 30.8141 38.8924 30.6184 39.1838ZM43.1973 38.8342C43.2306 38.8342 43.2556 38.8633 43.2556 38.8966C43.2556 38.9549 43.2431 38.9549 43.1307 38.8966C43.0016 38.83 42.9558 38.7634 43.0724 38.8092C43.1099 38.8217 43.164 38.8342 43.1973 38.8342ZM44.9836 39.0006C46.7949 39.1629 48.8143 39.2878 50.6589 39.3585L51.4167 39.3877L51.4126 41.4726C51.4084 42.617 51.3959 44.2316 51.3792 45.0556L51.3543 46.5537L50.6256 46.5412C49.0225 46.5121 45.4208 46.3748 44.13 46.2916L43.6928 46.2624L43.6553 45.8629L43.6179 45.4593L44.1467 44.5895L44.6713 43.7239V42.3756V41.0273L44.1508 40.0743C43.8052 39.4418 43.6304 39.0756 43.6304 38.9923V38.8675L43.851 38.8924C43.9676 38.9049 44.4798 38.9549 44.9836 39.0006ZM68.6175 39.2587C68.8007 39.525 68.9215 39.783 68.9673 39.9994C68.9839 40.0785 69.0422 40.2449 69.1005 40.3615C69.1921 40.5487 69.2005 40.5987 69.1588 40.711C69.1338 40.7859 69.113 41.0273 69.113 41.252V41.6557L68.9215 41.8263C68.7591 41.9678 68.4301 42.1218 68.3843 42.0718C68.376 42.0635 68.3635 41.3519 68.3552 40.4905C68.3385 38.7468 68.3219 38.8217 68.6175 39.2587ZM59.7694 39.6124C59.7985 39.9911 59.7527 43.3577 59.7069 44.0985L59.6819 44.5146L59.5195 44.5354L59.3572 44.5562L59.2281 44.9308L59.099 45.3011L58.6535 45.6216C58.2454 45.9129 58.1705 45.9503 57.8207 46.0335C57.6083 46.0876 57.2877 46.175 57.1087 46.2291C56.8255 46.3165 56.7756 46.3457 56.7381 46.4539L56.6965 46.5745L54.2107 46.5662L51.729 46.5537L51.7415 44.0985C51.7457 42.746 51.7623 41.1355 51.7748 40.5196L51.804 39.396L53.4528 39.4126C54.9768 39.4251 57.5834 39.3669 58.7659 39.2961C59.0407 39.2753 59.3696 39.2587 59.5029 39.2587L59.7361 39.2503L59.7694 39.6124ZM27.7245 43.6199C27.7037 43.6573 27.662 43.7114 27.6287 43.7406C27.5621 43.7947 27.5496 43.7322 27.4955 43.0165L27.4705 42.7252L27.6162 43.1413C27.712 43.416 27.7495 43.5783 27.7245 43.6199ZM67.8889 43.7531C67.8389 44.4189 67.689 45.7214 67.6598 45.7506C67.6224 45.7922 66.7105 45.9212 65.5071 46.0502C64.029 46.2125 63.8499 46.2208 63.8749 46.1542C63.8874 46.1209 63.9374 45.9711 63.9873 45.8171C64.0748 45.555 64.0873 45.5383 64.2622 45.4801C64.4329 45.4218 64.4495 45.4218 64.5828 45.5134C64.8159 45.6715 64.8701 45.6715 65.2656 45.5092C65.986 45.2221 66.0193 45.1929 66.2441 44.731L66.4398 44.319L67.1394 43.8696C67.5266 43.6241 67.8597 43.416 67.8805 43.416C67.9013 43.4118 67.9055 43.5616 67.8889 43.7531ZM75.3171 44.7768C74.984 47.0989 74.2678 49.5001 73.2977 51.56L73.0562 52.0677L72.6773 52.1884C71.7113 52.4963 70.1915 52.8667 68.7799 53.133C67.9888 53.2828 66.2733 53.5658 66.1525 53.5658C66.0942 53.5658 66.1192 53.4743 66.2816 53.0332C66.9062 51.381 67.4683 49.2004 67.8264 47.0781C67.9138 46.5412 67.9929 46.1001 67.9971 46.0918C68.0054 46.0876 68.2636 46.0419 68.5717 45.9919C71.2324 45.5591 73.5642 44.9349 74.9924 44.2691C75.2047 44.1734 75.3879 44.1068 75.3921 44.1276C75.4004 44.1442 75.3671 44.4355 75.3171 44.7768ZM39.5123 45.9836C39.429 45.9919 39.2791 45.9878 39.1792 45.9711L39.0002 45.942L39.1126 45.8255L39.2209 45.7131L39.4415 45.8421L39.6622 45.9711L39.5123 45.9836ZM43.3097 45.9794L43.3306 46.2416H43.1598C43.0641 46.2416 42.9142 46.2291 42.8309 46.2167L42.6768 46.1875L42.9766 45.9503C43.1432 45.8171 43.2806 45.7131 43.2806 45.7131C43.2848 45.7173 43.2972 45.838 43.3097 45.9794ZM67.614 46.2C67.614 46.2208 67.5474 46.6245 67.4683 47.0947C67.1394 49.0298 66.648 50.9607 66.0609 52.6087C65.782 53.3869 65.6737 53.6491 65.6237 53.6491C65.6029 53.6491 65.1949 53.6948 64.7202 53.7531C63.6667 53.8779 62.0137 54.0361 61.9262 54.0153C61.8846 54.0069 61.9679 53.9237 62.1511 53.7822C62.4092 53.5866 62.5508 53.4077 63.5876 51.9678C64.2205 51.0897 64.7493 50.3448 64.7618 50.3115C64.7826 50.2616 64.6702 49.9329 64.4745 49.446C64.4537 49.396 64.5203 49.3419 64.7202 49.2379C64.8701 49.1588 64.9908 49.0797 64.9908 49.0631C64.9908 49.0465 64.6827 48.5471 64.308 47.9478C63.6459 46.895 63.6251 46.8575 63.6667 46.7243C63.7084 46.587 63.7209 46.5829 63.9665 46.5579C64.8992 46.4663 66.3441 46.3082 66.8021 46.2458C67.4516 46.1542 67.614 46.1459 67.614 46.2ZM40.6949 46.4289C41.5443 46.4871 42.477 46.5496 42.7768 46.5662L43.3181 46.5953L43.3472 46.7618C43.3639 46.8534 43.4055 47.3319 43.443 47.823C43.5637 49.4251 43.8219 51.4892 44.0884 53.004C44.155 53.391 44.2008 53.7156 44.1925 53.724C44.1383 53.7822 37.8093 53.0165 37.1931 52.8792C37.1223 52.8625 37.0723 52.7418 36.8933 52.1842C36.5643 51.1397 36.3436 50.2824 36.3436 50.0452C36.3436 49.8413 36.3728 49.783 36.7933 49.1006L37.2472 48.3723L37.3013 47.5025C37.3305 47.0281 37.3721 46.6162 37.3929 46.5912C37.4137 46.5621 37.6469 46.5288 37.9675 46.5121C38.463 46.483 38.5088 46.4747 38.6004 46.3789C38.6837 46.2874 38.717 46.2791 38.9252 46.2999C39.0501 46.3165 39.8496 46.3706 40.6949 46.4289ZM45.6915 46.7202C47.2113 46.7909 48.8518 46.8492 50.3425 46.8908L51.3709 46.9199L51.3459 50.5446C51.3334 52.5379 51.3126 54.1817 51.296 54.1942C51.221 54.2733 44.6921 53.8488 44.6047 53.7614C44.5672 53.7281 44.4007 52.8126 44.2591 51.8596C44.0426 50.4281 43.8136 48.3723 43.7303 47.0573L43.7011 46.6078L44.0301 46.6328C44.2091 46.6453 44.9586 46.6869 45.6915 46.7202ZM56.5382 46.9407C56.5382 46.9449 56.4841 47.0573 56.4175 47.1904C56.3509 47.3236 56.2759 47.5109 56.2509 47.6066C56.226 47.7023 56.1843 47.8604 56.1593 47.9561L56.1135 48.1309L56.0427 48.0352C55.972 47.9437 55.9636 47.9437 55.847 48.0019C55.7804 48.0352 55.693 48.1309 55.6472 48.21C55.5597 48.3765 55.489 48.4056 55.1434 48.4056C54.9227 48.4056 54.7103 48.4763 53.3737 48.984C52.5368 49.3045 51.8206 49.575 51.7831 49.5916C51.7124 49.6207 51.7082 49.5417 51.7082 48.2932C51.7082 47.5608 51.7165 46.9532 51.7248 46.9449C51.7457 46.9283 56.5382 46.9199 56.5382 46.9407ZM52.3453 51.381C52.4244 51.5683 52.541 51.8804 52.6076 52.076L52.7242 52.4381L52.6617 53.2204C52.6076 53.8738 52.6076 54.0194 52.6534 54.1151C52.6825 54.1776 52.695 54.2358 52.6742 54.2441C52.6575 54.2566 52.4244 54.2525 52.1579 54.2441L51.6666 54.2192V52.592C51.6666 51.6973 51.679 50.8692 51.6915 50.7527L51.7207 50.5363L51.9622 50.7943C52.1412 50.9815 52.2412 51.1355 52.3453 51.381ZM36.4061 51.793C36.4935 52.0927 36.5976 52.4339 36.6393 52.5629C36.6851 52.6877 36.7142 52.7918 36.7101 52.8001C36.7017 52.8043 36.5685 52.7876 36.4061 52.7585L36.1146 52.7127L36.0855 52.4297C36.0647 52.2217 36.023 52.0843 35.9106 51.8887L35.7649 51.6307L35.9814 51.4143C36.098 51.2937 36.2062 51.2063 36.2229 51.2271C36.2395 51.2437 36.3187 51.4976 36.4061 51.793ZM72.6481 52.8459C71.0784 55.7173 68.9381 58.2392 66.3024 60.3365L65.9235 60.632L65.0741 60.8026C64.0415 61.0065 63.2545 61.1356 62.097 61.302C61.6181 61.3728 61.1476 61.4393 61.0602 61.4518C60.8936 61.4768 60.8978 61.4726 61.5806 60.7777C63.3003 59.0215 64.6327 56.9699 65.7736 54.3232L65.9319 53.9612L66.2608 53.9112C67.6932 53.6865 68.5592 53.5367 69.3629 53.3744C70.2831 53.1871 72.0152 52.7668 72.5065 52.6128C72.644 52.5671 72.773 52.5296 72.7897 52.5296C72.8105 52.5255 72.7439 52.6711 72.6481 52.8459ZM36.6101 53.1497C36.7475 53.1705 36.86 53.1954 36.8641 53.1996C36.8683 53.2079 36.9391 53.4077 37.0265 53.6491C38.005 56.3415 39.5248 58.8842 41.3069 60.8193C41.5942 61.1272 41.6609 61.2229 41.5859 61.2063C41.5318 61.1938 41.207 61.1356 40.8614 61.0773C39.9245 60.915 38.5713 60.6237 37.4137 60.3407L36.377 60.0827L35.9148 59.6874C35.3527 59.2129 34.2617 58.1476 34.2617 58.0769C34.2617 58.0519 34.5324 57.3195 34.8613 56.4539C35.3776 55.1097 35.515 54.7893 35.7982 54.2941L36.1355 53.7115V53.391V53.0664L36.252 53.0873C36.3145 53.0997 36.4769 53.1247 36.6101 53.1497ZM38.3423 53.3994C39.6414 53.5825 41.7483 53.8405 42.9225 53.9612C44.1508 54.086 44.2966 54.1068 44.2966 54.1359C44.2966 54.2233 44.6713 55.8297 44.842 56.4664C45.3583 58.3973 46.1287 60.3906 46.8115 61.5517C46.8948 61.6973 46.9573 61.8222 46.9489 61.8347C46.9073 61.8721 44.7463 61.6516 43.1723 61.4435L42.3187 61.3311L41.9024 60.915C40.0953 59.1006 38.6004 56.7119 37.4887 53.8613C37.3638 53.5367 37.2597 53.2662 37.2597 53.2537C37.2597 53.2412 37.3013 53.2412 37.3555 53.2537C37.4054 53.2662 37.851 53.3286 38.3423 53.3994ZM65.4905 54.061C65.4905 54.1859 64.6536 55.9004 64.208 56.6869C63.6043 57.7564 62.7715 58.9258 61.9637 59.8497C61.539 60.3365 60.4939 61.3728 60.3065 61.4976C60.2607 61.5267 60.0942 61.5642 59.9359 61.5808C59.6611 61.61 59.6486 61.6058 59.6778 61.5309C59.6986 61.4893 59.9359 60.5155 60.2066 59.3711C60.5855 57.7897 60.7312 57.1072 60.8103 56.5205C60.9269 55.6507 61.1601 54.5895 61.2559 54.4938C61.3058 54.4439 61.5515 54.4106 62.2802 54.3482C62.8048 54.3066 63.6917 54.215 64.2497 54.1526C65.4239 54.0153 65.4905 54.0111 65.4905 54.061ZM45.5041 54.2109C46.874 54.3315 48.7186 54.4522 50.7214 54.5479L51.2918 54.5729V56.2292C51.2918 57.1364 51.2793 58.8093 51.2627 59.9454L51.2377 62.0136H50.6298C50.0385 62.0136 48.781 61.9637 47.8691 61.9054L47.4194 61.8763L47.3195 61.7057C46.2827 59.9329 45.4999 57.8313 44.8837 55.1597C44.7671 54.6603 44.6713 54.2275 44.6713 54.1984C44.6713 54.1359 44.6671 54.1359 45.5041 54.2109ZM52.4244 54.6062H52.8741L53.0823 55.0223L53.2904 55.4385H53.4778C53.6319 55.4385 53.7401 55.4843 54.1607 55.7381C54.5729 55.992 54.6604 56.0627 54.6812 56.1626C54.6937 56.2292 54.7062 56.5579 54.7062 56.8992V57.5192L54.8394 57.7356C54.956 57.9271 54.9726 57.9853 54.9685 58.2267L54.9601 58.4972L55.2808 58.9924L55.6014 59.4876L55.8928 59.5667C56.0511 59.6124 56.1885 59.6541 56.201 59.6624C56.2093 59.6749 56.1468 59.7872 56.0636 59.9121C55.9803 60.0411 55.922 60.1618 55.9345 60.1826C55.947 60.2034 56.0969 60.2949 56.2676 60.3906C56.4383 60.4864 56.5799 60.5904 56.5799 60.6237C56.5799 60.6944 56.0011 61.8305 55.9386 61.8846C55.872 61.9387 53.9816 62.0136 52.695 62.0136H51.5958L51.6124 59.7123C51.6208 58.4514 51.6374 56.7702 51.6499 55.9836L51.6749 54.5563L51.8289 54.5812C51.9122 54.5937 52.1787 54.6062 52.4244 54.6062ZM37.9301 60.8234C38.8669 61.0523 40.3076 61.3436 41.3402 61.5142C41.944 61.6183 42.1355 61.6641 42.223 61.7348C42.2813 61.7847 42.4978 61.9678 42.7018 62.1426C44.1342 63.3661 46.137 64.5147 47.7734 65.0515C48.1898 65.1847 48.1856 65.218 47.765 65.1514C44.1383 64.5813 40.6324 63.1497 37.6053 61.0065C37.1847 60.7111 37.0973 60.6403 37.1514 60.6403C37.1598 60.6403 37.5095 60.7236 37.9301 60.8234ZM56.9338 61.2604C56.9671 61.4685 57.0712 61.5892 57.2461 61.6266C57.3335 61.6433 57.371 61.6724 57.371 61.7306C57.371 61.8305 57.3502 61.8347 56.8172 61.868L56.3675 61.8929L56.6049 61.4269C56.8505 60.9316 56.8755 60.9192 56.9338 61.2604ZM65.1574 61.1605C65.1574 61.1896 64.4703 61.6433 63.9082 61.9803C62.5716 62.7835 61.1393 63.4701 59.6694 64.007L59.3238 64.136L59.353 63.416L59.378 62.7003L59.5071 62.5962C60.1358 62.0927 60.4398 61.8805 60.5522 61.8638C60.623 61.8555 61.1143 61.7889 61.6389 61.7182C62.5508 61.6016 64.5703 61.2729 64.9284 61.1896C65.1407 61.1356 65.1574 61.1356 65.1574 61.1605ZM43.8843 61.8888C44.4215 61.9554 45.3084 62.0511 45.858 62.0969C47.3237 62.2259 47.1904 62.1967 47.3445 62.4214C48.2397 63.7406 49.1974 64.6229 50.3549 65.2055L50.813 65.4344L50.5423 65.4094C50.3924 65.3969 49.9344 65.3012 49.5222 65.2013C47.8025 64.7727 46.2619 64.1277 44.8254 63.2454C44.0759 62.7835 42.731 61.7681 42.8642 61.7639C42.885 61.7639 43.3472 61.818 43.8843 61.8888ZM59.5987 62.076C59.4654 62.1842 59.4113 62.205 59.4113 62.1426C59.4113 62.0303 59.4737 61.972 59.5945 61.972H59.7236L59.5987 62.076ZM57.3127 62.5629C57.2544 63.3078 57.1795 63.4826 56.9505 63.3994C56.838 63.3578 56.8297 63.3578 56.8297 63.4493C56.8297 63.7614 56.8089 63.7822 56.3134 64.0028C56.0594 64.1152 55.618 64.2941 55.3307 64.3981C54.8394 64.5771 53.8317 64.8892 53.8317 64.8642C53.8317 64.8601 53.9692 64.7519 54.1357 64.6229C54.727 64.1693 55.4848 63.3078 55.9761 62.5338C56.0594 62.3965 56.1385 62.2758 56.1468 62.2675C56.1593 62.255 56.8547 62.1967 57.1587 62.1842L57.3419 62.1801L57.3127 62.5629ZM49.6055 62.3257C50.0885 62.3382 50.6547 62.359 50.8713 62.3715L51.2627 62.3965L51.2377 63.7698C51.2252 64.5272 51.2044 65.1514 51.196 65.1597C51.1711 65.1888 50.5382 64.9142 50.23 64.7394C49.5139 64.3399 48.6103 63.5159 48.0107 62.7169C47.8442 62.4964 47.7109 62.3049 47.7109 62.2841C47.7109 62.2675 47.9399 62.2633 48.2231 62.28C48.502 62.2924 49.1266 62.3174 49.6055 62.3257ZM55.7055 62.2883C55.7055 62.384 55.0059 63.2912 54.5937 63.7198C53.7943 64.5604 52.7117 65.1722 51.8248 65.2804L51.5833 65.3095V63.853V62.4006L53.0115 62.3673C54.2107 62.3424 55.4515 62.2966 55.6555 62.2716C55.6805 62.2675 55.7055 62.2758 55.7055 62.2883ZM56.6923 64.548L56.6507 64.8809L56.4425 64.9267C55.6222 65.1014 54.4855 65.2721 53.8109 65.322L53.4778 65.347L54.0608 65.1805C54.8227 64.9641 55.6513 64.677 56.2218 64.4273C56.4758 64.3191 56.6923 64.2275 56.7048 64.2234C56.7173 64.2192 56.7131 64.369 56.6923 64.548Z" fill="#04A201"/>
<defs>
<filter id="filter0_iiiii_2009_699" x="26" y="3.41375" width="51" height="62.4737" filterUnits="userSpaceOnUse" color-interpolation-filters="sRGB">
<feFlood flood-opacity="0" result="BackgroundImageFix"/>
<feBlend mode="normal" in="SourceGraphic" in2="BackgroundImageFix" result="shape"/>
<feColorMatrix in="SourceAlpha" type="matrix" values="0 0 0 0 0 0 0 0 0 0 0 0 0 0 0 0 0 0 127 0" result="hardAlpha"/>
<feOffset dy="-1.58258"/>
<feGaussianBlur stdDeviation="1.7804"/>
<feComposite in2="hardAlpha" operator="arithmetic" k2="-1" k3="1"/>
<feColorMatrix type="matrix" values="0 0 0 0 0.117647 0 0 0 0 0.623529 0 0 0 0 0.0784314 0 0 0 0.49 0"/>
<feBlend mode="normal" in2="shape" result="effect1_innerShadow_2009_699"/>
<feColorMatrix in="SourceAlpha" type="matrix" values="0 0 0 0 0 0 0 0 0 0 0 0 0 0 0 0 0 0 127 0" result="hardAlpha"/>
<feOffset dy="-6.72597"/>
<feGaussianBlur stdDeviation="3.36298"/>
<feComposite in2="hardAlpha" operator="arithmetic" k2="-1" k3="1"/>
<feColorMatrix type="matrix" values="0 0 0 0 0.117647 0 0 0 0 0.623529 0 0 0 0 0.0784314 0 0 0 0.43 0"/>
<feBlend mode="normal" in2="effect1_innerShadow_2009_699" result="effect2_innerShadow_2009_699"/>
<feColorMatrix in="SourceAlpha" type="matrix" values="0 0 0 0 0 0 0 0 0 0 0 0 0 0 0 0 0 0 127 0" result="hardAlpha"/>
<feOffset dy="-14.6389"/>
<feGaussianBlur stdDeviation="4.3521"/>
<feComposite in2="hardAlpha" operator="arithmetic" k2="-1" k3="1"/>
<feColorMatrix type="matrix" values="0 0 0 0 0.117647 0 0 0 0 0.623529 0 0 0 0 0.0784314 0 0 0 0.25 0"/>
<feBlend mode="normal" in2="effect2_innerShadow_2009_699" result="effect3_innerShadow_2009_699"/>
<feColorMatrix in="SourceAlpha" type="matrix" values="0 0 0 0 0 0 0 0 0 0 0 0 0 0 0 0 0 0 127 0" result="hardAlpha"/>
<feOffset dy="-26.1126"/>
<feGaussianBlur stdDeviation="5.14338"/>
<feComposite in2="hardAlpha" operator="arithmetic" k2="-1" k3="1"/>
<feColorMatrix type="matrix" values="0 0 0 0 0.117647 0 0 0 0 0.623529 0 0 0 0 0.0784314 0 0 0 0.07 0"/>
<feBlend mode="normal" in2="effect3_innerShadow_2009_699" result="effect4_innerShadow_2009_699"/>
<feColorMatrix in="SourceAlpha" type="matrix" values="0 0 0 0 0 0 0 0 0 0 0 0 0 0 0 0 0 0 127 0" result="hardAlpha"/>
<feOffset dy="-40.7514"/>
<feGaussianBlur stdDeviation="5.73685"/>
<feComposite in2="hardAlpha" operator="arithmetic" k2="-1" k3="1"/>
<feColorMatrix type="matrix" values="0 0 0 0 0.117647 0 0 0 0 0.623529 0 0 0 0 0.0784314 0 0 0 0.01 0"/>
<feBlend mode="normal" in2="effect4_innerShadow_2009_699" result="effect5_innerShadow_2009_699"/>
</filter>
</defs>
</svg>
