<svg width="92" height="79" viewBox="0 0 92 79" fill="none" xmlns="http://www.w3.org/2000/svg">
<g id="Group 1171277347">
<path id="Vector" d="M67.2219 6.91786C70.009 7.35034 72.2562 8.01894 75.2022 9.72268C75.6022 10.0332 75.9975 10.3535 76.3879 10.6834C76.3737 10.7966 76.3454 10.939 76.3017 11.1405C76.2205 11.5154 76.0447 11.9825 75.8016 12.4609C76.5 13.3461 77.1727 14.262 77.8181 15.2066C78.2436 14.5153 78.6009 13.7736 78.8479 12.9779C80.3304 14.4781 81.7153 16.1243 82.9877 17.8989C82.9906 18.2157 82.8863 18.5868 82.6485 19.1072C82.3643 19.7286 81.864 20.4196 81.2489 21.054C81.7745 22.1159 82.2566 23.1823 82.6928 24.2575C83.6608 23.371 84.4978 22.32 85.0766 21.1003C86.4861 23.4863 87.6926 26.0394 88.675 28.7149C88.5695 29.2124 88.3027 29.7085 87.862 30.2732C87.2407 31.0694 86.271 31.8313 85.1651 32.4016C85.4116 33.592 85.6062 34.7847 85.7585 35.9714C87.3734 35.262 88.8573 34.2148 89.9561 32.8065C89.9622 32.7984 89.9694 32.7917 89.9755 32.7836C90.7341 35.5714 91.2539 38.4343 91.5259 41.3228C91.3159 42.0481 90.8398 42.6423 90.0665 43.2109C89.0724 43.9418 87.6221 44.4422 86.0767 44.6101C86.0108 45.8138 85.9002 47.006 85.7463 48.1819C87.8787 48.081 89.9588 47.4931 91.6173 46.2738C91.6625 46.2405 91.7057 46.2038 91.7504 46.1693C91.7421 49.1558 91.4665 52.1116 90.9288 54.9825C90.5108 55.6262 89.8581 56.0557 88.9379 56.3603C87.5944 56.8053 85.7643 56.7806 83.9317 56.322C83.5827 57.4229 83.1959 58.5023 82.7724 59.5576C85.1651 60.2907 87.6345 60.4709 89.7619 59.7846C88.8433 62.8404 87.6202 65.7222 86.12 68.366C85.5475 68.783 84.8071 68.9631 83.8698 68.9564C82.3884 68.9459 80.5273 68.3159 78.748 67.2657C78.7471 67.2669 78.744 67.2657 78.7433 67.2668C78.1355 68.1826 77.4951 69.0635 76.8238 69.9073C78.9542 71.3229 81.2514 72.2866 83.4273 72.4521C81.9961 74.3356 80.4088 76.026 78.6887 77.4983C77.9786 77.7495 77.1399 77.6809 76.1399 77.3475C74.8726 76.9246 73.4375 76.0017 72.0722 74.7691C69.82 76.6219 67.3833 78.0635 64.8242 79.0001L63.8683 75.6135C65.916 74.8637 67.8935 73.7289 69.7562 72.2822C68.3301 70.4663 67.1854 68.3977 66.6072 66.5436C66.0943 64.8972 65.9928 63.5546 66.3643 62.4413C67.4935 61.8656 68.5539 61.155 69.5404 60.3262C69.8069 61.5183 70.2754 62.6714 70.8727 63.7142C71.7626 65.2687 72.9359 66.6765 74.2619 67.898C74.929 67.0974 75.5651 66.2579 76.1681 65.382C74.927 64.2839 73.857 63.0275 73.1481 61.7894C72.2438 60.2106 71.9166 58.8657 72.206 57.5874C73.1605 56.398 74.0119 55.0735 74.7576 53.6378C75.1786 54.372 75.6852 55.0411 76.2424 55.631C77.3147 56.766 78.5946 57.6924 79.9707 58.4116C80.4005 57.3932 80.7967 56.3512 81.1509 55.28C79.9243 54.6613 78.8194 53.8755 78.0021 53.0102C77.0155 51.9656 76.4779 50.965 76.3766 49.8861C76.8691 48.4798 77.271 47.0216 77.5789 45.5245C78.0156 45.9427 78.484 46.3048 78.9762 46.6049C80.1628 47.3265 81.4934 47.7819 82.8663 48.0127C83.0358 46.8681 83.1666 45.7099 83.2457 44.5385C82.0639 44.3533 80.9561 43.9811 80.0957 43.4576C79.0956 42.8494 78.4829 42.1836 78.2002 41.3379C78.3487 39.728 78.4023 38.0998 78.3608 36.466C78.6755 36.5995 78.9962 36.7056 79.3203 36.7833C80.5256 37.068 81.8014 37.0527 83.0675 36.8124C82.9351 35.6374 82.7529 34.4682 82.5216 33.3096C81.4889 33.5046 80.4883 33.5151 79.6833 33.325C78.939 33.1491 78.4248 32.8874 78.0765 32.4949C77.8608 30.6248 77.5292 28.7695 77.0848 26.9457C77.1843 26.9422 77.2812 26.9338 77.3791 26.9241C78.3801 26.8263 79.378 26.477 80.3296 25.9606C79.9052 24.9012 79.4305 23.8441 78.9073 22.7941C78.2259 23.1375 77.5504 23.3547 76.9849 23.41C76.5899 23.4486 76.2903 23.4288 76.0502 23.3598C75.52 21.777 74.9024 20.236 74.2021 18.7484C74.7896 18.4656 75.3422 18.0708 75.8589 17.6017C75.2246 16.6681 74.5622 15.7639 73.8735 14.8911C73.5544 15.154 73.2421 15.3646 72.9636 15.4902C72.8072 15.5604 72.6761 15.6101 72.565 15.6395C72.1059 14.8484 71.6318 14.0822 71.1358 13.3479C69.8286 11.369 68.4063 9.29181 67.2219 6.91786Z" fill="#1E9F14"/>
<path id="Vector_2" d="M24.5284 6.91786C21.7413 7.35034 19.4941 8.01894 16.5481 9.72268C16.1481 10.0332 15.7528 10.3535 15.3624 10.6834C15.3766 10.7966 15.4049 10.939 15.4486 11.1405C15.5298 11.5154 15.7056 11.9825 15.9487 12.4609C15.2503 13.3461 14.5776 14.262 13.9322 15.2066C13.5067 14.5153 13.1494 13.7736 12.9024 12.9779C11.4199 14.4781 10.035 16.1243 8.76256 17.8989C8.75966 18.2157 8.86403 18.5868 9.10182 19.1072C9.38602 19.7286 9.88625 20.4196 10.5014 21.054C9.97582 22.1159 9.49367 23.1823 9.05752 24.2575C8.08951 23.371 7.25245 22.32 6.67372 21.1003C5.26419 23.4863 4.05768 26.0394 3.07527 28.7149C3.18085 29.2124 3.44758 29.7085 3.88833 30.2732C4.50963 31.0694 5.47929 31.8313 6.58523 32.4016C6.33868 33.592 6.14407 34.7847 5.99181 35.9714C4.37686 35.262 2.89295 34.2148 1.7942 32.8065C1.78811 32.7984 1.78085 32.7917 1.77476 32.7836C1.01622 35.5714 0.496445 38.4343 0.224401 41.3228C0.434355 42.0481 0.910493 42.6423 1.68376 43.2109C2.67785 43.9418 4.12823 44.4422 5.67358 44.6101C5.73948 45.8138 5.85006 47.006 6.00401 48.1819C3.87164 48.081 1.79154 47.4931 0.13299 46.2738C0.0877612 46.2405 0.0446007 46.2038 -7.40374e-05 46.1693C0.00821802 49.1558 0.283772 52.1116 0.821529 54.9825C1.23945 55.6262 1.89218 56.0557 2.81244 56.3603C4.15592 56.8053 5.98597 56.7806 7.8186 56.322C8.16763 57.4229 8.55441 58.5023 8.97792 59.5576C6.58523 60.2907 4.11584 60.4709 1.98836 59.7846C2.90703 62.8404 4.13005 65.7222 5.63026 68.366C6.20276 68.783 6.94315 68.9631 7.88045 68.9564C9.36186 68.9459 11.223 68.3159 13.0023 67.2657C13.0032 67.2669 13.0063 67.2657 13.007 67.2668C13.6148 68.1826 14.2552 69.0635 14.9265 69.9073C12.7961 71.3229 10.4989 72.2866 8.32297 72.4521C9.75416 74.3356 11.3415 76.026 13.0615 77.4983C13.7717 77.7495 14.6104 77.6809 15.6104 77.3475C16.8777 76.9246 18.3128 76.0017 19.6781 74.7691C21.9303 76.6219 24.367 78.0635 26.9261 79.0001L27.882 75.6135C25.8343 74.8637 23.8568 73.7289 21.994 72.2822C23.4202 70.4663 24.5649 68.3977 25.1431 66.5436C25.656 64.8972 25.7575 63.5546 25.386 62.4413C24.2568 61.8656 23.1964 61.155 22.2099 60.3262C21.9434 61.5183 21.4749 62.6714 20.8776 63.7142C19.9877 65.2687 18.8144 66.6765 17.4884 67.898C16.8213 67.0974 16.1852 66.2579 15.5822 65.382C16.8233 64.2839 17.8933 63.0275 18.6022 61.7894C19.5065 60.2106 19.8337 58.8657 19.5443 57.5874C18.5898 56.398 17.7384 55.0735 16.9927 53.6378C16.5717 54.372 16.065 55.0411 15.5079 55.631C14.4356 56.766 13.1557 57.6924 11.7796 58.4116C11.3498 57.3932 10.9536 56.3512 10.5994 55.28C11.826 54.6613 12.9309 53.8755 13.7482 53.0102C14.7348 51.9656 15.2724 50.965 15.3737 49.8861C14.8812 48.4798 14.4793 47.0216 14.1714 45.5245C13.7347 45.9427 13.2663 46.3048 12.774 46.6049C11.5874 47.3265 10.2569 47.7819 8.88399 48.0127C8.7145 46.8681 8.58367 45.7099 8.50464 44.5385C9.68636 44.3533 10.7942 43.9811 11.6546 43.4576C12.6547 42.8494 13.2674 42.1836 13.5501 41.3379C13.4016 39.728 13.348 38.0998 13.3895 36.466C13.0748 36.5995 12.7541 36.7056 12.43 36.7833C11.2247 37.068 9.94885 37.0527 8.6828 36.8124C8.81523 35.6374 8.99744 34.4682 9.22867 33.3096C10.2614 33.5046 11.262 33.5151 12.067 33.325C12.8113 33.1491 13.3255 32.8874 13.6738 32.4949C13.8895 30.6248 14.2211 28.7695 14.6655 26.9457C14.566 26.9422 14.4691 26.9338 14.3712 26.9241C13.3702 26.8263 12.3723 26.477 11.4207 25.9606C11.8451 24.9012 12.3198 23.8441 12.843 22.7941C13.5244 23.1375 14.1999 23.3547 14.7654 23.41C15.1604 23.4486 15.46 23.4288 15.7001 23.3598C16.2303 21.777 16.8479 20.236 17.5482 18.7484C16.9607 18.4656 16.4081 18.0708 15.8914 17.6017C16.5257 16.6681 17.1881 15.7639 17.8768 14.8911C18.1959 15.154 18.5082 15.3646 18.7867 15.4902C18.9431 15.5604 19.0742 15.6101 19.1853 15.6395C19.6444 14.8484 20.1185 14.0822 20.6145 13.3479C21.9217 11.369 23.344 9.29181 24.5284 6.91786Z" fill="#1E9F14"/>
<path id="path2987" d="M33.5364 7.85996L31.3445 6.69841L29.1874 7.92908L29.5659 5.38898L27.7806 3.62267L30.2065 3.21443L31.2603 0.892135L32.381 3.17986L34.8176 3.51091L33.0844 5.33312L33.5364 7.85996Z" fill="#1E9F14" stroke="#1E9F14" stroke-width="0.757198"/>
<path id="path2987_2" d="M60.6789 7.85996L58.487 6.69841L56.3299 7.92908L56.7084 5.38898L54.9231 3.62267L57.349 3.21443L58.4028 0.892135L59.5235 3.17986L61.9601 3.51091L60.2269 5.33312L60.6789 7.85996Z" fill="#1E9F14" stroke="#1E9F14" stroke-width="0.757198"/>
</g>
</svg>
