<svg width="71" height="16" viewBox="0 0 71 16" fill="none" xmlns="http://www.w3.org/2000/svg">
<g id="GLOBAL DOLLARS">
<mask id="path-1-inside-1_2009_715" fill="white">
<path d="M3.50781 10.676C3.38008 10.5734 3.24601 10.4943 3.1056 10.4387C2.96574 10.3804 2.82142 10.3467 2.67265 10.3375C2.52552 10.3273 2.37607 10.3448 2.22432 10.39C2.0715 10.4337 1.92017 10.5038 1.77032 10.6003C1.50158 10.7734 1.30673 10.9936 1.18579 11.2609C1.06484 11.5282 1.03058 11.8287 1.083 12.1624C1.13598 12.4935 1.286 12.8419 1.53307 13.2077C1.78229 13.5767 2.05282 13.8509 2.34467 14.0304C2.63652 14.2099 2.93343 14.2983 3.2354 14.2955C3.5363 14.2912 3.82682 14.1988 4.10696 14.0183C4.36105 13.8547 4.5487 13.6654 4.66992 13.4504C4.79278 13.2343 4.84561 13.0063 4.82843 12.7663C4.81017 12.5247 4.72101 12.2854 4.56096 12.0484L4.78712 11.9473L3.42875 12.8221L2.96147 12.1303L4.99169 10.8227L5.38808 11.4096C5.6706 11.8279 5.82378 12.2485 5.84761 12.6713C5.87144 13.0942 5.7796 13.4911 5.57209 13.8621C5.3635 14.2316 5.05235 14.5495 4.63865 14.8159C4.17772 15.1128 3.70476 15.2725 3.21978 15.295C2.73536 15.3148 2.2692 15.2008 1.82131 14.9529C1.37398 14.7024 0.976283 14.3195 0.628235 13.8042C0.361827 13.4097 0.180893 13.0207 0.0854319 12.6371C-0.00840054 12.2525 -0.0249387 11.8855 0.0358173 11.5359C0.0954994 11.1848 0.226463 10.8631 0.428709 10.5708C0.62988 10.2769 0.894154 10.0245 1.22153 9.8137C1.49842 9.63538 1.78343 9.50887 2.07657 9.4342C2.36863 9.35793 2.65637 9.33237 2.93981 9.35752C3.22486 9.38162 3.4948 9.45426 3.7496 9.57545C4.00441 9.69663 4.23164 9.86524 4.43131 10.0813L3.50781 10.676Z"/>
<path d="M7.48329 12.9515L4.65672 7.79028L5.61419 7.29027L8.01153 11.6677L10.3394 10.4521L10.7686 11.2358L7.48329 12.9515Z"/>
<path d="M15.0558 6.31744C15.3051 6.89923 15.4069 7.44312 15.3614 7.94909C15.3169 8.45258 15.15 8.89248 14.8608 9.26878C14.5733 9.64435 14.1874 9.93103 13.7032 10.1288C13.219 10.3266 12.7382 10.3939 12.2607 10.3308C11.7842 10.2652 11.3459 10.0714 10.9458 9.74953C10.5467 9.42515 10.223 8.97293 9.97451 8.3929C9.7253 7.81111 9.62294 7.26847 9.66741 6.76498C9.71292 6.259 9.87942 5.81823 10.1669 5.44266C10.4562 5.06635 10.8429 4.77931 11.3271 4.58154C11.8113 4.38377 12.2913 4.31681 12.767 4.38066C13.2445 4.44378 13.6828 4.63753 14.0819 4.96191C14.482 5.2838 14.8066 5.73564 15.0558 6.31744ZM14.0488 6.72878C13.8733 6.31924 13.6597 6.00069 13.4078 5.77313C13.157 5.54308 12.8855 5.40304 12.5934 5.35301C12.3005 5.30123 12.0038 5.33673 11.7032 5.45951C11.4026 5.58228 11.1683 5.76367 11.0004 6.00366C10.8318 6.2419 10.7424 6.52934 10.7322 6.866C10.723 7.20016 10.8062 7.57202 10.9816 7.98156C11.157 8.3911 11.3701 8.71089 11.621 8.94095C11.8728 9.16851 12.1452 9.30818 12.4381 9.35996C12.7302 9.40998 13.0266 9.37361 13.3272 9.25083C13.6278 9.12805 13.8624 8.94755 14.0311 8.70931C14.199 8.46932 14.2875 8.18224 14.2966 7.84808C14.3068 7.51142 14.2242 7.13832 14.0488 6.72878Z"/>
<path d="M17.0239 8.74922L15.2839 3.14836L17.4796 2.49792C17.8941 2.37513 18.2584 2.3369 18.5725 2.38321C18.8879 2.42716 19.1477 2.53833 19.352 2.71674C19.5581 2.8946 19.7042 3.12209 19.7903 3.39921C19.8611 3.62711 19.8769 3.83547 19.8377 4.02428C19.7979 4.21127 19.718 4.37731 19.5979 4.52238C19.4778 4.66746 19.3312 4.78953 19.1581 4.8886L19.1751 4.94329C19.382 4.89394 19.5961 4.89722 19.8174 4.95313C20.0399 5.00666 20.2421 5.116 20.4239 5.28115C20.6057 5.44631 20.7408 5.67109 20.8291 5.95551C20.9192 6.2454 20.9283 6.52741 20.8565 6.80155C20.7841 7.07386 20.6238 7.31943 20.3758 7.53825C20.1278 7.75707 19.7843 7.93147 19.3456 8.06145L17.0239 8.74922ZM17.7995 7.59364L18.917 7.26261C19.2941 7.15089 19.544 7.00022 19.6665 6.81061C19.7904 6.61862 19.8178 6.41141 19.7487 6.18898C19.6971 6.02307 19.6087 5.88601 19.4833 5.77781C19.3574 5.66778 19.205 5.59743 19.0263 5.56676C18.8469 5.53427 18.6499 5.54983 18.4352 5.61344L17.2898 5.95276L17.7995 7.59364ZM17.0629 5.22257L18.0907 4.91809C18.27 4.86499 18.4216 4.78524 18.5455 4.67884C18.6689 4.57062 18.7532 4.44509 18.7986 4.30224C18.8452 4.15702 18.843 4.00237 18.7921 3.83828C18.7247 3.62132 18.5907 3.46588 18.3903 3.37195C18.1917 3.27747 17.9393 3.27558 17.6331 3.36629L16.5829 3.67741L17.0629 5.22257Z"/>
<path d="M22.8178 7.17643L21.6799 7.39125L22.6139 1.25362L23.93 1.00517L27.1423 6.36002L26.0044 6.57484L23.5282 2.30354L23.4823 2.31222L22.8178 7.17643ZM22.409 4.91623L25.5123 4.33037L25.6779 5.16653L22.5746 5.7524L22.409 4.91623Z"/>
<path d="M27.7605 6.29675L27.1624 0.473049L28.2427 0.367242L28.75 5.30659L31.3767 5.04934L31.4675 5.9337L27.7605 6.29675Z"/>
<path d="M36.1498 5.90268L34.1194 5.85093L34.2758 0L36.3471 0.0527937C36.942 0.0679557 37.4499 0.198113 37.8708 0.443266C38.2937 0.686563 38.6143 1.02922 38.8328 1.47124C39.0513 1.91326 39.1525 2.43805 39.1362 3.04562C39.1199 3.65509 38.9899 4.1759 38.7461 4.60804C38.5042 5.04023 38.1627 5.36792 37.7215 5.5911C37.2822 5.81433 36.7583 5.91819 36.1498 5.90268ZM35.2293 4.96153L36.1216 4.98427C36.539 4.99491 36.8892 4.9295 37.172 4.78805C37.455 4.6447 37.6706 4.42625 37.819 4.13271C37.9674 3.83727 38.0476 3.46576 38.0596 3.01818C38.0715 2.5706 38.0113 2.19741 37.8787 1.89862C37.7462 1.59792 37.5444 1.37074 37.2733 1.21708C37.0043 1.06156 36.6669 0.978632 36.2612 0.968292L35.3367 0.944729L35.2293 4.96153Z"/>
<path d="M45.6185 3.8441C45.5339 4.46929 45.3414 4.98927 45.0412 5.40405C44.7431 5.81718 44.3721 6.11519 43.9281 6.29807C43.4861 6.4812 43.0049 6.53916 42.4846 6.47195C41.9643 6.40474 41.5141 6.22647 41.1341 5.93715C40.7563 5.6462 40.4775 5.26329 40.2978 4.78845C40.1203 4.31196 40.0737 3.76206 40.1582 3.13876C40.2429 2.51357 40.4342 1.99441 40.7323 1.58127C41.0325 1.1665 41.4036 0.86755 41.8457 0.684419C42.2897 0.501539 42.7718 0.443704 43.2921 0.510915C43.8124 0.578125 44.2616 0.756264 44.6397 1.04533C45.0197 1.33465 45.2985 1.71755 45.476 2.19404C45.6557 2.66889 45.7032 3.21891 45.6185 3.8441ZM44.5363 3.70431C44.596 3.26422 44.5756 2.88395 44.4754 2.5635C44.3773 2.24142 44.215 1.98694 43.9884 1.80008C43.762 1.61133 43.4873 1.49609 43.1643 1.45437C42.8413 1.41264 42.5454 1.45417 42.2766 1.57896C42.008 1.70186 41.7825 1.90624 41.6001 2.1921C41.4199 2.47631 41.3 2.83847 41.2404 3.27856C41.1808 3.71864 41.2 4.09973 41.2981 4.42182C41.3983 4.74226 41.5616 4.99686 41.788 5.18561C42.0146 5.37248 42.2894 5.48677 42.6124 5.52849C42.9354 5.57022 43.2312 5.52963 43.4998 5.40673C43.7686 5.28194 43.9931 5.07744 44.1733 4.79322C44.3557 4.50737 44.4767 4.14439 44.5363 3.70431Z"/>
<path d="M46.0652 6.91059L47.4275 1.21085L48.4849 1.45182L47.3295 6.28603L49.9002 6.87192L49.6933 7.73745L46.0652 6.91059Z"/>
<path d="M50.4357 7.95462L52.2659 2.38124L53.2998 2.705L51.7475 7.43203L54.2613 8.21918L53.9833 9.06552L50.4357 7.95462Z"/>
<path d="M55.6224 9.71609L54.5589 9.26614L58.8781 4.7149L60.108 5.23529L59.6639 11.4261L58.6005 10.9762L59.0258 6.08555L58.9829 6.06737L55.6224 9.71609ZM56.5916 7.62516L59.4918 8.85228L59.1451 9.63372L56.2449 8.4066L56.5916 7.62516Z"/>
<path d="M60.2087 11.718L63.1164 6.59984L65.0818 7.66458C65.4845 7.8827 65.7835 8.13401 65.9789 8.4185C66.1759 8.70392 66.2744 9.00782 66.2742 9.33018C66.2767 9.6518 66.1852 9.97589 65.9997 10.3024C65.8132 10.6306 65.5797 10.8767 65.2991 11.0407C65.0212 11.2039 64.7067 11.2764 64.3555 11.2583C64.0053 11.2385 63.6289 11.1196 63.2262 10.9014L61.8263 10.1431L62.2636 9.37339L63.5355 10.0624C63.771 10.19 63.9818 10.2627 64.1679 10.2808C64.3549 10.2971 64.5193 10.2631 64.661 10.1786C64.8053 10.0934 64.9291 9.95998 65.0323 9.77839C65.1354 9.59679 65.1868 9.42197 65.1863 9.25394C65.1868 9.08425 65.1309 8.92541 65.0186 8.77744C64.9072 8.62779 64.733 8.48874 64.4958 8.36027L63.6257 7.8889L61.1582 12.2323L60.2087 11.718ZM64.2339 10.8656L64.2139 13.8876L63.1544 13.3137L63.1974 10.3041L64.2339 10.8656Z"/>
<path d="M69.8656 12.5271C69.9878 12.3062 70.0056 12.0824 69.9189 11.8556C69.8339 11.6298 69.6587 11.428 69.3933 11.25C69.2068 11.1249 69.0274 11.045 68.8553 11.0105C68.6831 10.9759 68.5285 10.982 68.3915 11.0288C68.2544 11.0756 68.1426 11.1589 68.0559 11.2788C67.9852 11.3793 67.9473 11.4821 67.942 11.5872C67.9383 11.6933 67.9593 11.7998 68.0049 11.9067C68.0515 12.0119 68.1126 12.1153 68.188 12.2167C68.2634 12.3181 68.3435 12.4146 68.4282 12.5061L68.8119 12.9298C68.9687 13.0974 69.1077 13.275 69.2289 13.4626C69.3518 13.6513 69.443 13.8465 69.5024 14.0481C69.5633 14.2508 69.5794 14.4569 69.5504 14.6663C69.5215 14.8757 69.4336 15.0849 69.2867 15.2937C69.0878 15.5764 68.8388 15.7758 68.5395 15.8917C68.2413 16.006 67.9098 16.0298 67.5449 15.9631C67.1827 15.8959 66.8038 15.7296 66.4081 15.4642C66.0237 15.2064 65.7309 14.9245 65.5296 14.6185C65.3298 14.3135 65.2288 13.9961 65.2264 13.6663C65.2257 13.3376 65.3315 13.0087 65.544 12.6797L66.4245 13.2702C66.3192 13.4469 66.274 13.6223 66.2888 13.7963C66.3037 13.9704 66.3666 14.1351 66.4775 14.2904C66.59 14.4467 66.7395 14.5875 66.9261 14.7126C67.1207 14.8431 67.3111 14.9292 67.4972 14.9708C67.686 15.0119 67.8582 15.0095 68.0136 14.9635C68.1701 14.9159 68.2978 14.8236 68.3966 14.6864C68.4834 14.5597 68.5185 14.4307 68.5019 14.2994C68.4865 14.1666 68.4314 14.0279 68.3365 13.8834C68.2444 13.7384 68.1254 13.5846 67.9794 13.422L67.5167 12.9037C67.1816 12.5287 66.9687 12.1583 66.8781 11.7924C66.7902 11.426 66.8677 11.0701 67.1107 10.7246C67.3107 10.4403 67.5646 10.2443 67.8724 10.1364C68.1818 10.0296 68.5147 10.0089 68.8709 10.0745C69.2283 10.1385 69.5799 10.2865 69.9257 10.5184C70.2763 10.7535 70.5415 11.0192 70.7213 11.3155C70.9038 11.6112 70.9967 11.915 70.9999 12.2269C71.0041 12.5371 70.9131 12.8297 70.7269 13.1047L69.8656 12.5271Z"/>
</mask>
<path d="M3.50781 10.676C3.38008 10.5734 3.24601 10.4943 3.1056 10.4387C2.96574 10.3804 2.82142 10.3467 2.67265 10.3375C2.52552 10.3273 2.37607 10.3448 2.22432 10.39C2.0715 10.4337 1.92017 10.5038 1.77032 10.6003C1.50158 10.7734 1.30673 10.9936 1.18579 11.2609C1.06484 11.5282 1.03058 11.8287 1.083 12.1624C1.13598 12.4935 1.286 12.8419 1.53307 13.2077C1.78229 13.5767 2.05282 13.8509 2.34467 14.0304C2.63652 14.2099 2.93343 14.2983 3.2354 14.2955C3.5363 14.2912 3.82682 14.1988 4.10696 14.0183C4.36105 13.8547 4.5487 13.6654 4.66992 13.4504C4.79278 13.2343 4.84561 13.0063 4.82843 12.7663C4.81017 12.5247 4.72101 12.2854 4.56096 12.0484L4.78712 11.9473L3.42875 12.8221L2.96147 12.1303L4.99169 10.8227L5.38808 11.4096C5.6706 11.8279 5.82378 12.2485 5.84761 12.6713C5.87144 13.0942 5.7796 13.4911 5.57209 13.8621C5.3635 14.2316 5.05235 14.5495 4.63865 14.8159C4.17772 15.1128 3.70476 15.2725 3.21978 15.295C2.73536 15.3148 2.2692 15.2008 1.82131 14.9529C1.37398 14.7024 0.976283 14.3195 0.628235 13.8042C0.361827 13.4097 0.180893 13.0207 0.0854319 12.6371C-0.00840054 12.2525 -0.0249387 11.8855 0.0358173 11.5359C0.0954994 11.1848 0.226463 10.8631 0.428709 10.5708C0.62988 10.2769 0.894154 10.0245 1.22153 9.8137C1.49842 9.63538 1.78343 9.50887 2.07657 9.4342C2.36863 9.35793 2.65637 9.33237 2.93981 9.35752C3.22486 9.38162 3.4948 9.45426 3.7496 9.57545C4.00441 9.69663 4.23164 9.86524 4.43131 10.0813L3.50781 10.676Z" fill="#0717DE"/>
<path d="M7.48329 12.9515L4.65672 7.79028L5.61419 7.29027L8.01153 11.6677L10.3394 10.4521L10.7686 11.2358L7.48329 12.9515Z" fill="#0717DE"/>
<path d="M15.0558 6.31744C15.3051 6.89923 15.4069 7.44312 15.3614 7.94909C15.3169 8.45258 15.15 8.89248 14.8608 9.26878C14.5733 9.64435 14.1874 9.93103 13.7032 10.1288C13.219 10.3266 12.7382 10.3939 12.2607 10.3308C11.7842 10.2652 11.3459 10.0714 10.9458 9.74953C10.5467 9.42515 10.223 8.97293 9.97451 8.3929C9.7253 7.81111 9.62294 7.26847 9.66741 6.76498C9.71292 6.259 9.87942 5.81823 10.1669 5.44266C10.4562 5.06635 10.8429 4.77931 11.3271 4.58154C11.8113 4.38377 12.2913 4.31681 12.767 4.38066C13.2445 4.44378 13.6828 4.63753 14.0819 4.96191C14.482 5.2838 14.8066 5.73564 15.0558 6.31744ZM14.0488 6.72878C13.8733 6.31924 13.6597 6.00069 13.4078 5.77313C13.157 5.54308 12.8855 5.40304 12.5934 5.35301C12.3005 5.30123 12.0038 5.33673 11.7032 5.45951C11.4026 5.58228 11.1683 5.76367 11.0004 6.00366C10.8318 6.2419 10.7424 6.52934 10.7322 6.866C10.723 7.20016 10.8062 7.57202 10.9816 7.98156C11.157 8.3911 11.3701 8.71089 11.621 8.94095C11.8728 9.16851 12.1452 9.30818 12.4381 9.35996C12.7302 9.40998 13.0266 9.37361 13.3272 9.25083C13.6278 9.12805 13.8624 8.94755 14.0311 8.70931C14.199 8.46932 14.2875 8.18224 14.2966 7.84808C14.3068 7.51142 14.2242 7.13832 14.0488 6.72878Z" fill="#0717DE"/>
<path d="M17.0239 8.74922L15.2839 3.14836L17.4796 2.49792C17.8941 2.37513 18.2584 2.3369 18.5725 2.38321C18.8879 2.42716 19.1477 2.53833 19.352 2.71674C19.5581 2.8946 19.7042 3.12209 19.7903 3.39921C19.8611 3.62711 19.8769 3.83547 19.8377 4.02428C19.7979 4.21127 19.718 4.37731 19.5979 4.52238C19.4778 4.66746 19.3312 4.78953 19.1581 4.8886L19.1751 4.94329C19.382 4.89394 19.5961 4.89722 19.8174 4.95313C20.0399 5.00666 20.2421 5.116 20.4239 5.28115C20.6057 5.44631 20.7408 5.67109 20.8291 5.95551C20.9192 6.2454 20.9283 6.52741 20.8565 6.80155C20.7841 7.07386 20.6238 7.31943 20.3758 7.53825C20.1278 7.75707 19.7843 7.93147 19.3456 8.06145L17.0239 8.74922ZM17.7995 7.59364L18.917 7.26261C19.2941 7.15089 19.544 7.00022 19.6665 6.81061C19.7904 6.61862 19.8178 6.41141 19.7487 6.18898C19.6971 6.02307 19.6087 5.88601 19.4833 5.77781C19.3574 5.66778 19.205 5.59743 19.0263 5.56676C18.8469 5.53427 18.6499 5.54983 18.4352 5.61344L17.2898 5.95276L17.7995 7.59364ZM17.0629 5.22257L18.0907 4.91809C18.27 4.86499 18.4216 4.78524 18.5455 4.67884C18.6689 4.57062 18.7532 4.44509 18.7986 4.30224C18.8452 4.15702 18.843 4.00237 18.7921 3.83828C18.7247 3.62132 18.5907 3.46588 18.3903 3.37195C18.1917 3.27747 17.9393 3.27558 17.6331 3.36629L16.5829 3.67741L17.0629 5.22257Z" fill="#0717DE"/>
<path d="M22.8178 7.17643L21.6799 7.39125L22.6139 1.25362L23.93 1.00517L27.1423 6.36002L26.0044 6.57484L23.5282 2.30354L23.4823 2.31222L22.8178 7.17643ZM22.409 4.91623L25.5123 4.33037L25.6779 5.16653L22.5746 5.7524L22.409 4.91623Z" fill="#0717DE"/>
<path d="M27.7605 6.29675L27.1624 0.473049L28.2427 0.367242L28.75 5.30659L31.3767 5.04934L31.4675 5.9337L27.7605 6.29675Z" fill="#0717DE"/>
<path d="M36.1498 5.90268L34.1194 5.85093L34.2758 0L36.3471 0.0527937C36.942 0.0679557 37.4499 0.198113 37.8708 0.443266C38.2937 0.686563 38.6143 1.02922 38.8328 1.47124C39.0513 1.91326 39.1525 2.43805 39.1362 3.04562C39.1199 3.65509 38.9899 4.1759 38.7461 4.60804C38.5042 5.04023 38.1627 5.36792 37.7215 5.5911C37.2822 5.81433 36.7583 5.91819 36.1498 5.90268ZM35.2293 4.96153L36.1216 4.98427C36.539 4.99491 36.8892 4.9295 37.172 4.78805C37.455 4.6447 37.6706 4.42625 37.819 4.13271C37.9674 3.83727 38.0476 3.46576 38.0596 3.01818C38.0715 2.5706 38.0113 2.19741 37.8787 1.89862C37.7462 1.59792 37.5444 1.37074 37.2733 1.21708C37.0043 1.06156 36.6669 0.978632 36.2612 0.968292L35.3367 0.944729L35.2293 4.96153Z" fill="#0717DE"/>
<path d="M45.6185 3.8441C45.5339 4.46929 45.3414 4.98927 45.0412 5.40405C44.7431 5.81718 44.3721 6.11519 43.9281 6.29807C43.4861 6.4812 43.0049 6.53916 42.4846 6.47195C41.9643 6.40474 41.5141 6.22647 41.1341 5.93715C40.7563 5.6462 40.4775 5.26329 40.2978 4.78845C40.1203 4.31196 40.0737 3.76206 40.1582 3.13876C40.2429 2.51357 40.4342 1.99441 40.7323 1.58127C41.0325 1.1665 41.4036 0.86755 41.8457 0.684419C42.2897 0.501539 42.7718 0.443704 43.2921 0.510915C43.8124 0.578125 44.2616 0.756264 44.6397 1.04533C45.0197 1.33465 45.2985 1.71755 45.476 2.19404C45.6557 2.66889 45.7032 3.21891 45.6185 3.8441ZM44.5363 3.70431C44.596 3.26422 44.5756 2.88395 44.4754 2.5635C44.3773 2.24142 44.215 1.98694 43.9884 1.80008C43.762 1.61133 43.4873 1.49609 43.1643 1.45437C42.8413 1.41264 42.5454 1.45417 42.2766 1.57896C42.008 1.70186 41.7825 1.90624 41.6001 2.1921C41.4199 2.47631 41.3 2.83847 41.2404 3.27856C41.1808 3.71864 41.2 4.09973 41.2981 4.42182C41.3983 4.74226 41.5616 4.99686 41.788 5.18561C42.0146 5.37248 42.2894 5.48677 42.6124 5.52849C42.9354 5.57022 43.2312 5.52963 43.4998 5.40673C43.7686 5.28194 43.9931 5.07744 44.1733 4.79322C44.3557 4.50737 44.4767 4.14439 44.5363 3.70431Z" fill="#0717DE"/>
<path d="M46.0652 6.91059L47.4275 1.21085L48.4849 1.45182L47.3295 6.28603L49.9002 6.87192L49.6933 7.73745L46.0652 6.91059Z" fill="#0717DE"/>
<path d="M50.4357 7.95462L52.2659 2.38124L53.2998 2.705L51.7475 7.43203L54.2613 8.21918L53.9833 9.06552L50.4357 7.95462Z" fill="#0717DE"/>
<path d="M55.6224 9.71609L54.5589 9.26614L58.8781 4.7149L60.108 5.23529L59.6639 11.4261L58.6005 10.9762L59.0258 6.08555L58.9829 6.06737L55.6224 9.71609ZM56.5916 7.62516L59.4918 8.85228L59.1451 9.63372L56.2449 8.4066L56.5916 7.62516Z" fill="#0717DE"/>
<path d="M60.2087 11.718L63.1164 6.59984L65.0818 7.66458C65.4845 7.8827 65.7835 8.13401 65.9789 8.4185C66.1759 8.70392 66.2744 9.00782 66.2742 9.33018C66.2767 9.6518 66.1852 9.97589 65.9997 10.3024C65.8132 10.6306 65.5797 10.8767 65.2991 11.0407C65.0212 11.2039 64.7067 11.2764 64.3555 11.2583C64.0053 11.2385 63.6289 11.1196 63.2262 10.9014L61.8263 10.1431L62.2636 9.37339L63.5355 10.0624C63.771 10.19 63.9818 10.2627 64.1679 10.2808C64.3549 10.2971 64.5193 10.2631 64.661 10.1786C64.8053 10.0934 64.9291 9.95998 65.0323 9.77839C65.1354 9.59679 65.1868 9.42197 65.1863 9.25394C65.1868 9.08425 65.1309 8.92541 65.0186 8.77744C64.9072 8.62779 64.733 8.48874 64.4958 8.36027L63.6257 7.8889L61.1582 12.2323L60.2087 11.718ZM64.2339 10.8656L64.2139 13.8876L63.1544 13.3137L63.1974 10.3041L64.2339 10.8656Z" fill="#0717DE"/>
<path d="M69.8656 12.5271C69.9878 12.3062 70.0056 12.0824 69.9189 11.8556C69.8339 11.6298 69.6587 11.428 69.3933 11.25C69.2068 11.1249 69.0274 11.045 68.8553 11.0105C68.6831 10.9759 68.5285 10.982 68.3915 11.0288C68.2544 11.0756 68.1426 11.1589 68.0559 11.2788C67.9852 11.3793 67.9473 11.4821 67.942 11.5872C67.9383 11.6933 67.9593 11.7998 68.0049 11.9067C68.0515 12.0119 68.1126 12.1153 68.188 12.2167C68.2634 12.3181 68.3435 12.4146 68.4282 12.5061L68.8119 12.9298C68.9687 13.0974 69.1077 13.275 69.2289 13.4626C69.3518 13.6513 69.443 13.8465 69.5024 14.0481C69.5633 14.2508 69.5794 14.4569 69.5504 14.6663C69.5215 14.8757 69.4336 15.0849 69.2867 15.2937C69.0878 15.5764 68.8388 15.7758 68.5395 15.8917C68.2413 16.006 67.9098 16.0298 67.5449 15.9631C67.1827 15.8959 66.8038 15.7296 66.4081 15.4642C66.0237 15.2064 65.7309 14.9245 65.5296 14.6185C65.3298 14.3135 65.2288 13.9961 65.2264 13.6663C65.2257 13.3376 65.3315 13.0087 65.544 12.6797L66.4245 13.2702C66.3192 13.4469 66.274 13.6223 66.2888 13.7963C66.3037 13.9704 66.3666 14.1351 66.4775 14.2904C66.59 14.4467 66.7395 14.5875 66.9261 14.7126C67.1207 14.8431 67.3111 14.9292 67.4972 14.9708C67.686 15.0119 67.8582 15.0095 68.0136 14.9635C68.1701 14.9159 68.2978 14.8236 68.3966 14.6864C68.4834 14.5597 68.5185 14.4307 68.5019 14.2994C68.4865 14.1666 68.4314 14.0279 68.3365 13.8834C68.2444 13.7384 68.1254 13.5846 67.9794 13.422L67.5167 12.9037C67.1816 12.5287 66.9687 12.1583 66.8781 11.7924C66.7902 11.426 66.8677 11.0701 67.1107 10.7246C67.3107 10.4403 67.5646 10.2443 67.8724 10.1364C68.1818 10.0296 68.5147 10.0089 68.8709 10.0745C69.2283 10.1385 69.5799 10.2865 69.9257 10.5184C70.2763 10.7535 70.5415 11.0192 70.7213 11.3155C70.9038 11.6112 70.9967 11.915 70.9999 12.2269C71.0041 12.5371 70.9131 12.8297 70.7269 13.1047L69.8656 12.5271Z" fill="#0717DE"/>
<path d="M3.50781 10.676C3.38008 10.5734 3.24601 10.4943 3.1056 10.4387C2.96574 10.3804 2.82142 10.3467 2.67265 10.3375C2.52552 10.3273 2.37607 10.3448 2.22432 10.39C2.0715 10.4337 1.92017 10.5038 1.77032 10.6003C1.50158 10.7734 1.30673 10.9936 1.18579 11.2609C1.06484 11.5282 1.03058 11.8287 1.083 12.1624C1.13598 12.4935 1.286 12.8419 1.53307 13.2077C1.78229 13.5767 2.05282 13.8509 2.34467 14.0304C2.63652 14.2099 2.93343 14.2983 3.2354 14.2955C3.5363 14.2912 3.82682 14.1988 4.10696 14.0183C4.36105 13.8547 4.5487 13.6654 4.66992 13.4504C4.79278 13.2343 4.84561 13.0063 4.82843 12.7663C4.81017 12.5247 4.72101 12.2854 4.56096 12.0484L4.78712 11.9473L3.42875 12.8221L2.96147 12.1303L4.99169 10.8227L5.38808 11.4096C5.6706 11.8279 5.82378 12.2485 5.84761 12.6713C5.87144 13.0942 5.7796 13.4911 5.57209 13.8621C5.3635 14.2316 5.05235 14.5495 4.63865 14.8159C4.17772 15.1128 3.70476 15.2725 3.21978 15.295C2.73536 15.3148 2.2692 15.2008 1.82131 14.9529C1.37398 14.7024 0.976283 14.3195 0.628235 13.8042C0.361827 13.4097 0.180893 13.0207 0.0854319 12.6371C-0.00840054 12.2525 -0.0249387 11.8855 0.0358173 11.5359C0.0954994 11.1848 0.226463 10.8631 0.428709 10.5708C0.62988 10.2769 0.894154 10.0245 1.22153 9.8137C1.49842 9.63538 1.78343 9.50887 2.07657 9.4342C2.36863 9.35793 2.65637 9.33237 2.93981 9.35752C3.22486 9.38162 3.4948 9.45426 3.7496 9.57545C4.00441 9.69663 4.23164 9.86524 4.43131 10.0813L3.50781 10.676Z" stroke="#0717DE" stroke-width="1.10248" mask="url(#path-1-inside-1_2009_715)"/>
<path d="M7.48329 12.9515L4.65672 7.79028L5.61419 7.29027L8.01153 11.6677L10.3394 10.4521L10.7686 11.2358L7.48329 12.9515Z" stroke="#0717DE" stroke-width="1.10248" mask="url(#path-1-inside-1_2009_715)"/>
<path d="M15.0558 6.31744C15.3051 6.89923 15.4069 7.44312 15.3614 7.94909C15.3169 8.45258 15.15 8.89248 14.8608 9.26878C14.5733 9.64435 14.1874 9.93103 13.7032 10.1288C13.219 10.3266 12.7382 10.3939 12.2607 10.3308C11.7842 10.2652 11.3459 10.0714 10.9458 9.74953C10.5467 9.42515 10.223 8.97293 9.97451 8.3929C9.7253 7.81111 9.62294 7.26847 9.66741 6.76498C9.71292 6.259 9.87942 5.81823 10.1669 5.44266C10.4562 5.06635 10.8429 4.77931 11.3271 4.58154C11.8113 4.38377 12.2913 4.31681 12.767 4.38066C13.2445 4.44378 13.6828 4.63753 14.0819 4.96191C14.482 5.2838 14.8066 5.73564 15.0558 6.31744ZM14.0488 6.72878C13.8733 6.31924 13.6597 6.00069 13.4078 5.77313C13.157 5.54308 12.8855 5.40304 12.5934 5.35301C12.3005 5.30123 12.0038 5.33673 11.7032 5.45951C11.4026 5.58228 11.1683 5.76367 11.0004 6.00366C10.8318 6.2419 10.7424 6.52934 10.7322 6.866C10.723 7.20016 10.8062 7.57202 10.9816 7.98156C11.157 8.3911 11.3701 8.71089 11.621 8.94095C11.8728 9.16851 12.1452 9.30818 12.4381 9.35996C12.7302 9.40998 13.0266 9.37361 13.3272 9.25083C13.6278 9.12805 13.8624 8.94755 14.0311 8.70931C14.199 8.46932 14.2875 8.18224 14.2966 7.84808C14.3068 7.51142 14.2242 7.13832 14.0488 6.72878Z" stroke="#0717DE" stroke-width="1.10248" mask="url(#path-1-inside-1_2009_715)"/>
<path d="M17.0239 8.74922L15.2839 3.14836L17.4796 2.49792C17.8941 2.37513 18.2584 2.3369 18.5725 2.38321C18.8879 2.42716 19.1477 2.53833 19.352 2.71674C19.5581 2.8946 19.7042 3.12209 19.7903 3.39921C19.8611 3.62711 19.8769 3.83547 19.8377 4.02428C19.7979 4.21127 19.718 4.37731 19.5979 4.52238C19.4778 4.66746 19.3312 4.78953 19.1581 4.8886L19.1751 4.94329C19.382 4.89394 19.5961 4.89722 19.8174 4.95313C20.0399 5.00666 20.2421 5.116 20.4239 5.28115C20.6057 5.44631 20.7408 5.67109 20.8291 5.95551C20.9192 6.2454 20.9283 6.52741 20.8565 6.80155C20.7841 7.07386 20.6238 7.31943 20.3758 7.53825C20.1278 7.75707 19.7843 7.93147 19.3456 8.06145L17.0239 8.74922ZM17.7995 7.59364L18.917 7.26261C19.2941 7.15089 19.544 7.00022 19.6665 6.81061C19.7904 6.61862 19.8178 6.41141 19.7487 6.18898C19.6971 6.02307 19.6087 5.88601 19.4833 5.77781C19.3574 5.66778 19.205 5.59743 19.0263 5.56676C18.8469 5.53427 18.6499 5.54983 18.4352 5.61344L17.2898 5.95276L17.7995 7.59364ZM17.0629 5.22257L18.0907 4.91809C18.27 4.86499 18.4216 4.78524 18.5455 4.67884C18.6689 4.57062 18.7532 4.44509 18.7986 4.30224C18.8452 4.15702 18.843 4.00237 18.7921 3.83828C18.7247 3.62132 18.5907 3.46588 18.3903 3.37195C18.1917 3.27747 17.9393 3.27558 17.6331 3.36629L16.5829 3.67741L17.0629 5.22257Z" stroke="#0717DE" stroke-width="1.10248" mask="url(#path-1-inside-1_2009_715)"/>
<path d="M22.8178 7.17643L21.6799 7.39125L22.6139 1.25362L23.93 1.00517L27.1423 6.36002L26.0044 6.57484L23.5282 2.30354L23.4823 2.31222L22.8178 7.17643ZM22.409 4.91623L25.5123 4.33037L25.6779 5.16653L22.5746 5.7524L22.409 4.91623Z" stroke="#0717DE" stroke-width="1.10248" mask="url(#path-1-inside-1_2009_715)"/>
<path d="M27.7605 6.29675L27.1624 0.473049L28.2427 0.367242L28.75 5.30659L31.3767 5.04934L31.4675 5.9337L27.7605 6.29675Z" stroke="#0717DE" stroke-width="1.10248" mask="url(#path-1-inside-1_2009_715)"/>
<path d="M36.1498 5.90268L34.1194 5.85093L34.2758 0L36.3471 0.0527937C36.942 0.0679557 37.4499 0.198113 37.8708 0.443266C38.2937 0.686563 38.6143 1.02922 38.8328 1.47124C39.0513 1.91326 39.1525 2.43805 39.1362 3.04562C39.1199 3.65509 38.9899 4.1759 38.7461 4.60804C38.5042 5.04023 38.1627 5.36792 37.7215 5.5911C37.2822 5.81433 36.7583 5.91819 36.1498 5.90268ZM35.2293 4.96153L36.1216 4.98427C36.539 4.99491 36.8892 4.9295 37.172 4.78805C37.455 4.6447 37.6706 4.42625 37.819 4.13271C37.9674 3.83727 38.0476 3.46576 38.0596 3.01818C38.0715 2.5706 38.0113 2.19741 37.8787 1.89862C37.7462 1.59792 37.5444 1.37074 37.2733 1.21708C37.0043 1.06156 36.6669 0.978632 36.2612 0.968292L35.3367 0.944729L35.2293 4.96153Z" stroke="#0717DE" stroke-width="1.10248" mask="url(#path-1-inside-1_2009_715)"/>
<path d="M45.6185 3.8441C45.5339 4.46929 45.3414 4.98927 45.0412 5.40405C44.7431 5.81718 44.3721 6.11519 43.9281 6.29807C43.4861 6.4812 43.0049 6.53916 42.4846 6.47195C41.9643 6.40474 41.5141 6.22647 41.1341 5.93715C40.7563 5.6462 40.4775 5.26329 40.2978 4.78845C40.1203 4.31196 40.0737 3.76206 40.1582 3.13876C40.2429 2.51357 40.4342 1.99441 40.7323 1.58127C41.0325 1.1665 41.4036 0.86755 41.8457 0.684419C42.2897 0.501539 42.7718 0.443704 43.2921 0.510915C43.8124 0.578125 44.2616 0.756264 44.6397 1.04533C45.0197 1.33465 45.2985 1.71755 45.476 2.19404C45.6557 2.66889 45.7032 3.21891 45.6185 3.8441ZM44.5363 3.70431C44.596 3.26422 44.5756 2.88395 44.4754 2.5635C44.3773 2.24142 44.215 1.98694 43.9884 1.80008C43.762 1.61133 43.4873 1.49609 43.1643 1.45437C42.8413 1.41264 42.5454 1.45417 42.2766 1.57896C42.008 1.70186 41.7825 1.90624 41.6001 2.1921C41.4199 2.47631 41.3 2.83847 41.2404 3.27856C41.1808 3.71864 41.2 4.09973 41.2981 4.42182C41.3983 4.74226 41.5616 4.99686 41.788 5.18561C42.0146 5.37248 42.2894 5.48677 42.6124 5.52849C42.9354 5.57022 43.2312 5.52963 43.4998 5.40673C43.7686 5.28194 43.9931 5.07744 44.1733 4.79322C44.3557 4.50737 44.4767 4.14439 44.5363 3.70431Z" stroke="#0717DE" stroke-width="1.10248" mask="url(#path-1-inside-1_2009_715)"/>
<path d="M46.0652 6.91059L47.4275 1.21085L48.4849 1.45182L47.3295 6.28603L49.9002 6.87192L49.6933 7.73745L46.0652 6.91059Z" stroke="#0717DE" stroke-width="1.10248" mask="url(#path-1-inside-1_2009_715)"/>
<path d="M50.4357 7.95462L52.2659 2.38124L53.2998 2.705L51.7475 7.43203L54.2613 8.21918L53.9833 9.06552L50.4357 7.95462Z" stroke="#0717DE" stroke-width="1.10248" mask="url(#path-1-inside-1_2009_715)"/>
<path d="M55.6224 9.71609L54.5589 9.26614L58.8781 4.7149L60.108 5.23529L59.6639 11.4261L58.6005 10.9762L59.0258 6.08555L58.9829 6.06737L55.6224 9.71609ZM56.5916 7.62516L59.4918 8.85228L59.1451 9.63372L56.2449 8.4066L56.5916 7.62516Z" stroke="#0717DE" stroke-width="1.10248" mask="url(#path-1-inside-1_2009_715)"/>
<path d="M60.2087 11.718L63.1164 6.59984L65.0818 7.66458C65.4845 7.8827 65.7835 8.13401 65.9789 8.4185C66.1759 8.70392 66.2744 9.00782 66.2742 9.33018C66.2767 9.6518 66.1852 9.97589 65.9997 10.3024C65.8132 10.6306 65.5797 10.8767 65.2991 11.0407C65.0212 11.2039 64.7067 11.2764 64.3555 11.2583C64.0053 11.2385 63.6289 11.1196 63.2262 10.9014L61.8263 10.1431L62.2636 9.37339L63.5355 10.0624C63.771 10.19 63.9818 10.2627 64.1679 10.2808C64.3549 10.2971 64.5193 10.2631 64.661 10.1786C64.8053 10.0934 64.9291 9.95998 65.0323 9.77839C65.1354 9.59679 65.1868 9.42197 65.1863 9.25394C65.1868 9.08425 65.1309 8.92541 65.0186 8.77744C64.9072 8.62779 64.733 8.48874 64.4958 8.36027L63.6257 7.8889L61.1582 12.2323L60.2087 11.718ZM64.2339 10.8656L64.2139 13.8876L63.1544 13.3137L63.1974 10.3041L64.2339 10.8656Z" stroke="#0717DE" stroke-width="1.10248" mask="url(#path-1-inside-1_2009_715)"/>
<path d="M69.8656 12.5271C69.9878 12.3062 70.0056 12.0824 69.9189 11.8556C69.8339 11.6298 69.6587 11.428 69.3933 11.25C69.2068 11.1249 69.0274 11.045 68.8553 11.0105C68.6831 10.9759 68.5285 10.982 68.3915 11.0288C68.2544 11.0756 68.1426 11.1589 68.0559 11.2788C67.9852 11.3793 67.9473 11.4821 67.942 11.5872C67.9383 11.6933 67.9593 11.7998 68.0049 11.9067C68.0515 12.0119 68.1126 12.1153 68.188 12.2167C68.2634 12.3181 68.3435 12.4146 68.4282 12.5061L68.8119 12.9298C68.9687 13.0974 69.1077 13.275 69.2289 13.4626C69.3518 13.6513 69.443 13.8465 69.5024 14.0481C69.5633 14.2508 69.5794 14.4569 69.5504 14.6663C69.5215 14.8757 69.4336 15.0849 69.2867 15.2937C69.0878 15.5764 68.8388 15.7758 68.5395 15.8917C68.2413 16.006 67.9098 16.0298 67.5449 15.9631C67.1827 15.8959 66.8038 15.7296 66.4081 15.4642C66.0237 15.2064 65.7309 14.9245 65.5296 14.6185C65.3298 14.3135 65.2288 13.9961 65.2264 13.6663C65.2257 13.3376 65.3315 13.0087 65.544 12.6797L66.4245 13.2702C66.3192 13.4469 66.274 13.6223 66.2888 13.7963C66.3037 13.9704 66.3666 14.1351 66.4775 14.2904C66.59 14.4467 66.7395 14.5875 66.9261 14.7126C67.1207 14.8431 67.3111 14.9292 67.4972 14.9708C67.686 15.0119 67.8582 15.0095 68.0136 14.9635C68.1701 14.9159 68.2978 14.8236 68.3966 14.6864C68.4834 14.5597 68.5185 14.4307 68.5019 14.2994C68.4865 14.1666 68.4314 14.0279 68.3365 13.8834C68.2444 13.7384 68.1254 13.5846 67.9794 13.422L67.5167 12.9037C67.1816 12.5287 66.9687 12.1583 66.8781 11.7924C66.7902 11.426 66.8677 11.0701 67.1107 10.7246C67.3107 10.4403 67.5646 10.2443 67.8724 10.1364C68.1818 10.0296 68.5147 10.0089 68.8709 10.0745C69.2283 10.1385 69.5799 10.2865 69.9257 10.5184C70.2763 10.7535 70.5415 11.0192 70.7213 11.3155C70.9038 11.6112 70.9967 11.915 70.9999 12.2269C71.0041 12.5371 70.9131 12.8297 70.7269 13.1047L69.8656 12.5271Z" stroke="#0717DE" stroke-width="1.10248" mask="url(#path-1-inside-1_2009_715)"/>
</g>
</svg>
