<svg width="22" height="14" viewBox="0 0 22 14" fill="none" xmlns="http://www.w3.org/2000/svg">
<g id="Black">
<path id="Vector" d="M0 7V14H3.40679C5.31149 14 7.15426 13.9255 7.61882 13.8362C10.1739 13.3149 12.0941 11.5426 12.7909 9.04043C13.0697 8.05745 13.0697 5.95745 12.7909 4.97447C12.1096 2.47234 10.1739 0.685106 7.61882 0.16383C7.15426 0.0744677 5.31149 0 3.40679 0H0V7ZM7.64979 2.82979C8.99702 3.32128 9.8642 4.39362 10.2204 6.00213C10.5765 7.67021 10.0345 9.42766 8.88862 10.4106C7.91304 11.2298 6.98392 11.4681 4.70756 11.4681H2.78737V7V2.53191H4.80048C6.44193 2.53191 6.95295 2.59149 7.64979 2.82979Z" fill="#04A201"/>
<path id="Vector_2" d="M9.30511 0.282678C9.47292 0.431456 10.0679 0.967056 10.6323 1.4729L11.6545 2.38045H14.4157C17.4363 2.38045 17.9245 2.48459 18.5042 3.19872C19.1907 4.03188 18.7483 5.20723 17.6499 5.50478C17.3448 5.57917 16.1396 5.65356 14.9954 5.65356H12.8902V6.76939V7.88523H14.8429C17.238 7.88523 18.1533 8.1084 18.8245 8.85228C19.5873 9.70032 19.3737 10.6525 18.3211 11.203C17.7567 11.4857 17.3753 11.5154 14.6445 11.5749L11.5934 11.6344L10.2967 12.8247L9 14L13.8055 13.9554C19.0076 13.8959 19.2669 13.8661 20.5026 13.0329C21.2044 12.5569 21.8299 11.5005 21.9672 10.5335C22.1807 9.1796 21.3264 7.49841 20.1518 6.93305L19.7246 6.72476L20.1975 6.48672C21.8756 5.63868 22.0129 2.79702 20.4416 1.26461C19.9534 0.773645 19.5415 0.535601 18.7635 0.312433C17.8329 0.0297556 17.36 0 13.3783 0C9.12204 0 9.01526 0 9.30511 0.282678Z" fill="#04A201"/>
</g>
</svg>
