<svg width="67" height="15" viewBox="0 0 67 15" fill="none" xmlns="http://www.w3.org/2000/svg">
<g id="DIGITAL BANKER">
<mask id="path-1-inside-1_2009_714" fill="white">
<path d="M1.76031 6.60489L-0.000227329 5.62679L2.96168 0.546597L4.75773 1.54443C5.27355 1.831 5.65735 2.17887 5.90913 2.58804C6.16357 2.9965 6.28017 3.44551 6.25894 3.93508C6.23771 4.42465 6.07331 4.9332 5.76574 5.46074C5.45721 5.98992 5.09144 6.38879 4.66843 6.65733C4.24711 6.92682 3.78858 7.0585 3.29285 7.05238C2.79881 7.0472 2.28797 6.89803 1.76031 6.60489ZM1.40517 5.3534L2.17889 5.78326C2.54081 5.98433 2.88029 6.08755 3.19734 6.09292C3.51535 6.09663 3.81044 6.00333 4.08262 5.813C4.35576 5.62101 4.60562 5.33071 4.8322 4.94209C5.05877 4.55347 5.1859 4.19717 5.21358 3.8732C5.24222 3.54757 5.17444 3.25485 5.01022 2.99503C4.84865 2.7345 4.59199 2.50652 4.24022 2.31109L3.43859 1.86573L1.40517 5.3534Z"/>
<path d="M8.98854 3.76329L6.39731 9.03294L5.42093 8.57572L8.01216 3.30607L8.98854 3.76329Z"/>
<path d="M12.9469 7.31203C12.9592 7.15123 12.9482 6.99891 12.914 6.85508C12.8823 6.71016 12.8275 6.57585 12.7496 6.45213C12.6736 6.32911 12.5731 6.22023 12.4481 6.1255C12.3238 6.029 12.1783 5.9489 12.0116 5.88523C11.7126 5.77102 11.4167 5.7428 11.1239 5.80055C10.8311 5.8583 10.5604 6.00418 10.3118 6.23819C10.0657 6.47112 9.86093 6.79131 9.69738 7.19877C9.53241 7.60978 9.45883 7.98316 9.47663 8.31891C9.49444 8.65466 9.59127 8.94193 9.76713 9.18072C9.94369 9.41774 10.1878 9.59577 10.4995 9.71482C10.7822 9.8228 11.0482 9.86309 11.2975 9.8357C11.5485 9.809 11.7694 9.71968 11.9599 9.56771C12.1512 9.41398 12.2999 9.20513 12.4058 8.94117L12.6203 9.06293L11.1089 8.48568L11.4182 7.71504L13.6771 8.5778L13.4147 9.23151C13.2277 9.69744 12.9645 10.0617 12.625 10.3243C12.2855 10.587 11.9012 10.7426 11.472 10.7911C11.0436 10.838 10.5992 10.7735 10.1389 10.5977C9.62605 10.4018 9.22086 10.1173 8.92336 9.74417C8.62838 9.36998 8.45571 8.9332 8.40535 8.43382C8.35751 7.93336 8.44879 7.39614 8.67918 6.82215C8.85553 6.38279 9.07647 6.01462 9.34199 5.71761C9.60932 5.42129 9.90641 5.19662 10.2333 5.04359C10.5608 4.88878 10.9048 4.80767 11.2652 4.80024C11.6263 4.79105 11.9889 4.85601 12.3532 4.99513C12.6613 5.1128 12.9307 5.26679 13.1616 5.45712C13.3931 5.64567 13.5798 5.86 13.7217 6.10012C13.8654 6.34093 13.9599 6.59767 14.0051 6.87034C14.0503 7.143 14.0401 7.42105 13.9744 7.70448L12.9469 7.31203Z"/>
<path d="M16.5865 6.56895L14.8162 12.1525L13.7814 11.8407L15.5517 6.25713L16.5865 6.56895Z"/>
<path d="M17.0868 7.62723L17.3039 6.76536L21.937 7.87302L21.7199 8.73488L19.9251 8.30579L18.7127 13.1195L17.6692 12.87L18.8816 8.05633L17.0868 7.62723Z"/>
<path d="M21.8726 13.7161L20.7284 13.5542L23.6773 8.06634L25.0006 8.25357L26.2211 14.3313L25.0769 14.1695L24.1845 9.34911L24.1383 9.34257L21.8726 13.7161ZM22.2496 11.4541L25.3701 11.8956L25.2441 12.737L22.1236 12.2955L22.2496 11.4541Z"/>
<path d="M27.3805 14.4183L27.7061 8.58357L28.7878 8.63965L28.5117 13.5883L31.1417 13.7246L31.0923 14.6107L27.3805 14.4183Z"/>
<path d="M34.4684 14.564L34.0656 8.73495L36.3498 8.58103C36.781 8.55197 37.1439 8.59423 37.4386 8.70782C37.7351 8.81937 37.9621 8.98422 38.1197 9.20236C38.2791 9.42037 38.3688 9.67359 38.3887 9.962C38.4051 10.1992 38.3726 10.4054 38.291 10.5805C38.2093 10.7538 38.0934 10.8979 37.9433 11.0129C37.7932 11.1278 37.6226 11.2146 37.4315 11.2732L37.4354 11.3302C37.6479 11.3273 37.8553 11.3772 38.0575 11.4798C38.2615 11.5805 38.4329 11.7309 38.5717 11.9313C38.7104 12.1316 38.79 12.3798 38.8104 12.6758C38.8313 12.9775 38.7753 13.2539 38.6424 13.505C38.5093 13.7541 38.2971 13.9581 38.0056 14.1169C37.7141 14.2757 37.3401 14.3705 36.8837 14.4012L34.4684 14.564ZM35.4883 13.6088L36.6508 13.5305C37.0432 13.5041 37.3207 13.412 37.4835 13.2542C37.6481 13.0944 37.7224 12.8988 37.7064 12.6673C37.6944 12.4946 37.64 12.342 37.543 12.2094C37.4459 12.0748 37.314 11.9732 37.1473 11.9043C36.9804 11.8336 36.7853 11.8058 36.5619 11.8208L35.3703 11.9011L35.4883 13.6088ZM35.3178 11.1412L36.3871 11.0691C36.5735 11.0565 36.7392 11.012 36.8842 10.9355C37.029 10.8571 37.1399 10.7534 37.2169 10.6243C37.2956 10.4932 37.3291 10.3422 37.3173 10.1715C37.3017 9.94566 37.2073 9.76521 37.034 9.63009C36.8627 9.49485 36.6178 9.43796 36.2992 9.45943L35.2067 9.53305L35.3178 11.1412Z"/>
<path d="M41.0198 13.9666L39.879 14.1529L40.9784 8.05077L42.2978 7.83527L45.3554 13.2585L44.2146 13.4448L41.8616 9.1211L41.8155 9.12863L41.0198 13.9666ZM40.6739 11.7009L43.7852 11.1927L43.9274 12.0313L40.8161 12.5394L40.6739 11.7009Z"/>
<path d="M49.7128 6.05119L51.3052 11.6809L50.3763 11.9329L46.5755 8.83519L46.5276 8.84817L47.6123 12.6828L46.5681 12.9662L44.9757 7.3365L45.9101 7.08295L49.7089 10.1842L49.7596 10.1704L48.6741 6.33299L49.7128 6.05119Z"/>
<path d="M52.8511 11.1666L50.6693 5.72962L51.678 5.34201L52.6805 7.84018L52.7485 7.81406L53.9183 4.48113L55.1499 4.00785L53.9757 7.27506L57.3508 9.43757L56.1382 9.90353L53.5416 8.21097L53.21 9.15961L53.8598 10.779L52.8511 11.1666Z"/>
<path d="M58.367 8.96139L55.6726 3.74897L59.145 2.03187L59.5542 2.8234L57.0489 4.06225L57.7804 5.47734L60.1058 4.32744L60.5149 5.11898L58.1896 6.26887L58.925 7.6916L61.4511 6.44244L61.8603 7.23398L58.367 8.96139Z"/>
<path d="M63.1238 6.52375L59.9567 1.572L61.859 0.408914C62.2487 0.170643 62.618 0.0368249 62.9667 0.00746085C63.3171 -0.0229131 63.6363 0.0397859 63.9243 0.195558C64.2129 0.348708 64.4583 0.583249 64.6603 0.899181C64.8634 1.21672 64.9704 1.53476 64.9812 1.8533C64.9926 2.16921 64.9052 2.47261 64.7191 2.76351C64.532 3.0528 64.2436 3.31658 63.8539 3.55485L62.499 4.38325L62.0227 3.63855L63.2538 2.88588C63.4817 2.74655 63.6487 2.60183 63.7548 2.45174C63.8599 2.30002 63.909 2.14333 63.9021 1.98164C63.8958 1.81734 63.8364 1.64733 63.724 1.47164C63.6117 1.29594 63.4803 1.16774 63.3299 1.08704C63.1785 1.00472 63.0095 0.975753 62.8229 1.00012C62.6353 1.02288 62.4268 1.10443 62.1972 1.24477L61.3551 1.75968L64.0428 5.96189L63.1238 6.52375ZM64.3094 2.67772L67.0003 4.15366L65.9748 4.78064L63.3062 3.29106L64.3094 2.67772Z"/>
</mask>
<path d="M1.76031 6.60489L-0.000227329 5.62679L2.96168 0.546597L4.75773 1.54443C5.27355 1.831 5.65735 2.17887 5.90913 2.58804C6.16357 2.9965 6.28017 3.44551 6.25894 3.93508C6.23771 4.42465 6.07331 4.9332 5.76574 5.46074C5.45721 5.98992 5.09144 6.38879 4.66843 6.65733C4.24711 6.92682 3.78858 7.0585 3.29285 7.05238C2.79881 7.0472 2.28797 6.89803 1.76031 6.60489ZM1.40517 5.3534L2.17889 5.78326C2.54081 5.98433 2.88029 6.08755 3.19734 6.09292C3.51535 6.09663 3.81044 6.00333 4.08262 5.813C4.35576 5.62101 4.60562 5.33071 4.8322 4.94209C5.05877 4.55347 5.1859 4.19717 5.21358 3.8732C5.24222 3.54757 5.17444 3.25485 5.01022 2.99503C4.84865 2.7345 4.59199 2.50652 4.24022 2.31109L3.43859 1.86573L1.40517 5.3534Z" fill="#0717DE"/>
<path d="M8.98854 3.76329L6.39731 9.03294L5.42093 8.57572L8.01216 3.30607L8.98854 3.76329Z" fill="#0717DE"/>
<path d="M12.9469 7.31203C12.9592 7.15123 12.9482 6.99891 12.914 6.85508C12.8823 6.71016 12.8275 6.57585 12.7496 6.45213C12.6736 6.32911 12.5731 6.22023 12.4481 6.1255C12.3238 6.029 12.1783 5.9489 12.0116 5.88523C11.7126 5.77102 11.4167 5.7428 11.1239 5.80055C10.8311 5.8583 10.5604 6.00418 10.3118 6.23819C10.0657 6.47112 9.86093 6.79131 9.69738 7.19877C9.53241 7.60978 9.45883 7.98316 9.47663 8.31891C9.49444 8.65466 9.59127 8.94193 9.76713 9.18072C9.94369 9.41774 10.1878 9.59577 10.4995 9.71482C10.7822 9.8228 11.0482 9.86309 11.2975 9.8357C11.5485 9.809 11.7694 9.71968 11.9599 9.56771C12.1512 9.41398 12.2999 9.20513 12.4058 8.94117L12.6203 9.06293L11.1089 8.48568L11.4182 7.71504L13.6771 8.5778L13.4147 9.23151C13.2277 9.69744 12.9645 10.0617 12.625 10.3243C12.2855 10.587 11.9012 10.7426 11.472 10.7911C11.0436 10.838 10.5992 10.7735 10.1389 10.5977C9.62605 10.4018 9.22086 10.1173 8.92336 9.74417C8.62838 9.36998 8.45571 8.9332 8.40535 8.43382C8.35751 7.93336 8.44879 7.39614 8.67918 6.82215C8.85553 6.38279 9.07647 6.01462 9.34199 5.71761C9.60932 5.42129 9.90641 5.19662 10.2333 5.04359C10.5608 4.88878 10.9048 4.80767 11.2652 4.80024C11.6263 4.79105 11.9889 4.85601 12.3532 4.99513C12.6613 5.1128 12.9307 5.26679 13.1616 5.45712C13.3931 5.64567 13.5798 5.86 13.7217 6.10012C13.8654 6.34093 13.9599 6.59767 14.0051 6.87034C14.0503 7.143 14.0401 7.42105 13.9744 7.70448L12.9469 7.31203Z" fill="#0717DE"/>
<path d="M16.5865 6.56895L14.8162 12.1525L13.7814 11.8407L15.5517 6.25713L16.5865 6.56895Z" fill="#0717DE"/>
<path d="M17.0868 7.62723L17.3039 6.76536L21.937 7.87302L21.7199 8.73488L19.9251 8.30579L18.7127 13.1195L17.6692 12.87L18.8816 8.05633L17.0868 7.62723Z" fill="#0717DE"/>
<path d="M21.8726 13.7161L20.7284 13.5542L23.6773 8.06634L25.0006 8.25357L26.2211 14.3313L25.0769 14.1695L24.1845 9.34911L24.1383 9.34257L21.8726 13.7161ZM22.2496 11.4541L25.3701 11.8956L25.2441 12.737L22.1236 12.2955L22.2496 11.4541Z" fill="#0717DE"/>
<path d="M27.3805 14.4183L27.7061 8.58357L28.7878 8.63965L28.5117 13.5883L31.1417 13.7246L31.0923 14.6107L27.3805 14.4183Z" fill="#0717DE"/>
<path d="M34.4684 14.564L34.0656 8.73495L36.3498 8.58103C36.781 8.55197 37.1439 8.59423 37.4386 8.70782C37.7351 8.81937 37.9621 8.98422 38.1197 9.20236C38.2791 9.42037 38.3688 9.67359 38.3887 9.962C38.4051 10.1992 38.3726 10.4054 38.291 10.5805C38.2093 10.7538 38.0934 10.8979 37.9433 11.0129C37.7932 11.1278 37.6226 11.2146 37.4315 11.2732L37.4354 11.3302C37.6479 11.3273 37.8553 11.3772 38.0575 11.4798C38.2615 11.5805 38.4329 11.7309 38.5717 11.9313C38.7104 12.1316 38.79 12.3798 38.8104 12.6758C38.8313 12.9775 38.7753 13.2539 38.6424 13.505C38.5093 13.7541 38.2971 13.9581 38.0056 14.1169C37.7141 14.2757 37.3401 14.3705 36.8837 14.4012L34.4684 14.564ZM35.4883 13.6088L36.6508 13.5305C37.0432 13.5041 37.3207 13.412 37.4835 13.2542C37.6481 13.0944 37.7224 12.8988 37.7064 12.6673C37.6944 12.4946 37.64 12.342 37.543 12.2094C37.4459 12.0748 37.314 11.9732 37.1473 11.9043C36.9804 11.8336 36.7853 11.8058 36.5619 11.8208L35.3703 11.9011L35.4883 13.6088ZM35.3178 11.1412L36.3871 11.0691C36.5735 11.0565 36.7392 11.012 36.8842 10.9355C37.029 10.8571 37.1399 10.7534 37.2169 10.6243C37.2956 10.4932 37.3291 10.3422 37.3173 10.1715C37.3017 9.94566 37.2073 9.76521 37.034 9.63009C36.8627 9.49485 36.6178 9.43796 36.2992 9.45943L35.2067 9.53305L35.3178 11.1412Z" fill="#0717DE"/>
<path d="M41.0198 13.9666L39.879 14.1529L40.9784 8.05077L42.2978 7.83527L45.3554 13.2585L44.2146 13.4448L41.8616 9.1211L41.8155 9.12863L41.0198 13.9666ZM40.6739 11.7009L43.7852 11.1927L43.9274 12.0313L40.8161 12.5394L40.6739 11.7009Z" fill="#0717DE"/>
<path d="M49.7128 6.05119L51.3052 11.6809L50.3763 11.9329L46.5755 8.83519L46.5276 8.84817L47.6123 12.6828L46.5681 12.9662L44.9757 7.3365L45.9101 7.08295L49.7089 10.1842L49.7596 10.1704L48.6741 6.33299L49.7128 6.05119Z" fill="#0717DE"/>
<path d="M52.8511 11.1666L50.6693 5.72962L51.678 5.34201L52.6805 7.84018L52.7485 7.81406L53.9183 4.48113L55.1499 4.00785L53.9757 7.27506L57.3508 9.43757L56.1382 9.90353L53.5416 8.21097L53.21 9.15961L53.8598 10.779L52.8511 11.1666Z" fill="#0717DE"/>
<path d="M58.367 8.96139L55.6726 3.74897L59.145 2.03187L59.5542 2.8234L57.0489 4.06225L57.7804 5.47734L60.1058 4.32744L60.5149 5.11898L58.1896 6.26887L58.925 7.6916L61.4511 6.44244L61.8603 7.23398L58.367 8.96139Z" fill="#0717DE"/>
<path d="M63.1238 6.52375L59.9567 1.572L61.859 0.408914C62.2487 0.170643 62.618 0.0368249 62.9667 0.00746085C63.3171 -0.0229131 63.6363 0.0397859 63.9243 0.195558C64.2129 0.348708 64.4583 0.583249 64.6603 0.899181C64.8634 1.21672 64.9704 1.53476 64.9812 1.8533C64.9926 2.16921 64.9052 2.47261 64.7191 2.76351C64.532 3.0528 64.2436 3.31658 63.8539 3.55485L62.499 4.38325L62.0227 3.63855L63.2538 2.88588C63.4817 2.74655 63.6487 2.60183 63.7548 2.45174C63.8599 2.30002 63.909 2.14333 63.9021 1.98164C63.8958 1.81734 63.8364 1.64733 63.724 1.47164C63.6117 1.29594 63.4803 1.16774 63.3299 1.08704C63.1785 1.00472 63.0095 0.975753 62.8229 1.00012C62.6353 1.02288 62.4268 1.10443 62.1972 1.24477L61.3551 1.75968L64.0428 5.96189L63.1238 6.52375ZM64.3094 2.67772L67.0003 4.15366L65.9748 4.78064L63.3062 3.29106L64.3094 2.67772Z" fill="#0717DE"/>
<path d="M1.76031 6.60489L-0.000227329 5.62679L2.96168 0.546597L4.75773 1.54443C5.27355 1.831 5.65735 2.17887 5.90913 2.58804C6.16357 2.9965 6.28017 3.44551 6.25894 3.93508C6.23771 4.42465 6.07331 4.9332 5.76574 5.46074C5.45721 5.98992 5.09144 6.38879 4.66843 6.65733C4.24711 6.92682 3.78858 7.0585 3.29285 7.05238C2.79881 7.0472 2.28797 6.89803 1.76031 6.60489ZM1.40517 5.3534L2.17889 5.78326C2.54081 5.98433 2.88029 6.08755 3.19734 6.09292C3.51535 6.09663 3.81044 6.00333 4.08262 5.813C4.35576 5.62101 4.60562 5.33071 4.8322 4.94209C5.05877 4.55347 5.1859 4.19717 5.21358 3.8732C5.24222 3.54757 5.17444 3.25485 5.01022 2.99503C4.84865 2.7345 4.59199 2.50652 4.24022 2.31109L3.43859 1.86573L1.40517 5.3534Z" stroke="#0717DE" stroke-width="1.10248" mask="url(#path-1-inside-1_2009_714)"/>
<path d="M8.98854 3.76329L6.39731 9.03294L5.42093 8.57572L8.01216 3.30607L8.98854 3.76329Z" stroke="#0717DE" stroke-width="1.10248" mask="url(#path-1-inside-1_2009_714)"/>
<path d="M12.9469 7.31203C12.9592 7.15123 12.9482 6.99891 12.914 6.85508C12.8823 6.71016 12.8275 6.57585 12.7496 6.45213C12.6736 6.32911 12.5731 6.22023 12.4481 6.1255C12.3238 6.029 12.1783 5.9489 12.0116 5.88523C11.7126 5.77102 11.4167 5.7428 11.1239 5.80055C10.8311 5.8583 10.5604 6.00418 10.3118 6.23819C10.0657 6.47112 9.86093 6.79131 9.69738 7.19877C9.53241 7.60978 9.45883 7.98316 9.47663 8.31891C9.49444 8.65466 9.59127 8.94193 9.76713 9.18072C9.94369 9.41774 10.1878 9.59577 10.4995 9.71482C10.7822 9.8228 11.0482 9.86309 11.2975 9.8357C11.5485 9.809 11.7694 9.71968 11.9599 9.56771C12.1512 9.41398 12.2999 9.20513 12.4058 8.94117L12.6203 9.06293L11.1089 8.48568L11.4182 7.71504L13.6771 8.5778L13.4147 9.23151C13.2277 9.69744 12.9645 10.0617 12.625 10.3243C12.2855 10.587 11.9012 10.7426 11.472 10.7911C11.0436 10.838 10.5992 10.7735 10.1389 10.5977C9.62605 10.4018 9.22086 10.1173 8.92336 9.74417C8.62838 9.36998 8.45571 8.9332 8.40535 8.43382C8.35751 7.93336 8.44879 7.39614 8.67918 6.82215C8.85553 6.38279 9.07647 6.01462 9.34199 5.71761C9.60932 5.42129 9.90641 5.19662 10.2333 5.04359C10.5608 4.88878 10.9048 4.80767 11.2652 4.80024C11.6263 4.79105 11.9889 4.85601 12.3532 4.99513C12.6613 5.1128 12.9307 5.26679 13.1616 5.45712C13.3931 5.64567 13.5798 5.86 13.7217 6.10012C13.8654 6.34093 13.9599 6.59767 14.0051 6.87034C14.0503 7.143 14.0401 7.42105 13.9744 7.70448L12.9469 7.31203Z" stroke="#0717DE" stroke-width="1.10248" mask="url(#path-1-inside-1_2009_714)"/>
<path d="M16.5865 6.56895L14.8162 12.1525L13.7814 11.8407L15.5517 6.25713L16.5865 6.56895Z" stroke="#0717DE" stroke-width="1.10248" mask="url(#path-1-inside-1_2009_714)"/>
<path d="M17.0868 7.62723L17.3039 6.76536L21.937 7.87302L21.7199 8.73488L19.9251 8.30579L18.7127 13.1195L17.6692 12.87L18.8816 8.05633L17.0868 7.62723Z" stroke="#0717DE" stroke-width="1.10248" mask="url(#path-1-inside-1_2009_714)"/>
<path d="M21.8726 13.7161L20.7284 13.5542L23.6773 8.06634L25.0006 8.25357L26.2211 14.3313L25.0769 14.1695L24.1845 9.34911L24.1383 9.34257L21.8726 13.7161ZM22.2496 11.4541L25.3701 11.8956L25.2441 12.737L22.1236 12.2955L22.2496 11.4541Z" stroke="#0717DE" stroke-width="1.10248" mask="url(#path-1-inside-1_2009_714)"/>
<path d="M27.3805 14.4183L27.7061 8.58357L28.7878 8.63965L28.5117 13.5883L31.1417 13.7246L31.0923 14.6107L27.3805 14.4183Z" stroke="#0717DE" stroke-width="1.10248" mask="url(#path-1-inside-1_2009_714)"/>
<path d="M34.4684 14.564L34.0656 8.73495L36.3498 8.58103C36.781 8.55197 37.1439 8.59423 37.4386 8.70782C37.7351 8.81937 37.9621 8.98422 38.1197 9.20236C38.2791 9.42037 38.3688 9.67359 38.3887 9.962C38.4051 10.1992 38.3726 10.4054 38.291 10.5805C38.2093 10.7538 38.0934 10.8979 37.9433 11.0129C37.7932 11.1278 37.6226 11.2146 37.4315 11.2732L37.4354 11.3302C37.6479 11.3273 37.8553 11.3772 38.0575 11.4798C38.2615 11.5805 38.4329 11.7309 38.5717 11.9313C38.7104 12.1316 38.79 12.3798 38.8104 12.6758C38.8313 12.9775 38.7753 13.2539 38.6424 13.505C38.5093 13.7541 38.2971 13.9581 38.0056 14.1169C37.7141 14.2757 37.3401 14.3705 36.8837 14.4012L34.4684 14.564ZM35.4883 13.6088L36.6508 13.5305C37.0432 13.5041 37.3207 13.412 37.4835 13.2542C37.6481 13.0944 37.7224 12.8988 37.7064 12.6673C37.6944 12.4946 37.64 12.342 37.543 12.2094C37.4459 12.0748 37.314 11.9732 37.1473 11.9043C36.9804 11.8336 36.7853 11.8058 36.5619 11.8208L35.3703 11.9011L35.4883 13.6088ZM35.3178 11.1412L36.3871 11.0691C36.5735 11.0565 36.7392 11.012 36.8842 10.9355C37.029 10.8571 37.1399 10.7534 37.2169 10.6243C37.2956 10.4932 37.3291 10.3422 37.3173 10.1715C37.3017 9.94566 37.2073 9.76521 37.034 9.63009C36.8627 9.49485 36.6178 9.43796 36.2992 9.45943L35.2067 9.53305L35.3178 11.1412Z" stroke="#0717DE" stroke-width="1.10248" mask="url(#path-1-inside-1_2009_714)"/>
<path d="M41.0198 13.9666L39.879 14.1529L40.9784 8.05077L42.2978 7.83527L45.3554 13.2585L44.2146 13.4448L41.8616 9.1211L41.8155 9.12863L41.0198 13.9666ZM40.6739 11.7009L43.7852 11.1927L43.9274 12.0313L40.8161 12.5394L40.6739 11.7009Z" stroke="#0717DE" stroke-width="1.10248" mask="url(#path-1-inside-1_2009_714)"/>
<path d="M49.7128 6.05119L51.3052 11.6809L50.3763 11.9329L46.5755 8.83519L46.5276 8.84817L47.6123 12.6828L46.5681 12.9662L44.9757 7.3365L45.9101 7.08295L49.7089 10.1842L49.7596 10.1704L48.6741 6.33299L49.7128 6.05119Z" stroke="#0717DE" stroke-width="1.10248" mask="url(#path-1-inside-1_2009_714)"/>
<path d="M52.8511 11.1666L50.6693 5.72962L51.678 5.34201L52.6805 7.84018L52.7485 7.81406L53.9183 4.48113L55.1499 4.00785L53.9757 7.27506L57.3508 9.43757L56.1382 9.90353L53.5416 8.21097L53.21 9.15961L53.8598 10.779L52.8511 11.1666Z" stroke="#0717DE" stroke-width="1.10248" mask="url(#path-1-inside-1_2009_714)"/>
<path d="M58.367 8.96139L55.6726 3.74897L59.145 2.03187L59.5542 2.8234L57.0489 4.06225L57.7804 5.47734L60.1058 4.32744L60.5149 5.11898L58.1896 6.26887L58.925 7.6916L61.4511 6.44244L61.8603 7.23398L58.367 8.96139Z" stroke="#0717DE" stroke-width="1.10248" mask="url(#path-1-inside-1_2009_714)"/>
<path d="M63.1238 6.52375L59.9567 1.572L61.859 0.408914C62.2487 0.170643 62.618 0.0368249 62.9667 0.00746085C63.3171 -0.0229131 63.6363 0.0397859 63.9243 0.195558C64.2129 0.348708 64.4583 0.583249 64.6603 0.899181C64.8634 1.21672 64.9704 1.53476 64.9812 1.8533C64.9926 2.16921 64.9052 2.47261 64.7191 2.76351C64.532 3.0528 64.2436 3.31658 63.8539 3.55485L62.499 4.38325L62.0227 3.63855L63.2538 2.88588C63.4817 2.74655 63.6487 2.60183 63.7548 2.45174C63.8599 2.30002 63.909 2.14333 63.9021 1.98164C63.8958 1.81734 63.8364 1.64733 63.724 1.47164C63.6117 1.29594 63.4803 1.16774 63.3299 1.08704C63.1785 1.00472 63.0095 0.975753 62.8229 1.00012C62.6353 1.02288 62.4268 1.10443 62.1972 1.24477L61.3551 1.75968L64.0428 5.96189L63.1238 6.52375ZM64.3094 2.67772L67.0003 4.15366L65.9748 4.78064L63.3062 3.29106L64.3094 2.67772Z" stroke="#0717DE" stroke-width="1.10248" mask="url(#path-1-inside-1_2009_714)"/>
</g>
</svg>
